  0
SECTION
  2
HEADER
  9
$ACADVER
  1
AC1012
  9
$DWGCODEPAGE
  3
ansi_1252
  9
$INSBASE
 10
0.0
 20
0.0
 30
0.0
  9
$EXTMIN
 10
7.6
 20
508.100008
 30
0.0
  9
$EXTMAX
 10
3274.600049
 20
2687.90004
 30
0.0
  9
$LIMMIN
 10
0.0
 20
0.0
  9
$LIMMAX
 10
1.0
 20
1.0
  9
$ORTHOMODE
 70
     0
  9
$REGENMODE
 70
     1
  9
$FILLMODE
 70
     1
  9
$QTEXTMODE
 70
     0
  9
$MIRRTEXT
 70
     1
  9
$DRAGMODE
 70
     2
  9
$LTSCALE
 40
1.0
  9
$OSMODE
 70
     0
  9
$ATTMODE
 70
     1
  9
$TEXTSIZE
 40
3.5
  9
$TRACEWID
 40
0.5
  9
$TEXTSTYLE
  7
STANDARD
  9
$CLAYER
  8
0
  9
$CELTYPE
  6
BYLAYER
  9
$CECOLOR
 62
   256
  9
$CELTSCALE
 40
1.0
  9
$DELOBJ
 70
     1
  9
$DISPSILH
 70
     0
  9
$DIMSCALE
 40
1.0
  9
$DIMASZ
 40
0.18
  9
$DIMEXO
 40
0.0625
  9
$DIMDLI
 40
0.38
  9
$DIMRND
 40
0.0
  9
$DIMDLE
 40
0.0
  9
$DIMEXE
 40
0.18
  9
$DIMTP
 40
0.0
  9
$DIMTM
 40
0.0
  9
$DIMTXT
 40
0.18
  9
$DIMCEN
 40
0.09
  9
$DIMTSZ
 40
0.0
  9
$DIMTOL
 70
     0
  9
$DIMLIM
 70
     0
  9
$DIMTIH
 70
     1
  9
$DIMTOH
 70
     1
  9
$DIMSE1
 70
     0
  9
$DIMSE2
 70
     0
  9
$DIMTAD
 70
     0
  9
$DIMZIN
 70
     0
  9
$DIMBLK
  1

  9
$DIMASO
 70
     1
  9
$DIMSHO
 70
     1
  9
$DIMPOST
  1

  9
$DIMAPOST
  1

  9
$DIMALT
 70
     0
  9
$DIMALTD
 70
     2
  9
$DIMALTF
 40
25.4
  9
$DIMLFAC
 40
1.0
  9
$DIMTOFL
 70
     0
  9
$DIMTVP
 40
0.0
  9
$DIMTIX
 70
     0
  9
$DIMSOXD
 70
     0
  9
$DIMSAH
 70
     0
  9
$DIMBLK1
  1

  9
$DIMBLK2
  1

  9
$DIMSTYLE
  2
STANDARD
  9
$DIMCLRD
 70
     0
  9
$DIMCLRE
 70
     0
  9
$DIMCLRT
 70
     0
  9
$DIMTFAC
 40
1.0
  9
$DIMGAP
 40
0.09
  9
$DIMJUST
 70
     0
  9
$DIMSD1
 70
     0
  9
$DIMSD2
 70
     0
  9
$DIMTOLJ
 70
     1
  9
$DIMTZIN
 70
     0
  9
$DIMALTZ
 70
     0
  9
$DIMALTTZ
 70
     0
  9
$DIMFIT
 70
     3
  9
$DIMUPT
 70
     0
  9
$DIMUNIT
 70
     2
  9
$DIMDEC
 70
     4
  9
$DIMTDEC
 70
     4
  9
$DIMALTU
 70
     2
  9
$DIMALTTD
 70
     2
  9
$DIMTXSTY
  7
STANDARD
  9
$DIMAUNIT
 70
     0
  9
$LUNITS
 70
     2
  9
$LUPREC
 70
     4
  9
$SKETCHINC
 40
0.1
  9
$FILLETRAD
 40
2.0
  9
$AUNITS
 70
     0
  9
$AUPREC
 70
     0
  9
$MENU
  1
ACAD
  9
$ELEVATION
 40
0.0
  9
$PELEVATION
 40
0.0
  9
$THICKNESS
 40
0.0
  9
$LIMCHECK
 70
     0
  9
$BLIPMODE
 70
     1
  9
$CHAMFERA
 40
0.0
  9
$CHAMFERB
 40
0.0
  9
$CHAMFERC
 40
0.0
  9
$CHAMFERD
 40
0.0
  9
$SKPOLY
 70
     0
  9
$TDCREATE
 40
0.0000000000
  9
$TDUPDATE
 40
0.0000000000
  9
$TDINDWG
 40
0.0000000000
  9
$TDUSRTIMER
 40
0.0000000000
  9
$USRTIMER
 70
     1
  9
$ANGBASE
 50
0.0
  9
$ANGDIR
 70
     0
  9
$PDMODE
 70
     0
  9
$PDSIZE
 40
0.0
  9
$PLINEWID
 40
0.0
  9
$COORDS
 70
     2
  9
$SPLFRAME
 70
     0
  9
$SPLINETYPE
 70
     6
  9
$SPLINESEGS
 70
     8
  9
$ATTDIA
 70
     0
  9
$ATTREQ
 70
     1
  9
$HANDLING
 70
     1
  9
$HANDSEED
  5
3A9
  9
$SURFTAB1
 70
     6
  9
$SURFTAB2
 70
     6
  9
$SURFTYPE
 70
     6
  9
$SURFU
 70
     6
  9
$SURFV
 70
     6
  9
$UCSNAME
  2

  9
$UCSORG
 10
0.0
 20
0.0
 30
0.0
  9
$UCSXDIR
 10
1.0
 20
0.0
 30
0.0
  9
$UCSYDIR
 10
0.0
 20
1.0
 30
0.0
  9
$PUCSNAME
  2

  9
$PUCSORG
 10
0.0
 20
0.0
 30
0.0
  9
$PUCSXDIR
 10
1.0
 20
0.0
 30
0.0
  9
$PUCSYDIR
 10
0.0
 20
1.0
 30
0.0
  9
$USERI1
 70
     0
  9
$USERI2
 70
     0
  9
$USERI3
 70
     0
  9
$USERI4
 70
     0
  9
$USERI5
 70
     0
  9
$USERR1
 40
0.0
  9
$USERR2
 40
0.0
  9
$USERR3
 40
0.0
  9
$USERR4
 40
0.0
  9
$USERR5
 40
0.0
  9
$WORLDVIEW
 70
     1
  9
$SHADEDGE
 70
     3
  9
$SHADEDIF
 70
    70
  9
$TILEMODE
 70
     1
  9
$MAXACTVP
 70
    16
  9
$PINSBASE
 10
0.0
 20
0.0
 30
0.0
  9
$PLIMCHECK
 70
     0
  9
$PEXTMIN
 10
1.000000E+20
 20
1.000000E+20
 30
1.000000E+20
  9
$PEXTMAX
 10
-1.000000E+20
 20
-1.000000E+20
 30
-1.000000E+20
  9
$PLIMMIN
 10
0.0
 20
0.0
  9
$PLIMMAX
 10
12.0
 20
9.0
  9
$UNITMODE
 70
     0
  9
$VISRETAIN
 70
     0
  9
$PLINEGEN
 70
     0
  9
$PSLTSCALE
 70
     1
  9
$TREEDEPTH
 70
  3020
  9
$PICKSTYLE
 70
     1
  9
$CMLSTYLE
  2
STANDARD
  9
$CMLJUST
 70
     0
  9
$CMLSCALE
 40
1.0
  9
$SAVEIMAGES
 70
     0
  0
ENDSEC
  0
SECTION
  2
CLASSES
  0
ENDSEC
  0
SECTION
  2
TABLES
  0
TABLE
  2
VPORT
  5
8
100
AcDbSymbolTable
 70
     3
  0
VPORT
  5
3A8
100
AcDbSymbolTableRecord
100
AcDbViewportTableRecord
  2
*ACTIVE
 70
     0
 10
0.0
 20
0.0
 11
1.0
 21
1.0
 12
2440.613236
 22
1343.95002
 13
0.0
 23
0.0
 14
1.0
 24
1.0
 15
0.0
 25
0.0
 16
0.0
 26
0.0
 36
1.0
 17
0.0
 27
0.0
 37
0.0
 40
2687.90004
 41
1.816
 42
50.0
 43
0.0
 44
0.0
 50
0.0
 51
0.0
 71
     0
 72
   100
 73
     1
 74
     1
 75
     0
 76
     0
 77
     0
 78
     0
  0
ENDTAB
  0
TABLE
  2
LTYPE
  5
5
100
AcDbSymbolTable
 70
     9
  0
LTYPE
  5
13
100
AcDbSymbolTableRecord
100
AcDbLinetypeTableRecord
  2
BYBLOCK
 70
     0
  3

 72
    65
 73
     0
 40
0.0
  0
LTYPE
  5
14
100
AcDbSymbolTableRecord
100
AcDbLinetypeTableRecord
  2
BYLAYER
 70
     0
  3

 72
    65
 73
     0
 40
0.0
  0
LTYPE
  5
15
100
AcDbSymbolTableRecord
100
AcDbLinetypeTableRecord
  2
CONTINUOUS
 70
    64
  3
Solid line
 72
    65
 73
     0
 40
0.0
  0
LTYPE
  5
1E
100
AcDbSymbolTableRecord
100
AcDbLinetypeTableRecord
  2
BORDER
 70
    64
  3
__ __ . __ __ .
 72
    65
 73
     6
 40
0.046053
 49
0.013158
 74
     0
 49
-0.006579
 74
     0
 49
0.013158
 74
     0
 49
-0.006579
 74
     0
 49
0.0
 74
     0
 49
-0.006579
 74
     0
  0
LTYPE
  5
1F
100
AcDbSymbolTableRecord
100
AcDbLinetypeTableRecord
  2
CENTER
 70
    64
  3
____ _ ____ _
 72
    65
 73
     4
 40
0.052632
 49
0.032895
 74
     0
 49
-0.006579
 74
     0
 49
0.006579
 74
     0
 49
-0.006579
 74
     0
  0
LTYPE
  5
20
100
AcDbSymbolTableRecord
100
AcDbLinetypeTableRecord
  2
DASHDOT
 70
    64
  3
__ . __ . __ .
 72
    65
 73
     4
 40
0.026316
 49
0.013158
 74
     0
 49
-0.006579
 74
     0
 49
0.0
 74
     0
 49
-0.006579
 74
     0
  0
LTYPE
  5
21
100
AcDbSymbolTableRecord
100
AcDbLinetypeTableRecord
  2
DASHED
 70
    64
  3
__ __ __ __ __
 72
    65
 73
     2
 40
0.019737
 49
0.013158
 74
     0
 49
-0.006579
 74
     0
  0
LTYPE
  5
22
100
AcDbSymbolTableRecord
100
AcDbLinetypeTableRecord
  2
DIVIDE
 70
    64
  3
__ . . __ . . 
 72
    65
 73
     6
 40
0.032895
 49
0.013158
 74
     0
 49
-0.006579
 74
     0
 49
0.0
 74
     0
 49
-0.006579
 74
     0
 49
0.0
 74
     0
 49
-0.006579
 74
     0
  0
LTYPE
  5
23
100
AcDbSymbolTableRecord
100
AcDbLinetypeTableRecord
  2
DOT
 70
    64
  3
..............
 72
    65
 73
     4
 40
0.013158
 49
0.0
 74
     0
 49
-0.006579
 74
     0
 49
0.0
 74
     0
 49
-0.006579
 74
     0
  0
LTYPE
  5
24
100
AcDbSymbolTableRecord
100
AcDbLinetypeTableRecord
  2
HIDDEN
 70
    64
  3
_ _ _ _ _ _ _
 72
    65
 73
     2
 40
0.009868
 49
0.006579
 74
     0
 49
-0.003289
 74
     0
  0
LTYPE
  5
25
100
AcDbSymbolTableRecord
100
AcDbLinetypeTableRecord
  2
PHANTOM
 70
    64
  3
_____ _ _ _____ _ _ 
 72
    65
 73
     6
 40
0.065789
 49
0.032895
 74
     0
 49
-0.006579
 74
     0
 49
0.006579
 74
     0
 49
-0.006579
 74
     0
 49
0.006579
 74
     0
 49
-0.006579
 74
     0
  0
ENDTAB
  0
TABLE
  2
LAYER
  5
2
100
AcDbSymbolTable
 70
     6
  0
LAYER
  5
F
100
AcDbSymbolTableRecord
100
AcDbLayerTableRecord
  2
0
 70
     0
 62
     7
  6
CONTINUOUS
  0
LAYER
  5
26
100
AcDbSymbolTableRecord
100
AcDbLayerTableRecord
  2
TEN
 70
     0
 62
     4
  6
CONTINUOUS
  0
LAYER
  5
27
100
AcDbSymbolTableRecord
100
AcDbLayerTableRecord
  2
1
 70
     0
 62
     7
  6
CONTINUOUS
  0
LAYER
  5
28
100
AcDbSymbolTableRecord
100
AcDbLayerTableRecord
  2
ONE
 70
     0
 62
     7
  6
CONTINUOUS
  0
LAYER
  5
29
100
AcDbSymbolTableRecord
100
AcDbLayerTableRecord
  2
SEVEN
 70
     0
 62
     5
  6
CONTINUOUS
  0
LAYER
  5
2A
100
AcDbSymbolTableRecord
100
AcDbLayerTableRecord
  2
FIVE
 70
     0
 62
     3
  6
CONTINUOUS
  0
ENDTAB
  0
TABLE
  2
STYLE
  5
3
100
AcDbSymbolTable
 70
     3
  0
STYLE
  5
10
100
AcDbSymbolTableRecord
100
AcDbTextStyleTableRecord
  2
STANDARD
 70
     0
 40
0.0
 41
1.0
 50
0.0
 71
     0
 42
2.5
  3
TXT
  4

  0
STYLE
  5
2B
100
AcDbSymbolTableRecord
100
AcDbTextStyleTableRecord
  2
DDSC_1
 70
     0
 40
0.0
 41
1.0
 50
0.0
 71
     0
 42
2.5
  3
ROMANS
  4

  0
STYLE
  5
2C
100
AcDbSymbolTableRecord
100
AcDbTextStyleTableRecord
  2
DDSC_2
 70
     0
 40
0.0
 41
1.0
 50
0.0
 71
     0
 42
2.5
  3
SCRIPTS
  4

  0
ENDTAB
  0
TABLE
  2
VIEW
  5
6
100
AcDbSymbolTable
 70
     0
  0
ENDTAB
  0
TABLE
  2
UCS
  5
7
100
AcDbSymbolTable
 70
     0
  0
ENDTAB
  0
TABLE
  2
APPID
  5
9
100
AcDbSymbolTable
 70
     1
  0
APPID
  5
11
100
AcDbSymbolTableRecord
100
AcDbRegAppTableRecord
  2
ACAD
 70
     0
  0
ENDTAB
  0
TABLE
  2
DIMSTYLE
  5
A
100
AcDbSymbolTable
 70
     1
  0
DIMSTYLE
105
3A6
100
AcDbSymbolTableRecord
100
AcDbDimStyleTableRecord
  2
STANDARD
 70
     0
  3

  4

  5

  6

  7

 40
1.0
 41
0.18
 42
0.0625
 43
0.38
 44
0.18
 45
0.0
 46
0.0
 47
0.0
 48
0.0
140
0.18
141
0.09
142
0.0
143
25.4
144
1.0
145
0.0
146
1.0
147
0.09
 71
     0
 72
     0
 73
     1
 74
     1
 75
     0
 76
     0
 77
     0
 78
     0
170
     0
171
     2
172
     0
173
     0
174
     0
175
     0
176
     0
177
     0
178
     0
270
     2
271
     4
272
     4
273
     2
274
     2
340
10
275
     0
280
     0
281
     0
282
     0
283
     1
284
     0
285
     0
286
     0
287
     3
288
     0
  0
ENDTAB
  0
TABLE
  2
BLOCK_RECORD
  5
1
100
AcDbSymbolTable
 70
     0
  0
BLOCK_RECORD
  5
19
100
AcDbSymbolTableRecord
100
AcDbBlockTableRecord
  2
*MODEL_SPACE
  0
BLOCK_RECORD
  5
16
100
AcDbSymbolTableRecord
100
AcDbBlockTableRecord
  2
*PAPER_SPACE
  0
ENDTAB
  0
ENDSEC
  0
SECTION
  2
BLOCKS
  0
BLOCK
  5
1A
100
AcDbEntity
  8
0
100
AcDbBlockBegin
  2
*MODEL_SPACE
 70
     0
 10
0.0
 20
0.0
 30
0.0
  3
*MODEL_SPACE
  1

  0
ENDBLK
  5
1B
100
AcDbEntity
  8
0
100
AcDbBlockEnd
  0
BLOCK
  5
17
100
AcDbEntity
 67
     1
  8
0
100
AcDbBlockBegin
  2
*PAPER_SPACE
 70
     0
 10
0.0
 20
0.0
 30
0.0
  3
*PAPER_SPACE
  1

  0
ENDBLK
  5
18
100
AcDbEntity
 67
     1
  8
0
100
AcDbBlockEnd
  0
ENDSEC
  0
SECTION
  2
ENTITIES
  0
LINE
  5
2F
100
AcDbEntity
  8
TEN
  6
DASHED
 62
     1
100
AcDbLine
 10
1978.900029
 20
842.600013
 30
0.0
 11
1979.500029
 21
843.200013
 31
0.0
  0
LINE
  5
30
100
AcDbEntity
  8
TEN
  6
DASHED
 62
     1
100
AcDbLine
 10
1979.500029
 20
843.200013
 30
0.0
 11
1980.70003
 21
844.400013
 31
0.0
  0
LINE
  5
31
100
AcDbEntity
  8
TEN
 62
     1
100
AcDbLine
 10
2064.900031
 20
607.400009
 30
0.0
 11
2064.900031
 21
638.80001
 31
0.0
  0
LINE
  5
32
100
AcDbEntity
  8
TEN
 62
     1
100
AcDbLine
 10
2054.700031
 20
607.400009
 30
0.0
 11
2054.700031
 21
630.200009
 31
0.0
  0
LINE
  5
33
100
AcDbEntity
  8
TEN
 62
     1
100
AcDbLine
 10
1981.80003
 20
1023.100015
 30
0.0
 11
1981.80003
 21
991.900015
 31
0.0
  0
LINE
  5
34
100
AcDbEntity
  8
TEN
 62
     1
100
AcDbLine
 10
2064.900031
 20
1023.100015
 30
0.0
 11
2064.900031
 21
991.900015
 31
0.0
  0
LINE
  5
35
100
AcDbEntity
  8
TEN
 62
     1
100
AcDbLine
 10
1992.00003
 20
1023.100015
 30
0.0
 11
1992.00003
 21
1000.300015
 31
0.0
  0
LINE
  5
36
100
AcDbEntity
  8
TEN
 62
     1
100
AcDbLine
 10
1992.00003
 20
1000.300015
 30
0.0
 11
2046.00003
 21
1000.300015
 31
0.0
  0
LINE
  5
37
100
AcDbEntity
  8
TEN
 62
     1
100
AcDbLine
 10
2004.60003
 20
991.900015
 30
0.0
 11
2004.60003
 21
969.100014
 31
0.0
  0
LINE
  5
38
100
AcDbEntity
  8
TEN
 62
     1
100
AcDbLine
 10
1981.80003
 20
991.900015
 30
0.0
 11
1994.20003
 21
991.900015
 31
0.0
  0
LINE
  5
39
100
AcDbEntity
  8
TEN
 62
     1
100
AcDbLine
 10
2004.60003
 20
991.900015
 30
0.0
 11
2064.900031
 21
991.900015
 31
0.0
  0
LINE
  5
3A
100
AcDbEntity
  8
TEN
 62
     1
100
AcDbLine
 10
1978.900029
 20
997.600015
 30
0.0
 11
2033.10003
 21
997.600015
 31
0.0
  0
LINE
  5
3B
100
AcDbEntity
  8
TEN
 62
     1
100
AcDbLine
 10
2033.10003
 20
997.600015
 30
0.0
 11
2033.10003
 21
917.800014
 31
0.0
  0
LINE
  5
3C
100
AcDbEntity
  8
TEN
 62
     1
100
AcDbLine
 10
2033.10003
 20
917.800014
 30
0.0
 11
2016.00003
 21
917.800014
 31
0.0
  0
ARC
  5
3D
100
AcDbEntity
  8
TEN
 62
     1
100
AcDbCircle
 10
2016.00003
 20
914.900014
 30
0.0
 40
2.9
100
AcDbArc
 50
90.0
 51
180.0
  0
LINE
  5
3E
100
AcDbEntity
  8
TEN
 62
     1
100
AcDbLine
 10
1978.900029
 20
592.700009
 30
0.0
 11
2001.70003
 21
592.700009
 31
0.0
  0
LINE
  5
3F
100
AcDbEntity
  8
TEN
 62
     1
100
AcDbLine
 10
2001.70003
 20
624.500009
 30
0.0
 11
2001.70003
 21
630.200009
 31
0.0
  0
LINE
  5
40
100
AcDbEntity
  8
TEN
 62
     1
100
AcDbLine
 10
2013.10003
 20
633.100009
 30
0.0
 11
2004.60003
 21
633.100009
 31
0.0
  0
LINE
  5
41
100
AcDbEntity
  8
TEN
  6
DOT
 62
     1
100
AcDbLine
 10
1994.20003
 20
638.80001
 30
0.0
 11
1994.20003
 21
661.60001
 31
0.0
  0
LINE
  5
42
100
AcDbEntity
  8
TEN
  6
DOT
 62
     1
100
AcDbLine
 10
2004.60003
 20
661.60001
 30
0.0
 11
2004.60003
 21
638.80001
 31
0.0
  0
LINE
  5
43
100
AcDbEntity
  8
TEN
  6
DOT
 62
     1
100
AcDbLine
 10
1981.80003
 20
638.80001
 30
0.0
 11
1981.80003
 21
607.400009
 31
0.0
  0
LINE
  5
44
100
AcDbEntity
  8
TEN
  6
DOT
 62
     1
100
AcDbLine
 10
1994.20003
 20
661.60001
 30
0.0
 11
2013.10003
 21
661.60001
 31
0.0
  0
LINE
  5
45
100
AcDbEntity
  8
TEN
  6
DOT
 62
     1
100
AcDbLine
 10
1994.20003
 20
638.80001
 30
0.0
 11
1981.80003
 21
638.80001
 31
0.0
  0
LINE
  5
46
100
AcDbEntity
  8
TEN
  6
DOT
 62
     1
100
AcDbLine
 10
1992.00003
 20
607.400009
 30
0.0
 11
1992.00003
 21
630.200009
 31
0.0
  0
LINE
  5
47
100
AcDbEntity
  8
TEN
 62
     1
100
AcDbLine
 10
2001.70003
 20
630.200009
 30
0.0
 11
2054.700031
 21
630.200009
 31
0.0
  0
ARC
  5
48
100
AcDbEntity
  8
TEN
 62
     1
100
AcDbCircle
 10
2004.60003
 20
630.200009
 30
0.0
 40
2.9
100
AcDbArc
 50
90.0
 51
180.0
  0
LINE
  5
49
100
AcDbEntity
  8
TEN
  6
DOT
 62
     1
100
AcDbLine
 10
2004.60003
 20
638.80001
 30
0.0
 11
2013.10003
 21
638.80001
 31
0.0
  0
LINE
  5
4A
100
AcDbEntity
  8
TEN
 62
     1
100
AcDbLine
 10
2013.10003
 20
638.80001
 30
0.0
 11
2064.900031
 21
638.80001
 31
0.0
  0
LINE
  5
4B
100
AcDbEntity
  8
TEN
  6
DOT
 62
     1
100
AcDbLine
 10
2001.70003
 20
630.200009
 30
0.0
 11
1992.00003
 21
630.200009
 31
0.0
  0
LINE
  5
4C
100
AcDbEntity
  8
TEN
  6
DASHED
 62
     1
100
AcDbLine
 10
2029.00003
 20
630.200009
 30
0.0
 11
2029.00003
 21
603.100009
 31
0.0
  0
LINE
  5
4D
100
AcDbEntity
  8
TEN
 62
     1
100
AcDbLine
 10
1994.20003
 20
991.900015
 30
0.0
 11
1994.20003
 21
969.100014
 31
0.0
  0
LINE
  5
4E
100
AcDbEntity
  8
TEN
 62
     1
100
AcDbLine
 10
1994.20003
 20
969.100014
 30
0.0
 11
2004.60003
 21
969.100014
 31
0.0
  0
LINE
  5
4F
100
AcDbEntity
  8
TEN
  6
DOT
 62
     1
100
AcDbLine
 10
2004.60003
 20
969.100014
 30
0.0
 11
2013.10003
 21
969.100014
 31
0.0
  0
LINE
  5
50
100
AcDbEntity
  8
TEN
  6
DOT
 62
     1
100
AcDbLine
 10
2013.10003
 20
914.900014
 30
0.0
 11
2013.10003
 21
969.100014
 31
0.0
  0
LINE
  5
51
100
AcDbEntity
  8
TEN
 62
     1
100
AcDbLine
 10
1962.400029
 20
835.200012
 30
0.0
 11
1970.300029
 21
835.200012
 31
0.0
  0
LINE
  5
52
100
AcDbEntity
  8
TEN
 62
     1
100
AcDbLine
 10
1962.400029
 20
835.200012
 30
0.0
 11
1962.400029
 21
859.100013
 31
0.0
  0
LINE
  5
53
100
AcDbEntity
  8
TEN
 62
     1
100
AcDbLine
 10
1964.200029
 20
860.900013
 30
0.0
 11
1973.800029
 21
860.900013
 31
0.0
  0
LINE
  5
54
100
AcDbEntity
  8
TEN
 62
     1
100
AcDbLine
 10
1975.600029
 20
862.700013
 30
0.0
 11
1975.600029
 21
868.800013
 31
0.0
  0
LINE
  5
55
100
AcDbEntity
  8
TEN
 62
     1
100
AcDbLine
 10
1977.100029
 20
870.500013
 30
0.0
 11
1978.900029
 21
870.500013
 31
0.0
  0
LINE
  5
56
100
AcDbEntity
  8
TEN
 62
     1
100
AcDbLine
 10
1971.800029
 20
836.400012
 30
0.0
 11
1973.800029
 21
841.500013
 31
0.0
  0
LINE
  5
57
100
AcDbEntity
  8
TEN
 62
     1
100
AcDbLine
 10
1975.400029
 20
842.600013
 30
0.0
 11
1978.900029
 21
842.600013
 31
0.0
  0
ARC
  5
58
100
AcDbEntity
  8
TEN
 62
     1
100
AcDbCircle
 10
1977.100029
 20
868.800013
 30
0.0
 40
1.7
100
AcDbArc
 50
90.0
 51
180.0
  0
ARC
  5
59
100
AcDbEntity
  8
TEN
 62
     1
100
AcDbCircle
 10
1973.800029
 20
862.700013
 30
0.0
 40
1.7
100
AcDbArc
 50
270.0
 51
0.0
  0
ARC
  5
5A
100
AcDbEntity
  8
1
 62
     1
100
AcDbCircle
 10
1964.200029
 20
859.100013
 30
0.0
 40
1.7
100
AcDbArc
 50
90.0
 51
180.0
  0
ARC
  5
5B
100
AcDbEntity
  8
1
 62
     1
100
AcDbCircle
 10
1970.300029
 20
836.900012
 30
0.0
 40
1.7
100
AcDbArc
 50
270.0
 51
340.0
  0
ARC
  5
5C
100
AcDbEntity
  8
TEN
 62
     1
100
AcDbCircle
 10
1975.400029
 20
840.900013
 30
0.0
 40
1.7
100
AcDbArc
 50
90.0
 51
160.0
  0
LINE
  5
5D
100
AcDbEntity
  8
TEN
 62
     1
100
AcDbLine
 10
1975.400029
 20
842.600013
 30
0.0
 11
1964.000029
 21
842.600013
 31
0.0
  0
LINE
  5
5E
100
AcDbEntity
  8
TEN
  6
DASHED
 62
     1
100
AcDbLine
 10
1978.900029
 20
842.600013
 30
0.0
 11
1978.300029
 21
843.200013
 31
0.0
  0
LINE
  5
5F
100
AcDbEntity
  8
TEN
  6
DASHED
 62
     1
100
AcDbLine
 10
1978.300029
 20
843.200013
 30
0.0
 11
1977.100029
 21
844.400013
 31
0.0
  0
LINE
  5
60
100
AcDbEntity
  8
TEN
  6
DASHED
 62
     1
100
AcDbLine
 10
1978.900029
 20
842.600013
 30
0.0
 11
1978.300029
 21
842.100013
 31
0.0
  0
LINE
  5
61
100
AcDbEntity
  8
TEN
  6
DASHED
 62
     1
100
AcDbLine
 10
1978.300029
 20
842.100013
 30
0.0
 11
1977.100029
 21
840.900013
 31
0.0
  0
LINE
  5
62
100
AcDbEntity
  8
TEN
  6
DASHED
 62
     1
100
AcDbLine
 10
1978.900029
 20
842.600013
 30
0.0
 11
1979.500029
 21
842.100013
 31
0.0
  0
LINE
  5
63
100
AcDbEntity
  8
TEN
  6
DASHED
 62
     1
100
AcDbLine
 10
1979.500029
 20
842.100013
 30
0.0
 11
1980.70003
 21
840.900013
 31
0.0
  0
CIRCLE
  5
64
100
AcDbEntity
  8
TEN
 62
     1
100
AcDbCircle
 10
1978.900029
 20
842.600013
 30
0.0
 40
0.7
  0
LINE
  5
65
100
AcDbEntity
  8
TEN
  6
DASHED
 62
     1
100
AcDbLine
 10
2017.60003
 20
1000.300015
 30
0.0
 11
2017.60003
 21
1029.000015
 31
0.0
  0
LINE
  5
66
100
AcDbEntity
  8
TEN
 62
     1
100
AcDbLine
 10
2064.900031
 20
991.900015
 30
0.0
 11
2087.700031
 21
991.900015
 31
0.0
  0
LINE
  5
67
100
AcDbEntity
  8
TEN
 62
     1
100
AcDbLine
 10
2087.700031
 20
991.900015
 30
0.0
 11
2087.700031
 21
1023.100015
 31
0.0
  0
LINE
  5
68
100
AcDbEntity
  8
TEN
 62
     1
100
AcDbLine
 10
2087.700031
 20
1023.100015
 30
0.0
 11
2054.700031
 21
1023.100015
 31
0.0
  0
LINE
  5
69
100
AcDbEntity
  8
TEN
 62
     1
100
AcDbLine
 10
2054.700031
 20
1023.100015
 30
0.0
 11
2043.30003
 21
1023.100015
 31
0.0
  0
LINE
  5
6A
100
AcDbEntity
  8
TEN
 62
     1
100
AcDbLine
 10
2043.30003
 20
1023.100015
 30
0.0
 11
2043.30003
 21
1006.000015
 31
0.0
  0
LINE
  5
6B
100
AcDbEntity
  8
TEN
 62
     1
100
AcDbLine
 10
2043.30003
 20
1006.000015
 30
0.0
 11
2046.00003
 21
1006.000015
 31
0.0
  0
LINE
  5
6C
100
AcDbEntity
  8
TEN
  6
DOT
 62
     1
100
AcDbLine
 10
2046.00003
 20
1006.000015
 30
0.0
 11
2054.700031
 21
1006.000015
 31
0.0
  0
LINE
  5
6D
100
AcDbEntity
  8
TEN
 62
     1
100
AcDbLine
 10
2046.00003
 20
1023.100015
 30
0.0
 11
2046.00003
 21
994.600015
 31
0.0
  0
LINE
  5
6E
100
AcDbEntity
  8
TEN
 62
     1
100
AcDbLine
 10
2046.00003
 20
994.600015
 30
0.0
 11
2063.100031
 21
994.600015
 31
0.0
  0
LINE
  5
6F
100
AcDbEntity
  8
TEN
 62
     1
100
AcDbLine
 10
2063.100031
 20
994.600015
 30
0.0
 11
2063.100031
 21
1023.100015
 31
0.0
  0
LINE
  5
70
100
AcDbEntity
  8
TEN
  6
DOT
 62
     1
100
AcDbLine
 10
2054.700031
 20
1000.300015
 30
0.0
 11
2054.700031
 21
1023.100015
 31
0.0
  0
LINE
  5
71
100
AcDbEntity
  8
TEN
  6
DOT
 62
     1
100
AcDbLine
 10
2046.00003
 20
1000.300015
 30
0.0
 11
2054.700031
 21
1000.300015
 31
0.0
  0
LINE
  5
72
100
AcDbEntity
  8
TEN
 62
     1
100
AcDbLine
 10
1981.80003
 20
1023.100015
 30
0.0
 11
1992.00003
 21
1023.100015
 31
0.0
  0
LINE
  5
73
100
AcDbEntity
  8
TEN
 62
     1
100
AcDbLine
 10
2014.80003
 20
1026.000015
 30
0.0
 11
2020.50003
 21
1026.000015
 31
0.0
  0
LINE
  5
74
100
AcDbEntity
  8
TEN
 62
     1
100
AcDbLine
 10
2064.900031
 20
607.400009
 30
0.0
 11
2054.700031
 21
607.400009
 31
0.0
  0
LINE
  5
75
100
AcDbEntity
  8
TEN
  6
DOT
 62
     1
100
AcDbLine
 10
1981.80003
 20
607.400009
 30
0.0
 11
1992.00003
 21
607.400009
 31
0.0
  0
LINE
  5
76
100
AcDbEntity
  8
TEN
 62
     1
100
AcDbLine
 10
1978.900029
 20
997.600015
 30
0.0
 11
1978.900029
 21
894.700013
 31
0.0
  0
LINE
  5
77
100
AcDbEntity
  8
TEN
 62
     1
100
AcDbLine
 10
1978.900029
 20
894.700013
 30
0.0
 11
1978.900029
 21
592.700009
 31
0.0
  0
LINE
  5
78
100
AcDbEntity
  8
TEN
  6
DOT
 62
     1
100
AcDbLine
 10
1984.60003
 20
638.80001
 30
0.0
 11
1984.60003
 21
898.400013
 31
0.0
  0
LINE
  5
79
100
AcDbEntity
  8
TEN
  6
DOT
 62
     1
100
AcDbLine
 10
1984.60003
 20
892.700013
 30
0.0
 11
1984.60003
 21
991.900015
 31
0.0
  0
LINE
  5
7A
100
AcDbEntity
  8
TEN
 62
     1
100
AcDbLine
 10
2013.10003
 20
897.000013
 30
0.0
 11
2013.10003
 21
633.100009
 31
0.0
  0
LINE
  5
7B
100
AcDbEntity
  8
TEN
 62
     1
100
AcDbLine
 10
2013.10003
 20
914.900014
 30
0.0
 11
2013.10003
 21
893.900013
 31
0.0
  0
LINE
  5
7C
100
AcDbEntity
  8
TEN
  6
DOT
 62
     1
100
AcDbLine
 10
1992.00003
 20
607.400009
 30
0.0
 11
2001.50003
 21
607.400009
 31
0.0
  0
LINE
  5
7D
100
AcDbEntity
  8
TEN
 62
     1
100
AcDbLine
 10
2003.40003
 20
607.400009
 30
0.0
 11
2003.40003
 21
624.500009
 31
0.0
  0
LINE
  5
7E
100
AcDbEntity
  8
TEN
 62
     1
100
AcDbLine
 10
2003.40003
 20
624.500009
 30
0.0
 11
2001.70003
 21
624.500009
 31
0.0
  0
LINE
  5
7F
100
AcDbEntity
  8
TEN
 62
     1
100
AcDbLine
 10
2003.40003
 20
607.400009
 30
0.0
 11
2001.70003
 21
607.400009
 31
0.0
  0
LINE
  5
80
100
AcDbEntity
  8
TEN
 62
     1
100
AcDbLine
 10
2001.70003
 20
624.500009
 30
0.0
 11
2001.70003
 21
592.700009
 31
0.0
  0
LINE
  5
81
100
AcDbEntity
  8
TEN
  6
DOT
 62
     1
100
AcDbLine
 10
2001.70003
 20
624.500009
 30
0.0
 11
1992.00003
 21
624.500009
 31
0.0
  0
LINE
  5
82
100
AcDbEntity
  8
TEN
 62
     1
100
AcDbLine
 10
2059.800031
 20
940.000014
 30
0.0
 11
2059.800031
 21
895.700013
 31
0.0
  0
LINE
  5
83
100
AcDbEntity
  8
TEN
 62
     1
100
AcDbLine
 10
2059.800031
 20
895.700013
 30
0.0
 11
2042.70003
 21
895.700013
 31
0.0
  0
LINE
  5
84
100
AcDbEntity
  8
TEN
 62
     1
100
AcDbLine
 10
2059.800031
 20
940.000014
 30
0.0
 11
2038.20003
 21
940.000014
 31
0.0
  0
LINE
  5
85
100
AcDbEntity
  8
TEN
 62
     1
100
AcDbLine
 10
2038.20003
 20
940.000014
 30
0.0
 11
2038.20003
 21
933.200014
 31
0.0
  0
LINE
  5
86
100
AcDbEntity
  8
TEN
 62
     1
100
AcDbLine
 10
2038.20003
 20
933.200014
 30
0.0
 11
2042.70003
 21
933.200014
 31
0.0
  0
LINE
  5
87
100
AcDbEntity
  8
TEN
 62
     1
100
AcDbLine
 10
2042.70003
 20
895.700013
 30
0.0
 11
2042.70003
 21
933.200014
 31
0.0
  0
LINE
  5
88
100
AcDbEntity
  8
TEN
 62
     1
100
AcDbLine
 10
2042.70003
 20
914.900014
 30
0.0
 11
2013.10003
 21
914.900014
 31
0.0
  0
LINE
  5
89
100
AcDbEntity
  8
TEN
 62
     1
100
AcDbLine
 10
2038.20003
 20
933.200014
 30
0.0
 11
2035.80003
 21
933.200014
 31
0.0
  0
LINE
  5
8A
100
AcDbEntity
  8
TEN
 62
     1
100
AcDbLine
 10
2035.80003
 20
933.200014
 30
0.0
 11
2035.80003
 21
934.900014
 31
0.0
  0
LINE
  5
8B
100
AcDbEntity
  8
TEN
 62
     1
100
AcDbLine
 10
2035.80003
 20
934.900014
 30
0.0
 11
2033.10003
 21
934.900014
 31
0.0
  0
LINE
  5
8C
100
AcDbEntity
  8
TEN
  6
DOT
 62
     1
100
AcDbLine
 10
2033.10003
 20
934.900014
 30
0.0
 11
2013.10003
 21
934.900014
 31
0.0
  0
LINE
  5
8D
100
AcDbEntity
  8
1
 62
     7
100
AcDbLine
 10
1689.100025
 20
706.400011
 30
0.0
 11
1689.100025
 21
723.500011
 31
0.0
  0
LINE
  5
8E
100
AcDbEntity
  8
1
 62
     7
100
AcDbLine
 10
1689.100025
 20
723.500011
 30
0.0
 11
1951.000029
 21
723.500011
 31
0.0
  0
LINE
  5
8F
100
AcDbEntity
  8
1
 62
     1
100
AcDbLine
 10
1951.000029
 20
723.500011
 30
0.0
 11
1951.000029
 21
706.400011
 31
0.0
  0
LINE
  5
90
100
AcDbEntity
  8
1
 62
     7
100
AcDbLine
 10
1951.000029
 20
706.400011
 30
0.0
 11
1689.100025
 21
706.400011
 31
0.0
  0
LINE
  5
91
100
AcDbEntity
  8
1
 62
     7
100
AcDbLine
 10
1779.600027
 20
700.70001
 30
0.0
 11
1746.000026
 21
575.400009
 31
0.0
  0
LINE
  5
92
100
AcDbEntity
  8
ONE
 62
     7
100
AcDbLine
 10
430.100006
 20
700.70001
 30
0.0
 11
430.100006
 21
575.400009
 31
0.0
  0
LINE
  5
93
100
AcDbEntity
  8
ONE
 62
     7
100
AcDbLine
 10
438.600007
 20
700.70001
 30
0.0
 11
438.600007
 21
575.400009
 31
0.0
  0
LINE
  5
94
100
AcDbEntity
  8
1
 62
     7
100
AcDbLine
 10
1686.100025
 20
700.70001
 30
0.0
 11
1686.100025
 21
706.400011
 31
0.0
  0
LINE
  5
95
100
AcDbEntity
  8
1
 62
     7
100
AcDbLine
 10
1686.100025
 20
706.400011
 30
0.0
 11
1788.600027
 21
706.400011
 31
0.0
  0
LINE
  5
96
100
AcDbEntity
  8
1
 62
     7
100
AcDbLine
 10
1788.600027
 20
706.400011
 30
0.0
 11
1788.600027
 21
700.70001
 31
0.0
  0
LINE
  5
97
100
AcDbEntity
  8
1
 62
     7
100
AcDbLine
 10
1788.600027
 20
700.70001
 30
0.0
 11
1686.100025
 21
700.70001
 31
0.0
  0
LINE
  5
98
100
AcDbEntity
  8
1
  6
DASHED
 62
     7
100
AcDbLine
 10
1859.900028
 20
612.500009
 30
0.0
 11
1948.100029
 21
612.500009
 31
0.0
  0
LINE
  5
99
100
AcDbEntity
  8
1
  6
DASHED
 62
     1
100
AcDbLine
 10
1948.100029
 20
612.500009
 30
0.0
 11
1949.800029
 21
612.500009
 31
0.0
  0
LINE
  5
9A
100
AcDbEntity
  8
1
  6
DASHED
 62
     7
100
AcDbLine
 10
1859.900028
 20
612.500009
 30
0.0
 11
1859.900028
 21
700.70001
 31
0.0
  0
LINE
  5
9B
100
AcDbEntity
  8
1
  6
DASHED
 62
     7
100
AcDbLine
 10
1859.900028
 20
700.70001
 30
0.0
 11
1859.900028
 21
702.50001
 31
0.0
  0
LINE
  5
9C
100
AcDbEntity
  8
1
  6
DASHED
 62
     7
100
AcDbLine
 10
1859.900028
 20
612.500009
 30
0.0
 11
1771.600026
 21
612.500009
 31
0.0
  0
LINE
  5
9D
100
AcDbEntity
  8
1
  6
DASHED
 62
     7
100
AcDbLine
 10
1771.600026
 20
612.500009
 30
0.0
 11
1770.000026
 21
612.500009
 31
0.0
  0
LINE
  5
9E
100
AcDbEntity
  8
1
  6
DASHED
 62
     7
100
AcDbLine
 10
1859.900028
 20
612.500009
 30
0.0
 11
1859.900028
 21
524.200008
 31
0.0
  0
LINE
  5
9F
100
AcDbEntity
  8
1
  6
DASHED
 62
     7
100
AcDbLine
 10
1859.900028
 20
524.200008
 30
0.0
 11
1859.900028
 21
522.600008
 31
0.0
  0
CIRCLE
  5
A0
100
AcDbEntity
  8
1
 62
     7
100
AcDbCircle
 10
1859.900028
 20
612.500009
 30
0.0
 40
88.300001
  0
LINE
  5
A1
100
AcDbEntity
  8
1
  6
DASHED
 62
     7
100
AcDbLine
 10
595.900009
 20
622.000009
 30
0.0
 11
693.40001
 21
622.000009
 31
0.0
  0
LINE
  5
A2
100
AcDbEntity
  8
1
  6
DASHED
 62
     7
100
AcDbLine
 10
693.40001
 20
622.000009
 30
0.0
 11
695.20001
 21
622.000009
 31
0.0
  0
LINE
  5
A3
100
AcDbEntity
  8
ONE
  6
DASHED
 62
     7
100
AcDbLine
 10
595.900009
 20
622.000009
 30
0.0
 11
595.900009
 21
719.500011
 31
0.0
  0
LINE
  5
A4
100
AcDbEntity
  8
ONE
  6
DASHED
 62
     7
100
AcDbLine
 10
595.900009
 20
719.500011
 30
0.0
 11
595.900009
 21
721.300011
 31
0.0
  0
LINE
  5
A5
100
AcDbEntity
  8
ONE
  6
DASHED
 62
     7
100
AcDbLine
 10
595.900009
 20
622.000009
 30
0.0
 11
498.100007
 21
622.000009
 31
0.0
  0
LINE
  5
A6
100
AcDbEntity
  8
ONE
  6
DASHED
 62
     7
100
AcDbLine
 10
498.100007
 20
622.000009
 30
0.0
 11
496.500007
 21
622.000009
 31
0.0
  0
LINE
  5
A7
100
AcDbEntity
  8
ONE
  6
DASHED
 62
     7
100
AcDbLine
 10
595.900009
 20
622.000009
 30
0.0
 11
595.900009
 21
524.200008
 31
0.0
  0
LINE
  5
A8
100
AcDbEntity
  8
ONE
  6
DASHED
 62
     7
100
AcDbLine
 10
595.900009
 20
524.200008
 30
0.0
 11
595.900009
 21
522.600008
 31
0.0
  0
ARC
  5
A9
100
AcDbEntity
  8
ONE
 62
     7
100
AcDbCircle
 10
595.900009
 20
622.000009
 30
0.0
 40
97.500001
100
AcDbArc
 50
208.0
 51
332.0
  0
LINE
  5
AA
100
AcDbEntity
  8
1
  6
DASHED
 62
     7
100
AcDbLine
 10
1322.30002
 20
1241.600019
 30
0.0
 11
1345.70002
 21
1241.600019
 31
0.0
  0
LINE
  5
AB
100
AcDbEntity
  8
1
  6
DASHED
 62
     7
100
AcDbLine
 10
1345.70002
 20
1241.600019
 30
0.0
 11
1347.50002
 21
1241.600019
 31
0.0
  0
LINE
  5
AC
100
AcDbEntity
  8
1
  6
DASHED
 62
     7
100
AcDbLine
 10
1322.30002
 20
1241.600019
 30
0.0
 11
1322.30002
 21
1265.000019
 31
0.0
  0
LINE
  5
AD
100
AcDbEntity
  8
1
  6
DASHED
 62
     7
100
AcDbLine
 10
1322.30002
 20
1265.000019
 30
0.0
 11
1322.30002
 21
1266.700019
 31
0.0
  0
LINE
  5
AE
100
AcDbEntity
  8
1
  6
DASHED
 62
     7
100
AcDbLine
 10
1322.30002
 20
1241.600019
 30
0.0
 11
1299.000019
 21
1241.600019
 31
0.0
  0
LINE
  5
AF
100
AcDbEntity
  8
1
  6
DASHED
 62
     7
100
AcDbLine
 10
1299.000019
 20
1241.600019
 30
0.0
 11
1297.400019
 21
1241.600019
 31
0.0
  0
LINE
  5
B0
100
AcDbEntity
  8
1
  6
DASHED
 62
     7
100
AcDbLine
 10
1322.30002
 20
1241.600019
 30
0.0
 11
1322.30002
 21
1218.400018
 31
0.0
  0
LINE
  5
B1
100
AcDbEntity
  8
1
  6
DASHED
 62
     7
100
AcDbLine
 10
1322.30002
 20
1218.400018
 30
0.0
 11
1322.30002
 21
1216.700018
 31
0.0
  0
CIRCLE
  5
B2
100
AcDbEntity
  8
1
 62
     7
100
AcDbCircle
 10
1322.30002
 20
1241.600019
 30
0.0
 40
23.3
  0
LINE
  5
B3
100
AcDbEntity
  8
1
 62
     7
100
AcDbLine
 10
1265.400019
 20
1278.700019
 30
0.0
 11
1265.400019
 21
1208.600018
 31
0.0
  0
LINE
  5
B4
100
AcDbEntity
  8
1
 62
     7
100
AcDbLine
 10
1265.400019
 20
1208.600018
 30
0.0
 11
1379.300021
 21
1208.600018
 31
0.0
  0
LINE
  5
B5
100
AcDbEntity
  8
1
 62
     7
100
AcDbLine
 10
1379.300021
 20
1208.600018
 30
0.0
 11
1379.300021
 21
1278.700019
 31
0.0
  0
LINE
  5
B6
100
AcDbEntity
  8
1
 62
     7
100
AcDbLine
 10
1379.300021
 20
1278.700019
 30
0.0
 11
1265.400019
 21
1278.700019
 31
0.0
  0
LINE
  5
B7
100
AcDbEntity
  8
1
 62
     7
100
AcDbLine
 10
1265.400019
 20
1241.600019
 30
0.0
 11
1299.000019
 21
1241.600019
 31
0.0
  0
LINE
  5
B8
100
AcDbEntity
  8
1
 62
     7
100
AcDbLine
 10
1345.70002
 20
1241.600019
 30
0.0
 11
1379.300021
 21
1241.600019
 31
0.0
  0
LINE
  5
B9
100
AcDbEntity
  8
1
 62
     7
100
AcDbLine
 10
1259.700019
 20
1276.400019
 30
0.0
 11
1259.700019
 21
700.70001
 31
0.0
  0
LINE
  5
BA
100
AcDbEntity
  8
1
 62
     7
100
AcDbLine
 10
1264.200019
 20
1276.400019
 30
0.0
 11
1264.200019
 21
1197.200018
 31
0.0
  0
LINE
  5
BB
100
AcDbEntity
  8
1
 62
     7
100
AcDbLine
 10
1264.200019
 20
1276.400019
 30
0.0
 11
1264.200019
 21
1276.800019
 31
0.0
  0
LINE
  5
BC
100
AcDbEntity
  8
1
 62
     7
100
AcDbLine
 10
1264.200019
 20
1276.800019
 30
0.0
 11
1259.700019
 21
1276.800019
 31
0.0
  0
LINE
  5
BD
100
AcDbEntity
  8
1
 62
     7
100
AcDbLine
 10
1259.700019
 20
1276.800019
 30
0.0
 11
1259.700019
 21
1276.400019
 31
0.0
  0
LINE
  5
BE
100
AcDbEntity
  8
1
 62
     7
100
AcDbLine
 10
1264.200019
 20
1208.600018
 30
0.0
 11
1264.200019
 21
1197.200018
 31
0.0
  0
LINE
  5
BF
100
AcDbEntity
  8
1
 62
     7
100
AcDbLine
 10
1264.200019
 20
1197.200018
 30
0.0
 11
1497.700022
 21
1197.200018
 31
0.0
  0
LINE
  5
C0
100
AcDbEntity
  8
1
 62
     7
100
AcDbLine
 10
1497.700022
 20
1197.200018
 30
0.0
 11
1497.700022
 21
1208.600018
 31
0.0
  0
LINE
  5
C1
100
AcDbEntity
  8
1
 62
     7
100
AcDbLine
 10
1497.700022
 20
1208.600018
 30
0.0
 11
1264.200019
 21
1208.600018
 31
0.0
  0
LINE
  5
C2
100
AcDbEntity
  8
1
  6
DOT
 62
     7
100
AcDbLine
 10
1264.200019
 20
1197.200018
 30
0.0
 11
1501.200022
 21
1197.200018
 31
0.0
  0
LINE
  5
C3
100
AcDbEntity
  8
1
 62
     7
100
AcDbLine
 10
1501.200022
 20
1197.200018
 30
0.0
 11
1501.200022
 21
700.70001
 31
0.0
  0
LINE
  5
C4
100
AcDbEntity
  8
1
 62
     7
100
AcDbLine
 10
1535.900023
 20
803.200012
 30
0.0
 11
1535.900023
 21
857.400013
 31
0.0
  0
LINE
  5
C5
100
AcDbEntity
  8
1
 62
     7
100
AcDbLine
 10
1535.900023
 20
857.400013
 30
0.0
 11
1553.000023
 21
857.400013
 31
0.0
  0
LINE
  5
C6
100
AcDbEntity
  8
1
 62
     7
100
AcDbLine
 10
1553.000023
 20
857.400013
 30
0.0
 11
1553.000023
 21
803.200012
 31
0.0
  0
LINE
  5
C7
100
AcDbEntity
  8
1
 62
     7
100
AcDbLine
 10
1553.000023
 20
803.200012
 30
0.0
 11
1535.900023
 21
803.200012
 31
0.0
  0
LINE
  5
C8
100
AcDbEntity
  8
1
 62
     7
100
AcDbLine
 10
1535.900023
 20
863.100013
 30
0.0
 11
1535.900023
 21
700.70001
 31
0.0
  0
LINE
  5
C9
100
AcDbEntity
  8
1
 62
     7
100
AcDbLine
 10
1535.900023
 20
863.100013
 30
0.0
 11
1510.200023
 21
863.100013
 31
0.0
  0
LINE
  5
CA
100
AcDbEntity
  8
1
 62
     7
100
AcDbLine
 10
1504.500022
 20
868.800013
 30
0.0
 11
1504.500022
 21
1197.200018
 31
0.0
  0
LINE
  5
CB
100
AcDbEntity
  8
1
 62
     7
100
AcDbLine
 10
1497.700022
 20
1197.200018
 30
0.0
 11
1504.500022
 21
1197.200018
 31
0.0
  0
ARC
  5
CC
100
AcDbEntity
  8
1
 62
     7
100
AcDbCircle
 10
1510.200023
 20
868.800013
 30
0.0
 40
5.6
100
AcDbArc
 50
180.0
 51
270.0
  0
LINE
  5
CD
100
AcDbEntity
  8
1
 62
     7
100
AcDbLine
 10
764.300011
 20
1276.800019
 30
0.0
 11
764.300011
 21
1231.200018
 31
0.0
  0
LINE
  5
CE
100
AcDbEntity
  8
1
 62
     7
100
AcDbLine
 10
764.300011
 20
700.70001
 30
0.0
 11
764.300011
 21
1273.600019
 31
0.0
  0
LINE
  5
CF
100
AcDbEntity
  8
1
 62
     7
100
AcDbLine
 10
764.300011
 20
1273.600019
 30
0.0
 11
711.300011
 21
1273.600019
 31
0.0
  0
LINE
  5
D0
100
AcDbEntity
  8
1
 62
     7
100
AcDbLine
 10
762.200011
 20
1273.600019
 30
0.0
 11
762.200011
 21
1279.300019
 31
0.0
  0
LINE
  5
D1
100
AcDbEntity
  8
1
 62
     7
100
AcDbLine
 10
762.200011
 20
1279.300019
 30
0.0
 11
698.90001
 21
1279.300019
 31
0.0
  0
LINE
  5
D2
100
AcDbEntity
  8
1
 62
     7
100
AcDbLine
 10
711.300011
 20
1273.600019
 30
0.0
 11
704.60001
 21
1273.600019
 31
0.0
  0
LINE
  5
D3
100
AcDbEntity
  8
1
 62
     7
100
AcDbLine
 10
704.60001
 20
1273.600019
 30
0.0
 11
550.900008
 21
700.70001
 31
0.0
  0
LINE
  5
D4
100
AcDbEntity
  8
1
 62
     7
100
AcDbLine
 10
705.200011
 20
1279.300019
 30
0.0
 11
705.200011
 21
1273.600019
 31
0.0
  0
CIRCLE
  5
D5
100
AcDbEntity
  8
1
 62
     7
100
AcDbCircle
 10
1859.900028
 20
612.500009
 30
0.0
 40
64.000001
  0
CIRCLE
  5
D6
100
AcDbEntity
  8
1
 62
     7
100
AcDbCircle
 10
1859.900028
 20
612.500009
 30
0.0
 40
28.4
  0
LINE
  5
D7
100
AcDbEntity
  8
1
 62
     7
100
AcDbLine
 10
1905.500028
 20
706.400011
 30
0.0
 11
1905.500028
 21
688.10001
 31
0.0
  0
LINE
  5
D8
100
AcDbEntity
  8
1
 62
     7
100
AcDbLine
 10
1784.300027
 20
658.10001
 30
0.0
 11
1768.200026
 21
658.10001
 31
0.0
  0
LINE
  5
D9
100
AcDbEntity
  8
1
 62
     7
100
AcDbLine
 10
765.700011
 20
1276.800019
 30
0.0
 11
765.700011
 21
1281.300019
 31
0.0
  0
LINE
  5
DA
100
AcDbEntity
  8
1
 62
     7
100
AcDbLine
 10
1258.300019
 20
1281.300019
 30
0.0
 11
1258.300019
 21
1215.900018
 31
0.0
  0
LINE
  5
DB
100
AcDbEntity
  8
1
 62
     7
100
AcDbLine
 10
765.700011
 20
1215.900018
 30
0.0
 11
765.700011
 21
1281.300019
 31
0.0
  0
LINE
  5
DC
100
AcDbEntity
  8
1
 62
     7
100
AcDbLine
 10
764.300011
 20
1276.800019
 30
0.0
 11
765.700011
 21
1276.800019
 31
0.0
  0
LINE
  5
DD
100
AcDbEntity
  8
1
 62
     7
100
AcDbLine
 10
1258.300019
 20
1231.200018
 30
0.0
 11
1259.700019
 21
1231.200018
 31
0.0
  0
LINE
  5
DE
100
AcDbEntity
  8
1
  6
DOT
 62
     7
100
AcDbLine
 10
1259.700019
 20
1276.800019
 30
0.0
 11
1258.300019
 21
1276.800019
 31
0.0
  0
LINE
  5
DF
100
AcDbEntity
  8
1
  6
DOT
 62
     7
100
AcDbLine
 10
764.300011
 20
1231.200018
 30
0.0
 11
765.700011
 21
1231.200018
 31
0.0
  0
LINE
  5
E0
100
AcDbEntity
  8
ONE
 62
     7
100
AcDbLine
 10
430.100006
 20
700.70001
 30
0.0
 11
404.400006
 21
700.70001
 31
0.0
  0
LINE
  5
E1
100
AcDbEntity
  8
ONE
 62
     7
100
AcDbLine
 10
404.400006
 20
700.70001
 30
0.0
 11
404.400006
 21
575.400009
 31
0.0
  0
LINE
  5
E2
100
AcDbEntity
  8
ONE
 62
     7
100
AcDbLine
 10
404.400006
 20
575.400009
 30
0.0
 11
430.100006
 21
575.400009
 31
0.0
  0
LINE
  5
E3
100
AcDbEntity
  8
1
 62
     7
100
AcDbLine
 10
703.10001
 20
1279.300019
 30
0.0
 11
548.700008
 21
704.20001
 31
0.0
  0
LINE
  5
E4
100
AcDbEntity
  8
1
 62
     7
100
AcDbLine
 10
703.10001
 20
1279.300019
 30
0.0
 11
424.100006
 21
1279.300019
 31
0.0
  0
LINE
  5
E5
100
AcDbEntity
  8
ONE
 62
     7
100
AcDbLine
 10
418.400006
 20
704.20001
 30
0.0
 11
548.700008
 21
704.20001
 31
0.0
  0
LINE
  5
E6
100
AcDbEntity
  8
ONE
 62
     7
100
AcDbLine
 10
418.400006
 20
723.100011
 30
0.0
 11
422.500006
 21
723.100011
 31
0.0
  0
LINE
  5
E7
100
AcDbEntity
  8
ONE
 62
     7
100
AcDbLine
 10
422.500006
 20
723.100011
 30
0.0
 11
418.900006
 21
723.100011
 31
0.0
  0
LINE
  5
E8
100
AcDbEntity
  8
ONE
 62
     7
100
AcDbLine
 10
414.400006
 20
727.600011
 30
0.0
 11
414.400006
 21
803.800012
 31
0.0
  0
LINE
  5
E9
100
AcDbEntity
  8
ONE
 62
     7
100
AcDbLine
 10
418.900006
 20
808.500012
 30
0.0
 11
433.900006
 21
808.500012
 31
0.0
  0
LINE
  5
EA
100
AcDbEntity
  8
ONE
 62
     7
100
AcDbLine
 10
442.900007
 20
803.800012
 30
0.0
 11
442.900007
 21
727.600011
 31
0.0
  0
LINE
  5
EB
100
AcDbEntity
  8
ONE
 62
     7
100
AcDbLine
 10
438.400007
 20
803.800012
 30
0.0
 11
438.400007
 21
727.600011
 31
0.0
  0
LINE
  5
EC
100
AcDbEntity
  8
ONE
 62
     7
100
AcDbLine
 10
438.400007
 20
808.500012
 30
0.0
 11
433.900006
 21
808.500012
 31
0.0
  0
LINE
  5
ED
100
AcDbEntity
  8
ONE
 62
     7
100
AcDbLine
 10
438.400007
 20
723.100011
 30
0.0
 11
433.900006
 21
723.100011
 31
0.0
  0
LINE
  5
EE
100
AcDbEntity
  8
ONE
 62
     7
100
AcDbLine
 10
422.500006
 20
723.100011
 30
0.0
 11
433.900006
 21
723.100011
 31
0.0
  0
LINE
  5
EF
100
AcDbEntity
  8
ONE
 62
     7
100
AcDbLine
 10
418.400006
 20
819.900012
 30
0.0
 11
422.500006
 21
819.900012
 31
0.0
  0
LINE
  5
F0
100
AcDbEntity
  8
ONE
 62
     7
100
AcDbLine
 10
422.500006
 20
819.900012
 30
0.0
 11
418.900006
 21
819.900012
 31
0.0
  0
LINE
  5
F1
100
AcDbEntity
  8
ONE
 62
     7
100
AcDbLine
 10
414.400006
 20
824.400012
 30
0.0
 11
414.400006
 21
900.600013
 31
0.0
  0
LINE
  5
F2
100
AcDbEntity
  8
ONE
 62
     7
100
AcDbLine
 10
418.900006
 20
905.300013
 30
0.0
 11
433.900006
 21
905.300013
 31
0.0
  0
LINE
  5
F3
100
AcDbEntity
  8
ONE
 62
     7
100
AcDbLine
 10
442.900007
 20
900.600013
 30
0.0
 11
442.900007
 21
824.400012
 31
0.0
  0
LINE
  5
F4
100
AcDbEntity
  8
ONE
 62
     7
100
AcDbLine
 10
438.400007
 20
900.600013
 30
0.0
 11
438.400007
 21
824.400012
 31
0.0
  0
LINE
  5
F5
100
AcDbEntity
  8
ONE
 62
     7
100
AcDbLine
 10
438.400007
 20
905.300013
 30
0.0
 11
433.900006
 21
905.300013
 31
0.0
  0
LINE
  5
F6
100
AcDbEntity
  8
ONE
 62
     7
100
AcDbLine
 10
438.400007
 20
819.900012
 30
0.0
 11
433.900006
 21
819.900012
 31
0.0
  0
LINE
  5
F7
100
AcDbEntity
  8
ONE
 62
     7
100
AcDbLine
 10
422.500006
 20
819.900012
 30
0.0
 11
433.900006
 21
819.900012
 31
0.0
  0
LINE
  5
F8
100
AcDbEntity
  8
ONE
 62
     7
100
AcDbLine
 10
418.400006
 20
1273.600019
 30
0.0
 11
418.400006
 21
1117.300017
 31
0.0
  0
LINE
  5
F9
100
AcDbEntity
  8
ONE
 62
     7
100
AcDbLine
 10
418.400006
 20
916.700014
 30
0.0
 11
422.500006
 21
916.700014
 31
0.0
  0
LINE
  5
FA
100
AcDbEntity
  8
ONE
 62
     7
100
AcDbLine
 10
422.500006
 20
916.700014
 30
0.0
 11
418.900006
 21
916.700014
 31
0.0
  0
LINE
  5
FB
100
AcDbEntity
  8
ONE
 62
     7
100
AcDbLine
 10
414.400006
 20
921.200014
 30
0.0
 11
414.400006
 21
997.400015
 31
0.0
  0
LINE
  5
FC
100
AcDbEntity
  8
ONE
 62
     7
100
AcDbLine
 10
418.900006
 20
1002.100015
 30
0.0
 11
433.900006
 21
1002.100015
 31
0.0
  0
LINE
  5
FD
100
AcDbEntity
  8
ONE
 62
     7
100
AcDbLine
 10
442.900007
 20
997.400015
 30
0.0
 11
442.900007
 21
921.200014
 31
0.0
  0
LINE
  5
FE
100
AcDbEntity
  8
ONE
 62
     7
100
AcDbLine
 10
438.400007
 20
997.400015
 30
0.0
 11
438.400007
 21
921.200014
 31
0.0
  0
LINE
  5
FF
100
AcDbEntity
  8
ONE
 62
     7
100
AcDbLine
 10
438.400007
 20
1002.100015
 30
0.0
 11
433.900006
 21
1002.100015
 31
0.0
  0
LINE
  5
100
100
AcDbEntity
  8
ONE
 62
     7
100
AcDbLine
 10
438.400007
 20
916.700014
 30
0.0
 11
433.900006
 21
916.700014
 31
0.0
  0
LINE
  5
101
100
AcDbEntity
  8
ONE
 62
     7
100
AcDbLine
 10
422.500006
 20
916.700014
 30
0.0
 11
433.900006
 21
916.700014
 31
0.0
  0
LINE
  5
102
100
AcDbEntity
  8
ONE
 62
     7
100
AcDbLine
 10
418.400006
 20
1013.500015
 30
0.0
 11
422.500006
 21
1013.500015
 31
0.0
  0
LINE
  5
103
100
AcDbEntity
  8
ONE
 62
     7
100
AcDbLine
 10
422.500006
 20
1013.500015
 30
0.0
 11
418.900006
 21
1013.500015
 31
0.0
  0
LINE
  5
104
100
AcDbEntity
  8
ONE
 62
     7
100
AcDbLine
 10
414.400006
 20
1018.000015
 30
0.0
 11
414.400006
 21
1094.200016
 31
0.0
  0
LINE
  5
105
100
AcDbEntity
  8
ONE
 62
     7
100
AcDbLine
 10
418.900006
 20
1098.900016
 30
0.0
 11
433.900006
 21
1098.900016
 31
0.0
  0
LINE
  5
106
100
AcDbEntity
  8
ONE
 62
     7
100
AcDbLine
 10
442.900007
 20
1094.200016
 30
0.0
 11
442.900007
 21
1018.000015
 31
0.0
  0
LINE
  5
107
100
AcDbEntity
  8
ONE
 62
     7
100
AcDbLine
 10
438.400007
 20
1094.200016
 30
0.0
 11
438.400007
 21
1018.000015
 31
0.0
  0
LINE
  5
108
100
AcDbEntity
  8
ONE
 62
     7
100
AcDbLine
 10
438.400007
 20
1098.900016
 30
0.0
 11
433.900006
 21
1098.900016
 31
0.0
  0
LINE
  5
109
100
AcDbEntity
  8
ONE
 62
     7
100
AcDbLine
 10
438.400007
 20
1013.500015
 30
0.0
 11
433.900006
 21
1013.500015
 31
0.0
  0
LINE
  5
10A
100
AcDbEntity
  8
ONE
 62
     7
100
AcDbLine
 10
422.500006
 20
1013.500015
 30
0.0
 11
433.900006
 21
1013.500015
 31
0.0
  0
LINE
  5
10B
100
AcDbEntity
  8
ONE
 62
     7
100
AcDbLine
 10
418.400006
 20
1117.300017
 30
0.0
 11
418.400006
 21
1098.900016
 31
0.0
  0
LINE
  5
10C
100
AcDbEntity
  8
ONE
 62
     7
100
AcDbLine
 10
418.400006
 20
1013.500015
 30
0.0
 11
418.400006
 21
1002.100015
 31
0.0
  0
LINE
  5
10D
100
AcDbEntity
  8
ONE
 62
     7
100
AcDbLine
 10
418.400006
 20
916.700014
 30
0.0
 11
418.400006
 21
905.300013
 31
0.0
  0
LINE
  5
10E
100
AcDbEntity
  8
ONE
 62
     7
100
AcDbLine
 10
418.400006
 20
819.900012
 30
0.0
 11
418.400006
 21
808.500012
 31
0.0
  0
LINE
  5
10F
100
AcDbEntity
  8
ONE
 62
     7
100
AcDbLine
 10
418.400006
 20
723.100011
 30
0.0
 11
418.400006
 21
704.20001
 31
0.0
  0
LINE
  5
110
100
AcDbEntity
  8
1
 62
     7
100
AcDbLine
 10
862.300013
 20
1281.300019
 30
0.0
 11
862.300013
 21
1292.700019
 31
0.0
  0
LINE
  5
111
100
AcDbEntity
  8
1
 62
     7
100
AcDbLine
 10
873.700013
 20
1304.000019
 30
0.0
 11
1151.700017
 21
1304.000019
 31
0.0
  0
LINE
  5
112
100
AcDbEntity
  8
1
 62
     7
100
AcDbLine
 10
1163.100017
 20
1292.700019
 30
0.0
 11
1163.100017
 21
1281.300019
 31
0.0
  0
LINE
  5
113
100
AcDbEntity
  8
1
 62
     7
100
AcDbLine
 10
878.000013
 20
1281.300019
 30
0.0
 11
878.000013
 21
1288.700019
 31
0.0
  0
LINE
  5
114
100
AcDbEntity
  8
1
 62
     7
100
AcDbLine
 10
877.400013
 20
1289.300019
 30
0.0
 11
876.800013
 21
1289.300019
 31
0.0
  0
LINE
  5
115
100
AcDbEntity
  8
1
 62
     7
100
AcDbLine
 10
874.700013
 20
1291.500019
 30
0.0
 11
874.700013
 21
1293.800019
 31
0.0
  0
LINE
  5
116
100
AcDbEntity
  8
1
 62
     7
100
AcDbLine
 10
876.800013
 20
1296.000019
 30
0.0
 11
1141.500017
 21
1296.000019
 31
0.0
  0
LINE
  5
117
100
AcDbEntity
  8
1
  6
DASHED
 62
     7
100
AcDbLine
 10
1028.200015
 20
1281.300019
 30
0.0
 11
1028.200015
 21
1296.000019
 31
0.0
  0
ARC
  5
118
100
AcDbEntity
  8
1
 62
     7
100
AcDbCircle
 10
1151.700017
 20
1292.700019
 30
0.0
 40
11.3
100
AcDbArc
 50
0.0
 51
90.0
  0
LINE
  5
119
100
AcDbEntity
  8
1
 62
     7
100
AcDbLine
 10
1147.400017
 20
1281.300019
 30
0.0
 11
1147.400017
 21
1288.700019
 31
0.0
  0
LINE
  5
11A
100
AcDbEntity
  8
1
 62
     7
100
AcDbLine
 10
1148.000017
 20
1289.300019
 30
0.0
 11
1148.600017
 21
1289.300019
 31
0.0
  0
LINE
  5
11B
100
AcDbEntity
  8
1
 62
     7
100
AcDbLine
 10
1150.900017
 20
1291.500019
 30
0.0
 11
1150.900017
 21
1293.800019
 31
0.0
  0
LINE
  5
11C
100
AcDbEntity
  8
1
 62
     7
100
AcDbLine
 10
1148.600017
 20
1296.000019
 30
0.0
 11
1141.500017
 21
1296.000019
 31
0.0
  0
ARC
  5
11D
100
AcDbEntity
  8
1
 62
     7
100
AcDbCircle
 10
1148.600017
 20
1291.500019
 30
0.0
 40
2.3
100
AcDbArc
 50
270.0
 51
0.0
  0
ARC
  5
11E
100
AcDbEntity
  8
1
 62
     7
100
AcDbCircle
 10
1148.600017
 20
1293.800019
 30
0.0
 40
2.3
100
AcDbArc
 50
0.0
 51
90.0
  0
LINE
  5
11F
100
AcDbEntity
  8
1
 62
     7
100
AcDbLine
 10
1024.100015
 20
1281.300019
 30
0.0
 11
1024.100015
 21
1296.000019
 31
0.0
  0
LINE
  5
120
100
AcDbEntity
  8
1
 62
     7
100
AcDbLine
 10
1032.100015
 20
1281.300019
 30
0.0
 11
1032.100015
 21
1296.000019
 31
0.0
  0
LINE
  5
121
100
AcDbEntity
  8
1
 62
     7
100
AcDbLine
 10
1032.100015
 20
1281.300019
 30
0.0
 11
1032.100015
 21
1296.000019
 31
0.0
  0
LINE
  5
122
100
AcDbEntity
  8
1
 62
     7
100
AcDbLine
 10
1254.000019
 20
703.60001
 30
0.0
 11
1254.000019
 21
1130.700017
 31
0.0
  0
LINE
  5
123
100
AcDbEntity
  8
1
 62
     7
100
AcDbLine
 10
770.000011
 20
1130.700017
 30
0.0
 11
770.000011
 21
703.60001
 31
0.0
  0
LINE
  5
124
100
AcDbEntity
  8
1
 62
     7
100
AcDbLine
 10
1254.000019
 20
1130.700017
 30
0.0
 11
1255.000019
 21
1130.700017
 31
0.0
  0
LINE
  5
125
100
AcDbEntity
  8
1
 62
     7
100
AcDbLine
 10
1255.000019
 20
1130.700017
 30
0.0
 11
1255.000019
 21
1141.500017
 31
0.0
  0
LINE
  5
126
100
AcDbEntity
  8
1
 62
     7
100
AcDbLine
 10
1255.000019
 20
1141.500017
 30
0.0
 11
1246.300019
 21
1150.100017
 31
0.0
  0
LINE
  5
127
100
AcDbEntity
  8
1
 62
     7
100
AcDbLine
 10
770.000011
 20
1130.700017
 30
0.0
 11
769.200011
 21
1130.700017
 31
0.0
  0
LINE
  5
128
100
AcDbEntity
  8
1
 62
     7
100
AcDbLine
 10
769.200011
 20
1130.700017
 30
0.0
 11
769.200011
 21
1141.500017
 31
0.0
  0
LINE
  5
129
100
AcDbEntity
  8
1
 62
     7
100
AcDbLine
 10
769.200011
 20
1141.500017
 30
0.0
 11
777.700012
 21
1150.100017
 31
0.0
  0
LINE
  5
12A
100
AcDbEntity
  8
1
  6
DASHED
 62
     7
100
AcDbLine
 10
892.500013
 20
1140.300017
 30
0.0
 11
896.600013
 21
1140.300017
 31
0.0
  0
LINE
  5
12B
100
AcDbEntity
  8
1
  6
DASHED
 62
     7
100
AcDbLine
 10
896.600013
 20
1140.300017
 30
0.0
 11
898.400013
 21
1140.300017
 31
0.0
  0
LINE
  5
12C
100
AcDbEntity
  8
1
  6
DASHED
 62
     7
100
AcDbLine
 10
892.500013
 20
1140.300017
 30
0.0
 11
892.500013
 21
1144.600017
 31
0.0
  0
LINE
  5
12D
100
AcDbEntity
  8
1
  6
DASHED
 62
     7
100
AcDbLine
 10
892.500013
 20
1144.600017
 30
0.0
 11
892.500013
 21
1146.400017
 31
0.0
  0
LINE
  5
12E
100
AcDbEntity
  8
1
  6
DASHED
 62
     7
100
AcDbLine
 10
892.500013
 20
1140.300017
 30
0.0
 11
888.200013
 21
1140.300017
 31
0.0
  0
LINE
  5
12F
100
AcDbEntity
  8
1
  6
DASHED
 62
     7
100
AcDbLine
 10
888.200013
 20
1140.300017
 30
0.0
 11
886.400013
 21
1140.300017
 31
0.0
  0
LINE
  5
130
100
AcDbEntity
  8
1
  6
DASHED
 62
     7
100
AcDbLine
 10
892.500013
 20
1140.300017
 30
0.0
 11
892.500013
 21
1136.200017
 31
0.0
  0
LINE
  5
131
100
AcDbEntity
  8
1
  6
DASHED
 62
     7
100
AcDbLine
 10
892.500013
 20
1136.200017
 30
0.0
 11
892.500013
 21
1134.400017
 31
0.0
  0
CIRCLE
  5
132
100
AcDbEntity
  8
1
 62
     7
100
AcDbCircle
 10
892.500013
 20
1140.300017
 30
0.0
 40
4.3
  0
LINE
  5
133
100
AcDbEntity
  8
1
  6
DASHED
 62
     7
100
AcDbLine
 10
1131.700017
 20
1140.300017
 30
0.0
 11
1135.800017
 21
1140.300017
 31
0.0
  0
LINE
  5
134
100
AcDbEntity
  8
1
  6
DASHED
 62
     7
100
AcDbLine
 10
1135.800017
 20
1140.300017
 30
0.0
 11
1137.600017
 21
1140.300017
 31
0.0
  0
LINE
  5
135
100
AcDbEntity
  8
1
  6
DASHED
 62
     7
100
AcDbLine
 10
1131.700017
 20
1140.300017
 30
0.0
 11
1131.700017
 21
1144.600017
 31
0.0
  0
LINE
  5
136
100
AcDbEntity
  8
1
  6
DASHED
 62
     7
100
AcDbLine
 10
1131.700017
 20
1144.600017
 30
0.0
 11
1131.700017
 21
1146.400017
 31
0.0
  0
LINE
  5
137
100
AcDbEntity
  8
1
  6
DASHED
 62
     7
100
AcDbLine
 10
1131.700017
 20
1140.300017
 30
0.0
 11
1127.400017
 21
1140.300017
 31
0.0
  0
LINE
  5
138
100
AcDbEntity
  8
1
  6
DASHED
 62
     7
100
AcDbLine
 10
1127.400017
 20
1140.300017
 30
0.0
 11
1125.600017
 21
1140.300017
 31
0.0
  0
LINE
  5
139
100
AcDbEntity
  8
1
  6
DASHED
 62
     7
100
AcDbLine
 10
1131.700017
 20
1140.300017
 30
0.0
 11
1131.700017
 21
1136.200017
 31
0.0
  0
LINE
  5
13A
100
AcDbEntity
  8
1
  6
DASHED
 62
     7
100
AcDbLine
 10
1131.700017
 20
1136.200017
 30
0.0
 11
1131.700017
 21
1134.400017
 31
0.0
  0
CIRCLE
  5
13B
100
AcDbEntity
  8
1
 62
     7
100
AcDbCircle
 10
1131.700017
 20
1140.300017
 30
0.0
 40
4.3
  0
LINE
  5
13C
100
AcDbEntity
  8
1
 62
     7
100
AcDbLine
 10
1582.100024
 20
546.900008
 30
0.0
 11
1498.800022
 21
546.900008
 31
0.0
  0
LINE
  5
13D
100
AcDbEntity
  8
SEVEN
 62
     5
100
AcDbLine
 10
1498.800022
 20
2687.90004
 30
0.0
 11
1582.100024
 21
2687.90004
 31
0.0
  0
LINE
  5
13E
100
AcDbEntity
  8
1
 62
     7
100
AcDbLine
 10
1498.800022
 20
546.900008
 30
0.0
 11
1498.800022
 21
575.400009
 31
0.0
  0
LINE
  5
13F
100
AcDbEntity
  8
SEVEN
 62
     5
100
AcDbLine
 10
1498.800022
 20
1197.200018
 30
0.0
 11
1498.800022
 21
2687.90004
 31
0.0
  0
LINE
  5
140
100
AcDbEntity
  8
1
 62
     7
100
AcDbLine
 10
1582.100024
 20
546.900008
 30
0.0
 11
1582.100024
 21
575.400009
 31
0.0
  0
LINE
  5
141
100
AcDbEntity
  8
SEVEN
 62
     5
100
AcDbLine
 10
1582.100024
 20
700.70001
 30
0.0
 11
1582.100024
 21
2687.90004
 31
0.0
  0
LINE
  5
142
100
AcDbEntity
  8
1
  6
DASHED
 62
     7
100
AcDbLine
 10
1569.500023
 20
803.200012
 30
0.0
 11
1559.300023
 21
803.200012
 31
0.0
  0
LINE
  5
143
100
AcDbEntity
  8
SEVEN
  6
DASHED
 62
     5
100
AcDbLine
 10
1559.300023
 20
803.200012
 30
0.0
 11
1559.300023
 21
2622.500039
 31
0.0
  0
LINE
  5
144
100
AcDbEntity
  8
SEVEN
 62
     5
100
AcDbLine
 10
1559.300023
 20
2622.500039
 30
0.0
 11
1559.300023
 21
803.200012
 31
0.0
  0
LINE
  5
145
100
AcDbEntity
  8
1
 62
     7
100
AcDbLine
 10
1559.300023
 20
803.200012
 30
0.0
 11
1569.500023
 21
803.200012
 31
0.0
  0
LINE
  5
146
100
AcDbEntity
  8
SEVEN
 62
     5
100
AcDbLine
 10
1569.500023
 20
803.200012
 30
0.0
 11
1569.500023
 21
2622.500039
 31
0.0
  0
LINE
  5
147
100
AcDbEntity
  8
SEVEN
 62
     5
100
AcDbLine
 10
1569.500023
 20
2622.500039
 30
0.0
 11
1559.300023
 21
2622.500039
 31
0.0
  0
LINE
  5
148
100
AcDbEntity
  8
SEVEN
 62
     5
100
AcDbLine
 10
1271.100019
 20
2618.200039
 30
0.0
 11
1316.60002
 21
2618.200039
 31
0.0
  0
LINE
  5
149
100
AcDbEntity
  8
SEVEN
 62
     5
100
AcDbLine
 10
1316.60002
 20
2618.200039
 30
0.0
 11
1498.800022
 21
2618.200039
 31
0.0
  0
LINE
  5
14A
100
AcDbEntity
  8
SEVEN
 62
     5
100
AcDbLine
 10
1498.800022
 20
2118.500032
 30
0.0
 11
1349.60002
 21
2118.500032
 31
0.0
  0
LINE
  5
14B
100
AcDbEntity
  8
SEVEN
 62
     5
100
AcDbLine
 10
1498.800022
 20
2049.200031
 30
0.0
 11
1349.60002
 21
2049.200031
 31
0.0
  0
LINE
  5
14C
100
AcDbEntity
  8
SEVEN
 62
     5
100
AcDbLine
 10
1582.100024
 20
2687.90004
 30
0.0
 11
1349.60002
 21
2687.90004
 31
0.0
  0
LINE
  5
14D
100
AcDbEntity
  8
SEVEN
 62
     5
100
AcDbLine
 10
1349.60002
 20
2687.90004
 30
0.0
 11
1349.60002
 21
1278.700019
 31
0.0
  0
LINE
  5
14E
100
AcDbEntity
  8
SEVEN
 62
     5
100
AcDbLine
 10
1316.60002
 20
2618.200039
 30
0.0
 11
1316.60002
 21
1278.700019
 31
0.0
  0
LINE
  5
14F
100
AcDbEntity
  8
SEVEN
 62
     5
100
AcDbLine
 10
1271.100019
 20
1278.700019
 30
0.0
 11
1271.100019
 21
2618.200039
 31
0.0
  0
LINE
  5
150
100
AcDbEntity
  8
SEVEN
 62
     5
100
AcDbLine
 10
1349.60002
 20
2548.700038
 30
0.0
 11
1498.800022
 21
2548.700038
 31
0.0
  0
LINE
  5
151
100
AcDbEntity
  8
SEVEN
 62
     5
100
AcDbLine
 10
1582.100024
 20
2579.700038
 30
0.0
 11
1639.000024
 21
2579.700038
 31
0.0
  0
LINE
  5
152
100
AcDbEntity
  8
SEVEN
 62
     5
100
AcDbLine
 10
1639.000024
 20
2579.700038
 30
0.0
 11
1639.000024
 21
2556.900038
 31
0.0
  0
LINE
  5
153
100
AcDbEntity
  8
SEVEN
 62
     5
100
AcDbLine
 10
1639.000024
 20
2556.900038
 30
0.0
 11
1582.100024
 21
2556.900038
 31
0.0
  0
LINE
  5
154
100
AcDbEntity
  8
SEVEN
 62
     5
100
AcDbLine
 10
1604.900024
 20
2579.700038
 30
0.0
 11
1604.900024
 21
2585.400039
 31
0.0
  0
LINE
  5
155
100
AcDbEntity
  8
SEVEN
 62
     5
100
AcDbLine
 10
1585.400024
 20
2579.700038
 30
0.0
 11
1582.100024
 21
2583.200038
 31
0.0
  0
LINE
  5
156
100
AcDbEntity
  8
SEVEN
 62
     5
100
AcDbLine
 10
1582.100024
 20
2602.500039
 30
0.0
 11
1587.800024
 21
2602.500039
 31
0.0
  0
LINE
  5
157
100
AcDbEntity
  8
SEVEN
 62
     5
100
AcDbLine
 10
1604.900024
 20
2585.400039
 30
0.0
 11
1587.800024
 21
2602.500039
 31
0.0
  0
LINE
  5
158
100
AcDbEntity
  8
SEVEN
 62
     5
100
AcDbLine
 10
1627.600024
 20
2556.900038
 30
0.0
 11
1627.600024
 21
2548.500038
 31
0.0
  0
LINE
  5
159
100
AcDbEntity
  8
SEVEN
 62
     5
100
AcDbLine
 10
1627.600024
 20
2548.500038
 30
0.0
 11
1604.900024
 21
2548.500038
 31
0.0
  0
LINE
  5
15A
100
AcDbEntity
  8
SEVEN
 62
     5
100
AcDbLine
 10
1604.900024
 20
2548.500038
 30
0.0
 11
1604.900024
 21
2556.900038
 31
0.0
  0
LINE
  5
15B
100
AcDbEntity
  8
SEVEN
 62
     5
100
AcDbLine
 10
1627.600024
 20
2548.500038
 30
0.0
 11
1629.000024
 21
2548.500038
 31
0.0
  0
LINE
  5
15C
100
AcDbEntity
  8
SEVEN
 62
     5
100
AcDbLine
 10
1604.900024
 20
2548.500038
 30
0.0
 11
1603.300024
 21
2548.500038
 31
0.0
  0
LINE
  5
15D
100
AcDbEntity
  8
SEVEN
 62
     5
100
AcDbLine
 10
1630.400024
 20
2545.500038
 30
0.0
 11
1601.900024
 21
2545.500038
 31
0.0
  0
LINE
  5
15E
100
AcDbEntity
  8
SEVEN
 62
     5
100
AcDbLine
 10
1601.900024
 20
2545.500038
 30
0.0
 11
1601.900024
 21
2543.400038
 31
0.0
  0
LINE
  5
15F
100
AcDbEntity
  8
SEVEN
 62
     5
100
AcDbLine
 10
1630.400024
 20
2545.500038
 30
0.0
 11
1630.400024
 21
2543.400038
 31
0.0
  0
LINE
  5
160
100
AcDbEntity
  8
SEVEN
 62
     5
100
AcDbLine
 10
1601.900024
 20
2545.500038
 30
0.0
 11
1603.300024
 21
2548.500038
 31
0.0
  0
LINE
  5
161
100
AcDbEntity
  8
SEVEN
 62
     5
100
AcDbLine
 10
1630.400024
 20
2545.500038
 30
0.0
 11
1629.000024
 21
2548.500038
 31
0.0
  0
LINE
  5
162
100
AcDbEntity
  8
SEVEN
 62
     5
100
AcDbLine
 10
1630.400024
 20
2543.400038
 30
0.0
 11
1636.100024
 21
2543.400038
 31
0.0
  0
LINE
  5
163
100
AcDbEntity
  8
SEVEN
 62
     5
100
AcDbLine
 10
1636.100024
 20
2543.400038
 30
0.0
 11
1637.400024
 21
2542.000038
 31
0.0
  0
LINE
  5
164
100
AcDbEntity
  8
SEVEN
 62
     5
100
AcDbLine
 10
1637.400024
 20
2542.000038
 30
0.0
 11
1637.400024
 21
2503.100037
 31
0.0
  0
LINE
  5
165
100
AcDbEntity
  8
SEVEN
 62
     5
100
AcDbLine
 10
1637.400024
 20
2503.100037
 30
0.0
 11
1636.100024
 21
2501.700037
 31
0.0
  0
LINE
  5
166
100
AcDbEntity
  8
SEVEN
 62
     5
100
AcDbLine
 10
1636.100024
 20
2501.700037
 30
0.0
 11
1596.200024
 21
2501.700037
 31
0.0
  0
LINE
  5
167
100
AcDbEntity
  8
SEVEN
 62
     5
100
AcDbLine
 10
1596.200024
 20
2501.700037
 30
0.0
 11
1594.800024
 21
2503.100037
 31
0.0
  0
LINE
  5
168
100
AcDbEntity
  8
SEVEN
 62
     5
100
AcDbLine
 10
1594.800024
 20
2503.100037
 30
0.0
 11
1594.800024
 21
2542.000038
 31
0.0
  0
LINE
  5
169
100
AcDbEntity
  8
SEVEN
 62
     5
100
AcDbLine
 10
1594.800024
 20
2542.000038
 30
0.0
 11
1596.200024
 21
2543.400038
 31
0.0
  0
LINE
  5
16A
100
AcDbEntity
  8
SEVEN
 62
     5
100
AcDbLine
 10
1596.200024
 20
2543.400038
 30
0.0
 11
1601.900024
 21
2543.400038
 31
0.0
  0
LINE
  5
16B
100
AcDbEntity
  8
SEVEN
 62
     5
100
AcDbLine
 10
1601.900024
 20
2543.400038
 30
0.0
 11
1630.400024
 21
2543.400038
 31
0.0
  0
LINE
  5
16C
100
AcDbEntity
  8
SEVEN
 62
     5
100
AcDbLine
 10
1594.800024
 20
2542.000038
 30
0.0
 11
1637.400024
 21
2542.000038
 31
0.0
  0
LINE
  5
16D
100
AcDbEntity
  8
SEVEN
 62
     5
100
AcDbLine
 10
1594.800024
 20
2503.100037
 30
0.0
 11
1637.400024
 21
2503.100037
 31
0.0
  0
LINE
  5
16E
100
AcDbEntity
  8
SEVEN
 62
     5
100
AcDbLine
 10
1634.700024
 20
926.900014
 30
0.0
 11
1582.100024
 21
926.900014
 31
0.0
  0
LINE
  5
16F
100
AcDbEntity
  8
SEVEN
 62
     5
100
AcDbLine
 10
1634.700024
 20
2501.700037
 30
0.0
 11
1634.700024
 21
926.900014
 31
0.0
  0
LINE
  5
170
100
AcDbEntity
  8
SEVEN
 62
     5
100
AcDbLine
 10
1597.600024
 20
926.900014
 30
0.0
 11
1597.600024
 21
2501.700037
 31
0.0
  0
LINE
  5
171
100
AcDbEntity
  8
SEVEN
 62
     5
100
AcDbLine
 10
1582.100024
 20
926.900014
 30
0.0
 11
1639.000024
 21
926.900014
 31
0.0
  0
LINE
  5
172
100
AcDbEntity
  8
SEVEN
 62
     5
100
AcDbLine
 10
1639.000024
 20
926.900014
 30
0.0
 11
1639.000024
 21
904.100013
 31
0.0
  0
LINE
  5
173
100
AcDbEntity
  8
SEVEN
 62
     5
100
AcDbLine
 10
1639.000024
 20
904.100013
 30
0.0
 11
1582.100024
 21
904.100013
 31
0.0
  0
LINE
  5
174
100
AcDbEntity
  8
SEVEN
 62
     5
100
AcDbLine
 10
1585.400024
 20
904.100013
 30
0.0
 11
1582.100024
 21
900.600013
 31
0.0
  0
LINE
  5
175
100
AcDbEntity
  8
SEVEN
 62
     5
100
AcDbLine
 10
1582.100024
 20
881.300013
 30
0.0
 11
1587.800024
 21
881.300013
 31
0.0
  0
LINE
  5
176
100
AcDbEntity
  8
SEVEN
 62
     5
100
AcDbLine
 10
1604.900024
 20
904.100013
 30
0.0
 11
1604.900024
 21
898.400013
 31
0.0
  0
LINE
  5
177
100
AcDbEntity
  8
SEVEN
 62
     5
100
AcDbLine
 10
1604.900024
 20
898.400013
 30
0.0
 11
1587.800024
 21
881.300013
 31
0.0
  0
LINE
  5
178
100
AcDbEntity
  8
SEVEN
  6
DASHED
 62
     5
100
AcDbLine
 10
1616.200024
 20
880.700013
 30
0.0
 11
1616.200024
 21
2589.900039
 31
0.0
  0
LINE
  5
179
100
AcDbEntity
  8
1
  6
DASHED
 62
     7
100
AcDbLine
 10
1540.500023
 20
700.70001
 30
0.0
 11
1540.500023
 21
784.300012
 31
0.0
  0
LINE
  5
17A
100
AcDbEntity
  8
TEN
 62
     1
100
AcDbLine
 10
1978.900029
 20
578.400009
 30
0.0
 11
1978.900029
 21
842.600013
 31
0.0
  0
LINE
  5
17B
100
AcDbEntity
  8
TEN
 62
     1
100
AcDbLine
 10
1978.900029
 20
578.400009
 30
0.0
 11
1956.100029
 21
578.400009
 31
0.0
  0
LINE
  5
17C
100
AcDbEntity
  8
TEN
 62
     1
100
AcDbLine
 10
1978.900029
 20
842.600013
 30
0.0
 11
1972.000029
 21
842.600013
 31
0.0
  0
LINE
  5
17D
100
AcDbEntity
  8
TEN
 62
     1
100
AcDbLine
 10
1956.100029
 20
578.400009
 30
0.0
 11
1956.100029
 21
835.200012
 31
0.0
  0
LINE
  5
17E
100
AcDbEntity
  8
TEN
 62
     1
100
AcDbLine
 10
1970.300029
 20
835.200012
 30
0.0
 11
1956.100029
 21
835.200012
 31
0.0
  0
LINE
  5
17F
100
AcDbEntity
  8
TEN
 62
     1
100
AcDbLine
 10
1981.60003
 20
1025.800015
 30
0.0
 11
1981.60003
 21
1042.900016
 31
0.0
  0
LINE
  5
180
100
AcDbEntity
  8
TEN
 62
     1
100
AcDbLine
 10
2091.000031
 20
1025.800015
 30
0.0
 11
2091.000031
 21
604.500009
 31
0.0
  0
LINE
  5
181
100
AcDbEntity
  8
TEN
  6
DASHED
 62
     1
100
AcDbLine
 10
2115.000032
 20
1042.900016
 30
0.0
 11
2115.000032
 21
587.400009
 31
0.0
  0
LINE
  5
182
100
AcDbEntity
  8
TEN
 62
     1
100
AcDbLine
 10
2003.80003
 20
587.400009
 30
0.0
 11
2003.80003
 21
604.500009
 31
0.0
  0
LINE
  5
183
100
AcDbEntity
  8
TEN
 62
     1
100
AcDbLine
 10
2091.000031
 20
939.600014
 30
0.0
 11
2073.900031
 21
939.600014
 31
0.0
  0
LINE
  5
184
100
AcDbEntity
  8
TEN
 62
     1
100
AcDbLine
 10
2073.900031
 20
939.600014
 30
0.0
 11
2073.900031
 21
988.100015
 31
0.0
  0
LINE
  5
185
100
AcDbEntity
  8
TEN
 62
     1
100
AcDbLine
 10
2073.900031
 20
988.100015
 30
0.0
 11
2059.800031
 21
988.100015
 31
0.0
  0
LINE
  5
186
100
AcDbEntity
  8
TEN
 62
     1
100
AcDbLine
 10
2059.800031
 20
988.100015
 30
0.0
 11
2059.800031
 21
942.600014
 31
0.0
  0
LINE
  5
187
100
AcDbEntity
  8
TEN
 62
     1
100
AcDbLine
 10
2059.800031
 20
942.600014
 30
0.0
 11
2073.900031
 21
942.600014
 31
0.0
  0
LINE
  5
188
100
AcDbEntity
  8
TEN
 62
     1
100
AcDbLine
 10
2082.600031
 20
974.200015
 30
0.0
 11
2082.600031
 21
974.000015
 31
0.0
  0
LINE
  5
189
100
AcDbEntity
  8
TEN
 62
     1
100
AcDbLine
 10
2091.000031
 20
973.800015
 30
0.0
 11
2073.900031
 21
973.800015
 31
0.0
  0
LINE
  5
18A
100
AcDbEntity
  8
TEN
  6
DASHED
 62
     1
100
AcDbLine
 10
2059.800031
 20
965.400014
 30
0.0
 11
2038.60003
 21
965.400014
 31
0.0
  0
LINE
  5
18B
100
AcDbEntity
  8
TEN
 62
     1
100
AcDbLine
 10
2059.800031
 20
983.800015
 30
0.0
 11
2056.800031
 21
983.800015
 31
0.0
  0
LINE
  5
18C
100
AcDbEntity
  8
TEN
 62
     1
100
AcDbLine
 10
2056.800031
 20
990.900015
 30
0.0
 11
2056.800031
 21
939.600014
 31
0.0
  0
LINE
  5
18D
100
AcDbEntity
  8
TEN
 62
     1
100
AcDbLine
 10
2056.800031
 20
946.700014
 30
0.0
 11
2059.800031
 21
946.700014
 31
0.0
  0
LINE
  5
18E
100
AcDbEntity
  8
TEN
 62
     1
100
AcDbLine
 10
2038.60003
 20
990.900015
 30
0.0
 11
2038.60003
 21
939.600014
 31
0.0
  0
LINE
  5
18F
100
AcDbEntity
  8
TEN
 62
     1
100
AcDbLine
 10
2038.60003
 20
990.900015
 30
0.0
 11
2056.800031
 21
990.900015
 31
0.0
  0
LINE
  5
190
100
AcDbEntity
  8
TEN
 62
     1
100
AcDbLine
 10
2038.60003
 20
939.600014
 30
0.0
 11
2056.800031
 21
939.600014
 31
0.0
  0
LINE
  5
191
100
AcDbEntity
  8
TEN
 62
     1
100
AcDbLine
 10
2091.000031
 20
841.500013
 30
0.0
 11
2018.70003
 21
841.500013
 31
0.0
  0
LINE
  5
192
100
AcDbEntity
  8
TEN
  6
DASHED
 62
     1
100
AcDbLine
 10
2052.900031
 20
858.500013
 30
0.0
 11
2067.000031
 21
858.500013
 31
0.0
  0
LINE
  5
193
100
AcDbEntity
  8
TEN
  6
DASHED
 62
     1
100
AcDbLine
 10
2067.000031
 20
858.500013
 30
0.0
 11
2068.800031
 21
858.500013
 31
0.0
  0
LINE
  5
194
100
AcDbEntity
  8
TEN
  6
DASHED
 62
     1
100
AcDbLine
 10
2052.900031
 20
858.500013
 30
0.0
 11
2052.900031
 21
872.700013
 31
0.0
  0
LINE
  5
195
100
AcDbEntity
  8
TEN
  6
DASHED
 62
     1
100
AcDbLine
 10
2052.900031
 20
872.700013
 30
0.0
 11
2052.900031
 21
874.400013
 31
0.0
  0
LINE
  5
196
100
AcDbEntity
  8
TEN
  6
DASHED
 62
     1
100
AcDbLine
 10
2052.900031
 20
858.500013
 30
0.0
 11
2038.60003
 21
858.500013
 31
0.0
  0
LINE
  5
197
100
AcDbEntity
  8
TEN
  6
DASHED
 62
     1
100
AcDbLine
 10
2038.60003
 20
858.500013
 30
0.0
 11
2037.00003
 21
858.500013
 31
0.0
  0
LINE
  5
198
100
AcDbEntity
  8
TEN
  6
DASHED
 62
     1
100
AcDbLine
 10
2052.900031
 20
858.500013
 30
0.0
 11
2052.900031
 21
844.200013
 31
0.0
  0
LINE
  5
199
100
AcDbEntity
  8
TEN
  6
DASHED
 62
     1
100
AcDbLine
 10
2052.900031
 20
844.200013
 30
0.0
 11
2052.900031
 21
842.600013
 31
0.0
  0
CIRCLE
  5
19A
100
AcDbEntity
  8
TEN
 62
     1
100
AcDbCircle
 10
2052.900031
 20
858.500013
 30
0.0
 40
14.3
  0
LINE
  5
19B
100
AcDbEntity
  8
TEN
 62
     1
100
AcDbLine
 10
2091.000031
 20
827.100012
 30
0.0
 11
2034.70003
 21
827.100012
 31
0.0
  0
LINE
  5
19C
100
AcDbEntity
  8
TEN
 62
     1
100
AcDbLine
 10
2034.70003
 20
827.100012
 30
0.0
 11
2034.70003
 21
841.500013
 31
0.0
  0
LINE
  5
19D
100
AcDbEntity
  8
TEN
 62
     1
100
AcDbLine
 10
2091.000031
 20
787.300012
 30
0.0
 11
2022.70003
 21
787.300012
 31
0.0
  0
LINE
  5
19E
100
AcDbEntity
  8
TEN
 62
     1
100
AcDbLine
 10
2022.70003
 20
787.300012
 30
0.0
 11
2022.70003
 21
785.100012
 31
0.0
  0
LINE
  5
19F
100
AcDbEntity
  8
TEN
 62
     1
100
AcDbLine
 10
2022.70003
 20
785.100012
 30
0.0
 11
2091.000031
 21
785.100012
 31
0.0
  0
LINE
  5
1A0
100
AcDbEntity
  8
TEN
 62
     1
100
AcDbLine
 10
2091.000031
 20
787.300012
 30
0.0
 11
2045.50003
 21
787.300012
 31
0.0
  0
LINE
  5
1A1
100
AcDbEntity
  8
TEN
 62
     1
100
AcDbLine
 10
2045.50003
 20
787.300012
 30
0.0
 11
2045.50003
 21
827.100012
 31
0.0
  0
LINE
  5
1A2
100
AcDbEntity
  8
TEN
 62
     1
100
AcDbLine
 10
2043.30003
 20
827.100012
 30
0.0
 11
2043.30003
 21
787.300012
 31
0.0
  0
LINE
  5
1A3
100
AcDbEntity
  8
TEN
 62
     1
100
AcDbLine
 10
2043.30003
 20
803.800012
 30
0.0
 11
2043.30003
 21
797.500012
 31
0.0
  0
LINE
  5
1A4
100
AcDbEntity
  8
TEN
 62
     1
100
AcDbLine
 10
2041.50003
 20
805.500012
 30
0.0
 11
2037.60003
 21
805.500012
 31
0.0
  0
LINE
  5
1A5
100
AcDbEntity
  8
TEN
 62
     1
100
AcDbLine
 10
2035.80003
 20
803.800012
 30
0.0
 11
2035.80003
 21
801.600012
 31
0.0
  0
LINE
  5
1A6
100
AcDbEntity
  8
TEN
  6
DASHED
 62
     1
100
AcDbLine
 10
2035.80003
 20
797.500012
 30
0.0
 11
2043.30003
 21
797.500012
 31
0.0
  0
LINE
  5
1A7
100
AcDbEntity
  8
TEN
 62
     1
100
AcDbLine
 10
2041.70003
 20
803.800012
 30
0.0
 11
2041.70003
 21
797.500012
 31
0.0
  0
LINE
  5
1A8
100
AcDbEntity
  8
TEN
 62
     1
100
AcDbLine
 10
2041.50003
 20
804.200012
 30
0.0
 11
2037.60003
 21
804.200012
 31
0.0
  0
LINE
  5
1A9
100
AcDbEntity
  8
TEN
 62
     1
100
AcDbLine
 10
2037.20003
 20
803.800012
 30
0.0
 11
2037.20003
 21
801.600012
 31
0.0
  0
LINE
  5
1AA
100
AcDbEntity
  8
TEN
 62
     1
100
AcDbLine
 10
2035.80003
 20
801.600012
 30
0.0
 11
2037.20003
 21
801.600012
 31
0.0
  0
ARC
  5
1AB
100
AcDbEntity
  8
TEN
 62
     1
100
AcDbCircle
 10
2037.60003
 20
803.800012
 30
0.0
 40
0.1
100
AcDbArc
 50
90.0
 51
180.0
  0
ARC
  5
1AC
100
AcDbEntity
  8
TEN
 62
     1
100
AcDbCircle
 10
2041.50003
 20
803.800012
 30
0.0
 40
0.1
100
AcDbArc
 50
0.0
 51
90.0
  0
ARC
  5
1AD
100
AcDbEntity
  8
TEN
 62
     1
100
AcDbCircle
 10
2037.60003
 20
803.800012
 30
0.0
 40
1.7
100
AcDbArc
 50
90.0
 51
180.0
  0
ARC
  5
1AE
100
AcDbEntity
  8
TEN
 62
     1
100
AcDbCircle
 10
2041.50003
 20
803.800012
 30
0.0
 40
1.7
100
AcDbArc
 50
0.0
 51
90.0
  0
LINE
  5
1AF
100
AcDbEntity
  8
TEN
 62
     1
100
AcDbLine
 10
2043.30003
 20
791.400012
 30
0.0
 11
2043.30003
 21
797.500012
 31
0.0
  0
LINE
  5
1B0
100
AcDbEntity
  8
TEN
 62
     1
100
AcDbLine
 10
2041.50003
 20
789.600012
 30
0.0
 11
2037.60003
 21
789.600012
 31
0.0
  0
LINE
  5
1B1
100
AcDbEntity
  8
TEN
 62
     1
100
AcDbLine
 10
2035.80003
 20
791.400012
 30
0.0
 11
2035.80003
 21
793.600012
 31
0.0
  0
LINE
  5
1B2
100
AcDbEntity
  8
TEN
  6
DASHED
 62
     1
100
AcDbLine
 10
2035.80003
 20
797.500012
 30
0.0
 11
2043.30003
 21
797.500012
 31
0.0
  0
LINE
  5
1B3
100
AcDbEntity
  8
TEN
 62
     1
100
AcDbLine
 10
2041.70003
 20
791.400012
 30
0.0
 11
2041.70003
 21
797.500012
 31
0.0
  0
LINE
  5
1B4
100
AcDbEntity
  8
TEN
 62
     1
100
AcDbLine
 10
2041.50003
 20
791.000012
 30
0.0
 11
2037.60003
 21
791.000012
 31
0.0
  0
LINE
  5
1B5
100
AcDbEntity
  8
TEN
 62
     1
100
AcDbLine
 10
2037.20003
 20
791.400012
 30
0.0
 11
2037.20003
 21
793.600012
 31
0.0
  0
LINE
  5
1B6
100
AcDbEntity
  8
TEN
 62
     1
100
AcDbLine
 10
2035.80003
 20
793.600012
 30
0.0
 11
2037.20003
 21
793.600012
 31
0.0
  0
ARC
  5
1B7
100
AcDbEntity
  8
TEN
 62
     1
100
AcDbCircle
 10
2037.60003
 20
791.400012
 30
0.0
 40
0.1
100
AcDbArc
 50
180.0
 51
270.0
  0
ARC
  5
1B8
100
AcDbEntity
  8
TEN
 62
     1
100
AcDbCircle
 10
2041.50003
 20
791.400012
 30
0.0
 40
0.1
100
AcDbArc
 50
270.0
 51
0.0
  0
ARC
  5
1B9
100
AcDbEntity
  8
TEN
 62
     1
100
AcDbCircle
 10
2037.60003
 20
791.400012
 30
0.0
 40
1.7
100
AcDbArc
 50
180.0
 51
270.0
  0
ARC
  5
1BA
100
AcDbEntity
  8
TEN
 62
     1
100
AcDbCircle
 10
2041.50003
 20
791.400012
 30
0.0
 40
1.7
100
AcDbArc
 50
270.0
 51
0.0
  0
LINE
  5
1BB
100
AcDbEntity
  8
TEN
 62
     1
100
AcDbLine
 10
2043.30003
 20
819.900012
 30
0.0
 11
2043.30003
 21
813.600012
 31
0.0
  0
LINE
  5
1BC
100
AcDbEntity
  8
TEN
 62
     1
100
AcDbLine
 10
2041.50003
 20
821.400012
 30
0.0
 11
2037.60003
 21
821.400012
 31
0.0
  0
LINE
  5
1BD
100
AcDbEntity
  8
TEN
 62
     1
100
AcDbLine
 10
2035.80003
 20
819.900012
 30
0.0
 11
2035.80003
 21
817.500012
 31
0.0
  0
LINE
  5
1BE
100
AcDbEntity
  8
TEN
  6
DASHED
 62
     1
100
AcDbLine
 10
2035.80003
 20
813.600012
 30
0.0
 11
2043.30003
 21
813.600012
 31
0.0
  0
LINE
  5
1BF
100
AcDbEntity
  8
TEN
 62
     1
100
AcDbLine
 10
2041.70003
 20
819.900012
 30
0.0
 11
2041.70003
 21
813.600012
 31
0.0
  0
LINE
  5
1C0
100
AcDbEntity
  8
TEN
 62
     1
100
AcDbLine
 10
2041.50003
 20
820.100012
 30
0.0
 11
2037.60003
 21
820.100012
 31
0.0
  0
LINE
  5
1C1
100
AcDbEntity
  8
TEN
 62
     1
100
AcDbLine
 10
2037.20003
 20
819.900012
 30
0.0
 11
2037.20003
 21
817.500012
 31
0.0
  0
LINE
  5
1C2
100
AcDbEntity
  8
TEN
 62
     1
100
AcDbLine
 10
2035.80003
 20
817.500012
 30
0.0
 11
2037.20003
 21
817.500012
 31
0.0
  0
ARC
  5
1C3
100
AcDbEntity
  8
TEN
 62
     1
100
AcDbCircle
 10
2037.60003
 20
819.900012
 30
0.0
 40
0.1
100
AcDbArc
 50
90.0
 51
180.0
  0
ARC
  5
1C4
100
AcDbEntity
  8
TEN
 62
     1
100
AcDbCircle
 10
2041.50003
 20
819.900012
 30
0.0
 40
0.1
100
AcDbArc
 50
0.0
 51
90.0
  0
ARC
  5
1C5
100
AcDbEntity
  8
TEN
 62
     1
100
AcDbCircle
 10
2037.60003
 20
819.900012
 30
0.0
 40
1.7
100
AcDbArc
 50
90.0
 51
180.0
  0
ARC
  5
1C6
100
AcDbEntity
  8
TEN
 62
     1
100
AcDbCircle
 10
2041.50003
 20
819.900012
 30
0.0
 40
1.7
100
AcDbArc
 50
0.0
 51
90.0
  0
LINE
  5
1C7
100
AcDbEntity
  8
TEN
 62
     1
100
AcDbLine
 10
2043.30003
 20
807.300012
 30
0.0
 11
2043.30003
 21
813.600012
 31
0.0
  0
LINE
  5
1C8
100
AcDbEntity
  8
TEN
 62
     1
100
AcDbLine
 10
2041.50003
 20
805.500012
 30
0.0
 11
2037.60003
 21
805.500012
 31
0.0
  0
LINE
  5
1C9
100
AcDbEntity
  8
TEN
 62
     1
100
AcDbLine
 10
2035.80003
 20
807.300012
 30
0.0
 11
2035.80003
 21
809.500012
 31
0.0
  0
LINE
  5
1CA
100
AcDbEntity
  8
TEN
  6
DASHED
 62
     1
100
AcDbLine
 10
2035.80003
 20
813.600012
 30
0.0
 11
2043.30003
 21
813.600012
 31
0.0
  0
LINE
  5
1CB
100
AcDbEntity
  8
TEN
 62
     1
100
AcDbLine
 10
2041.70003
 20
807.300012
 30
0.0
 11
2041.70003
 21
813.600012
 31
0.0
  0
LINE
  5
1CC
100
AcDbEntity
  8
TEN
 62
     1
100
AcDbLine
 10
2041.50003
 20
806.900012
 30
0.0
 11
2037.60003
 21
806.900012
 31
0.0
  0
LINE
  5
1CD
100
AcDbEntity
  8
TEN
 62
     1
100
AcDbLine
 10
2037.20003
 20
807.300012
 30
0.0
 11
2037.20003
 21
809.500012
 31
0.0
  0
LINE
  5
1CE
100
AcDbEntity
  8
TEN
 62
     1
100
AcDbLine
 10
2035.80003
 20
809.500012
 30
0.0
 11
2037.20003
 21
809.500012
 31
0.0
  0
ARC
  5
1CF
100
AcDbEntity
  8
TEN
 62
     1
100
AcDbCircle
 10
2037.60003
 20
807.300012
 30
0.0
 40
0.1
100
AcDbArc
 50
180.0
 51
270.0
  0
ARC
  5
1D0
100
AcDbEntity
  8
TEN
 62
     1
100
AcDbCircle
 10
2041.50003
 20
807.300012
 30
0.0
 40
0.1
100
AcDbArc
 50
270.0
 51
0.0
  0
ARC
  5
1D1
100
AcDbEntity
  8
TEN
 62
     1
100
AcDbCircle
 10
2037.60003
 20
807.300012
 30
0.0
 40
1.7
100
AcDbArc
 50
180.0
 51
270.0
  0
ARC
  5
1D2
100
AcDbEntity
  8
TEN
 62
     1
100
AcDbCircle
 10
2041.50003
 20
807.300012
 30
0.0
 40
1.7
100
AcDbArc
 50
270.0
 51
0.0
  0
ARC
  5
1D3
100
AcDbEntity
  8
TEN
 62
     1
100
AcDbCircle
 10
2052.900031
 20
857.400013
 30
0.0
 40
18.2
100
AcDbArc
 50
27.0
 51
153.0
  0
LINE
  5
1D4
100
AcDbEntity
  8
TEN
 62
     1
100
AcDbLine
 10
2084.100031
 20
864.200013
 30
0.0
 11
2071.600031
 21
864.200013
 31
0.0
  0
LINE
  5
1D5
100
AcDbEntity
  8
TEN
 62
     1
100
AcDbLine
 10
2034.30003
 20
864.200013
 30
0.0
 11
2021.50003
 21
864.200013
 31
0.0
  0
LINE
  5
1D6
100
AcDbEntity
  8
TEN
 62
     1
100
AcDbLine
 10
2087.100031
 20
861.300013
 30
0.0
 11
2087.100031
 21
844.200013
 31
0.0
  0
LINE
  5
1D7
100
AcDbEntity
  8
TEN
 62
     1
100
AcDbLine
 10
2087.100031
 20
844.200013
 30
0.0
 11
2087.100031
 21
841.500013
 31
0.0
  0
LINE
  5
1D8
100
AcDbEntity
  8
TEN
 62
     1
100
AcDbLine
 10
2018.70003
 20
861.300013
 30
0.0
 11
2018.70003
 21
844.200013
 31
0.0
  0
LINE
  5
1D9
100
AcDbEntity
  8
TEN
 62
     1
100
AcDbLine
 10
2018.70003
 20
844.200013
 30
0.0
 11
2018.70003
 21
841.500013
 31
0.0
  0
ARC
  5
1DA
100
AcDbEntity
  8
TEN
 62
     1
100
AcDbCircle
 10
2021.50003
 20
861.300013
 30
0.0
 40
2.9
100
AcDbArc
 50
90.0
 51
180.0
  0
ARC
  5
1DB
100
AcDbEntity
  8
TEN
 62
     1
100
AcDbCircle
 10
2084.100031
 20
861.300013
 30
0.0
 40
2.9
100
AcDbArc
 50
0.0
 51
90.0
  0
ARC
  5
1DC
100
AcDbEntity
  8
TEN
 62
     1
100
AcDbCircle
 10
2071.600031
 20
867.000013
 30
0.0
 40
2.9
100
AcDbArc
 50
207.0
 51
270.0
  0
ARC
  5
1DD
100
AcDbEntity
  8
TEN
 62
     1
100
AcDbCircle
 10
2034.30003
 20
867.000013
 30
0.0
 40
2.9
100
AcDbArc
 50
270.0
 51
333.0
  0
LINE
  5
1DE
100
AcDbEntity
  8
TEN
  6
DOT
 62
     1
100
AcDbLine
 10
2091.000031
 20
841.500013
 30
0.0
 11
2113.800031
 21
841.500013
 31
0.0
  0
LINE
  5
1DF
100
AcDbEntity
  8
TEN
  6
DOT
 62
     1
100
AcDbLine
 10
2091.000031
 20
827.100012
 30
0.0
 11
2113.800031
 21
827.100012
 31
0.0
  0
LINE
  5
1E0
100
AcDbEntity
  8
TEN
  6
DOT
 62
     1
100
AcDbLine
 10
2113.800031
 20
827.100012
 30
0.0
 11
2113.800031
 21
841.500013
 31
0.0
  0
LINE
  5
1E1
100
AcDbEntity
  8
TEN
  6
DASHED
 62
     1
100
AcDbLine
 10
2017.60003
 20
1025.800015
 30
0.0
 11
2017.60003
 21
1042.900016
 31
0.0
  0
LINE
  5
1E2
100
AcDbEntity
  8
TEN
  6
DASHED
 62
     1
100
AcDbLine
 10
2017.60003
 20
1023.100015
 30
0.0
 11
2017.60003
 21
1025.800015
 31
0.0
  0
LINE
  5
1E3
100
AcDbEntity
  8
TEN
 62
     1
100
AcDbLine
 10
1981.60003
 20
1042.900016
 30
0.0
 11
2271.800034
 21
1042.900016
 31
0.0
  0
LINE
  5
1E4
100
AcDbEntity
  8
TEN
 62
     1
100
AcDbLine
 10
1981.60003
 20
1025.800015
 30
0.0
 11
2162.700032
 21
1025.800015
 31
0.0
  0
LINE
  5
1E5
100
AcDbEntity
  8
TEN
 62
     1
100
AcDbLine
 10
2003.80003
 20
604.500009
 30
0.0
 11
2276.900034
 21
604.500009
 31
0.0
  0
LINE
  5
1E6
100
AcDbEntity
  8
TEN
 62
     1
100
AcDbLine
 10
2003.80003
 20
587.400009
 30
0.0
 11
2159.900032
 21
587.400009
 31
0.0
  0
LINE
  5
1E7
100
AcDbEntity
  8
TEN
 62
     1
100
AcDbLine
 10
2349.000035
 20
1025.800015
 30
0.0
 11
2349.000035
 21
604.500009
 31
0.0
  0
LINE
  5
1E8
100
AcDbEntity
  8
TEN
  6
DASHED
 62
     1
100
AcDbLine
 10
2432.000036
 20
604.500009
 30
0.0
 11
2432.000036
 21
1042.900016
 31
0.0
  0
LINE
  5
1E9
100
AcDbEntity
  8
TEN
 62
     1
100
AcDbLine
 10
2483.300037
 20
587.400009
 30
0.0
 11
2483.300037
 21
604.500009
 31
0.0
  0
LINE
  5
1EA
100
AcDbEntity
  8
TEN
 62
     1
100
AcDbLine
 10
2459.900037
 20
1042.900016
 30
0.0
 11
2459.900037
 21
1025.800015
 31
0.0
  0
LINE
  5
1EB
100
AcDbEntity
  8
TEN
  6
DASHED
 62
     1
100
AcDbLine
 10
2432.000036
 20
604.500009
 30
0.0
 11
2432.000036
 21
587.400009
 31
0.0
  0
LINE
  5
1EC
100
AcDbEntity
  8
TEN
 62
     1
100
AcDbLine
 10
2383.200036
 20
1025.800015
 30
0.0
 11
2383.200036
 21
968.900014
 31
0.0
  0
LINE
  5
1ED
100
AcDbEntity
  8
TEN
 62
     1
100
AcDbLine
 10
2383.200036
 20
968.900014
 30
0.0
 11
2349.000035
 21
968.900014
 31
0.0
  0
LINE
  5
1EE
100
AcDbEntity
  8
TEN
 62
     1
100
AcDbLine
 10
2371.800035
 20
604.500009
 30
0.0
 11
2371.800035
 21
667.10001
 31
0.0
  0
LINE
  5
1EF
100
AcDbEntity
  8
TEN
 62
     1
100
AcDbLine
 10
2371.800035
 20
667.10001
 30
0.0
 11
2383.200036
 21
678.50001
 31
0.0
  0
LINE
  5
1F0
100
AcDbEntity
  8
TEN
 62
     1
100
AcDbLine
 10
2349.000035
 20
744.100011
 30
0.0
 11
2383.200036
 21
744.100011
 31
0.0
  0
LINE
  5
1F1
100
AcDbEntity
  8
TEN
 62
     1
100
AcDbLine
 10
2383.200036
 20
744.100011
 30
0.0
 11
2383.200036
 21
678.50001
 31
0.0
  0
LINE
  5
1F2
100
AcDbEntity
  8
TEN
 62
     1
100
AcDbLine
 10
2483.300037
 20
587.400009
 30
0.0
 11
2483.300037
 21
604.500009
 31
0.0
  0
LINE
  5
1F3
100
AcDbEntity
  8
TEN
 62
     1
100
AcDbLine
 10
2271.800034
 20
1042.900016
 30
0.0
 11
2459.900037
 21
1042.900016
 31
0.0
  0
LINE
  5
1F4
100
AcDbEntity
  8
TEN
 62
     1
100
AcDbLine
 10
2162.700032
 20
1025.800015
 30
0.0
 11
2459.900037
 21
1025.800015
 31
0.0
  0
LINE
  5
1F5
100
AcDbEntity
  8
TEN
 62
     1
100
AcDbLine
 10
2276.900034
 20
604.500009
 30
0.0
 11
2483.300037
 21
604.500009
 31
0.0
  0
LINE
  5
1F6
100
AcDbEntity
  8
TEN
 62
     1
100
AcDbLine
 10
2159.900032
 20
587.400009
 30
0.0
 11
2483.300037
 21
587.400009
 31
0.0
  0
LINE
  5
1F7
100
AcDbEntity
  8
TEN
 62
     1
100
AcDbLine
 10
2432.000036
 20
1023.100015
 30
0.0
 11
2454.800037
 21
1023.100015
 31
0.0
  0
LINE
  5
1F8
100
AcDbEntity
  8
TEN
 62
     1
100
AcDbLine
 10
2409.300036
 20
1023.100015
 30
0.0
 11
2432.000036
 21
1023.100015
 31
0.0
  0
LINE
  5
1F9
100
AcDbEntity
  8
ONE
 62
     7
100
AcDbLine
 10
2456.000037
 20
1915.300029
 30
0.0
 11
2527.700038
 21
1915.300029
 31
0.0
  0
LINE
  5
1FA
100
AcDbEntity
  8
1
 62
     7
100
AcDbLine
 10
2456.000037
 20
1220.000018
 30
0.0
 11
2430.500036
 21
1220.000018
 31
0.0
  0
LINE
  5
1FB
100
AcDbEntity
  8
1
 62
     7
100
AcDbLine
 10
2456.000037
 20
1228.700018
 30
0.0
 11
2430.500036
 21
1228.700018
 31
0.0
  0
LINE
  5
1FC
100
AcDbEntity
  8
ONE
 62
     7
100
AcDbLine
 10
2456.000037
 20
1561.600023
 30
0.0
 11
2430.500036
 21
1561.600023
 31
0.0
  0
LINE
  5
1FD
100
AcDbEntity
  8
ONE
 62
     7
100
AcDbLine
 10
2456.000037
 20
1570.300023
 30
0.0
 11
2430.500036
 21
1570.300023
 31
0.0
  0
LINE
  5
1FE
100
AcDbEntity
  8
ONE
 62
     7
100
AcDbLine
 10
2456.000037
 20
1900.500028
 30
0.0
 11
2430.500036
 21
1900.500028
 31
0.0
  0
LINE
  5
1FF
100
AcDbEntity
  8
ONE
 62
     7
100
AcDbLine
 10
2456.000037
 20
1909.000028
 30
0.0
 11
2430.500036
 21
1909.000028
 31
0.0
  0
LINE
  5
200
100
AcDbEntity
  8
1
 62
     7
100
AcDbLine
 10
2430.500036
 20
1220.000018
 30
0.0
 11
2430.500036
 21
1228.700018
 31
0.0
  0
LINE
  5
201
100
AcDbEntity
  8
ONE
 62
     7
100
AcDbLine
 10
2430.500036
 20
1561.600023
 30
0.0
 11
2430.500036
 21
1570.300023
 31
0.0
  0
LINE
  5
202
100
AcDbEntity
  8
ONE
 62
     7
100
AcDbLine
 10
2430.500036
 20
1900.500028
 30
0.0
 11
2430.500036
 21
1909.000028
 31
0.0
  0
LINE
  5
203
100
AcDbEntity
  8
TEN
 62
     1
100
AcDbLine
 10
2447.600036
 20
1015.600015
 30
0.0
 11
2456.000037
 21
1015.600015
 31
0.0
  0
LINE
  5
204
100
AcDbEntity
  8
TEN
 62
     1
100
AcDbLine
 10
2454.800037
 20
1023.100015
 30
0.0
 11
2454.800037
 21
1015.600015
 31
0.0
  0
LINE
  5
205
100
AcDbEntity
  8
TEN
 62
     1
100
AcDbLine
 10
2454.800037
 20
648.50001
 30
0.0
 11
2432.000036
 21
648.50001
 31
0.0
  0
LINE
  5
206
100
AcDbEntity
  8
TEN
 62
     1
100
AcDbLine
 10
2432.000036
 20
648.50001
 30
0.0
 11
2409.300036
 21
648.50001
 31
0.0
  0
LINE
  5
207
100
AcDbEntity
  8
TEN
 62
     1
100
AcDbLine
 10
2409.300036
 20
648.50001
 30
0.0
 11
2409.300036
 21
1023.100015
 31
0.0
  0
LINE
  5
208
100
AcDbEntity
  8
TEN
  6
DOT
 62
     1
100
AcDbLine
 10
2432.000036
 20
593.700009
 30
0.0
 11
2446.400036
 21
593.700009
 31
0.0
  0
LINE
  5
209
100
AcDbEntity
  8
TEN
  6
DOT
 62
     1
100
AcDbLine
 10
2446.400036
 20
593.700009
 30
0.0
 11
2446.400036
 21
604.500009
 31
0.0
  0
LINE
  5
20A
100
AcDbEntity
  8
TEN
  6
DOT
 62
     1
100
AcDbLine
 10
2449.500037
 20
613.100009
 30
0.0
 11
2432.000036
 21
613.100009
 31
0.0
  0
LINE
  5
20B
100
AcDbEntity
  8
TEN
  6
DOT
 62
     1
100
AcDbLine
 10
2446.400036
 20
604.500009
 30
0.0
 11
2446.400036
 21
613.100009
 31
0.0
  0
LINE
  5
20C
100
AcDbEntity
  8
TEN
 62
     1
100
AcDbLine
 10
2432.000036
 20
620.000009
 30
0.0
 11
2456.400037
 21
620.000009
 31
0.0
  0
LINE
  5
20D
100
AcDbEntity
  8
TEN
 62
     1
100
AcDbLine
 10
2456.400037
 20
620.000009
 30
0.0
 11
2451.100037
 21
614.900009
 31
0.0
  0
LINE
  5
20E
100
AcDbEntity
  8
TEN
 62
     1
100
AcDbLine
 10
2456.400037
 20
620.000009
 30
0.0
 11
2456.400037
 21
644.70001
 31
0.0
  0
LINE
  5
20F
100
AcDbEntity
  8
TEN
 62
     1
100
AcDbLine
 10
2450.100037
 20
648.50001
 30
0.0
 11
2456.400037
 21
644.70001
 31
0.0
  0
LINE
  5
210
100
AcDbEntity
  8
TEN
 62
     1
100
AcDbLine
 10
2456.400037
 20
644.70001
 30
0.0
 11
2432.000036
 21
644.70001
 31
0.0
  0
LINE
  5
211
100
AcDbEntity
  8
TEN
 62
     1
100
AcDbLine
 10
2432.000036
 20
614.900009
 30
0.0
 11
2466.200037
 21
614.900009
 31
0.0
  0
LINE
  5
212
100
AcDbEntity
  8
TEN
 62
     1
100
AcDbLine
 10
2466.200037
 20
614.900009
 30
0.0
 11
2466.200037
 21
604.500009
 31
0.0
  0
LINE
  5
213
100
AcDbEntity
  8
TEN
  6
DOT
 62
     1
100
AcDbLine
 10
2449.500037
 20
613.100009
 30
0.0
 11
2451.100037
 21
614.900009
 31
0.0
  0
LINE
  5
214
100
AcDbEntity
  8
TEN
  6
DOT
 62
     1
100
AcDbLine
 10
2432.000036
 20
593.700009
 30
0.0
 11
2417.900036
 21
593.700009
 31
0.0
  0
LINE
  5
215
100
AcDbEntity
  8
TEN
  6
DOT
 62
     1
100
AcDbLine
 10
2417.900036
 20
593.700009
 30
0.0
 11
2417.900036
 21
604.500009
 31
0.0
  0
LINE
  5
216
100
AcDbEntity
  8
TEN
  6
DOT
 62
     1
100
AcDbLine
 10
2414.800036
 20
613.100009
 30
0.0
 11
2432.000036
 21
613.100009
 31
0.0
  0
LINE
  5
217
100
AcDbEntity
  8
TEN
  6
DOT
 62
     1
100
AcDbLine
 10
2417.900036
 20
604.500009
 30
0.0
 11
2417.900036
 21
613.100009
 31
0.0
  0
LINE
  5
218
100
AcDbEntity
  8
TEN
 62
     1
100
AcDbLine
 10
2432.000036
 20
620.000009
 30
0.0
 11
2407.900036
 21
620.000009
 31
0.0
  0
LINE
  5
219
100
AcDbEntity
  8
TEN
 62
     1
100
AcDbLine
 10
2407.900036
 20
620.000009
 30
0.0
 11
2413.000036
 21
614.900009
 31
0.0
  0
LINE
  5
21A
100
AcDbEntity
  8
TEN
 62
     1
100
AcDbLine
 10
2407.900036
 20
620.000009
 30
0.0
 11
2407.900036
 21
644.70001
 31
0.0
  0
LINE
  5
21B
100
AcDbEntity
  8
TEN
 62
     1
100
AcDbLine
 10
2414.200036
 20
648.50001
 30
0.0
 11
2407.900036
 21
644.70001
 31
0.0
  0
LINE
  5
21C
100
AcDbEntity
  8
TEN
 62
     1
100
AcDbLine
 10
2407.900036
 20
644.70001
 30
0.0
 11
2432.000036
 21
644.70001
 31
0.0
  0
LINE
  5
21D
100
AcDbEntity
  8
TEN
 62
     1
100
AcDbLine
 10
2432.000036
 20
614.900009
 30
0.0
 11
2397.900036
 21
614.900009
 31
0.0
  0
LINE
  5
21E
100
AcDbEntity
  8
TEN
 62
     1
100
AcDbLine
 10
2397.900036
 20
614.900009
 30
0.0
 11
2397.900036
 21
604.500009
 31
0.0
  0
LINE
  5
21F
100
AcDbEntity
  8
TEN
  6
DOT
 62
     1
100
AcDbLine
 10
2414.800036
 20
613.100009
 30
0.0
 11
2413.000036
 21
614.900009
 31
0.0
  0
LINE
  5
220
100
AcDbEntity
  8
TEN
 62
     1
100
AcDbLine
 10
2397.900036
 20
604.500009
 30
0.0
 11
2466.200037
 21
604.500009
 31
0.0
  0
LINE
  5
221
100
AcDbEntity
  8
TEN
  6
DASHED
 62
     1
100
AcDbLine
 10
2432.000036
 20
604.500009
 30
0.0
 11
2432.000036
 21
1023.100015
 31
0.0
  0
LINE
  5
222
100
AcDbEntity
  8
TEN
 62
     4
100
AcDbLine
 10
2456.000037
 20
647.30001
 30
0.0
 11
2467.400037
 21
647.30001
 31
0.0
  0
LINE
  5
223
100
AcDbEntity
  8
ONE
 62
     7
100
AcDbLine
 10
2456.000037
 20
647.30001
 30
0.0
 11
2456.000037
 21
1915.300029
 31
0.0
  0
LINE
  5
224
100
AcDbEntity
  8
TEN
 62
     1
100
AcDbLine
 10
2456.000037
 20
659.80001
 30
0.0
 11
2447.600036
 21
659.80001
 31
0.0
  0
LINE
  5
225
100
AcDbEntity
  8
TEN
 62
     1
100
AcDbLine
 10
2447.600036
 20
659.80001
 30
0.0
 11
2447.600036
 21
682.60001
 31
0.0
  0
LINE
  5
226
100
AcDbEntity
  8
TEN
 62
     1
100
AcDbLine
 10
2447.600036
 20
682.60001
 30
0.0
 11
2456.000037
 21
682.60001
 31
0.0
  0
LINE
  5
227
100
AcDbEntity
  8
TEN
 62
     1
100
AcDbLine
 10
2456.000037
 20
826.500012
 30
0.0
 11
2447.600036
 21
826.500012
 31
0.0
  0
LINE
  5
228
100
AcDbEntity
  8
TEN
 62
     1
100
AcDbLine
 10
2456.000037
 20
826.500012
 30
0.0
 11
2447.600036
 21
826.500012
 31
0.0
  0
LINE
  5
229
100
AcDbEntity
  8
TEN
 62
     1
100
AcDbLine
 10
2447.600036
 20
826.500012
 30
0.0
 11
2447.600036
 21
849.300013
 31
0.0
  0
LINE
  5
22A
100
AcDbEntity
  8
TEN
 62
     1
100
AcDbLine
 10
2447.600036
 20
849.300013
 30
0.0
 11
2456.000037
 21
849.300013
 31
0.0
  0
LINE
  5
22B
100
AcDbEntity
  8
TEN
 62
     1
100
AcDbLine
 10
2456.000037
 20
826.500012
 30
0.0
 11
2447.600036
 21
826.500012
 31
0.0
  0
LINE
  5
22C
100
AcDbEntity
  8
TEN
 62
     1
100
AcDbLine
 10
2447.600036
 20
826.500012
 30
0.0
 11
2447.600036
 21
849.300013
 31
0.0
  0
LINE
  5
22D
100
AcDbEntity
  8
TEN
 62
     1
100
AcDbLine
 10
2447.600036
 20
849.300013
 30
0.0
 11
2456.000037
 21
849.300013
 31
0.0
  0
LINE
  5
22E
100
AcDbEntity
  8
TEN
 62
     1
100
AcDbLine
 10
2456.000037
 20
826.500012
 30
0.0
 11
2447.600036
 21
826.500012
 31
0.0
  0
LINE
  5
22F
100
AcDbEntity
  8
TEN
 62
     1
100
AcDbLine
 10
2447.600036
 20
826.500012
 30
0.0
 11
2447.600036
 21
849.300013
 31
0.0
  0
LINE
  5
230
100
AcDbEntity
  8
TEN
 62
     1
100
AcDbLine
 10
2447.600036
 20
849.300013
 30
0.0
 11
2456.000037
 21
849.300013
 31
0.0
  0
LINE
  5
231
100
AcDbEntity
  8
TEN
 62
     1
100
AcDbLine
 10
2456.000037
 20
992.800015
 30
0.0
 11
2447.600036
 21
992.800015
 31
0.0
  0
LINE
  5
232
100
AcDbEntity
  8
TEN
 62
     1
100
AcDbLine
 10
2447.600036
 20
992.800015
 30
0.0
 11
2447.600036
 21
1015.600015
 31
0.0
  0
LINE
  5
233
100
AcDbEntity
  8
TEN
 62
     1
100
AcDbLine
 10
2454.800037
 20
659.80001
 30
0.0
 11
2454.800037
 21
648.50001
 31
0.0
  0
LINE
  5
234
100
AcDbEntity
  8
TEN
  6
DOT
 62
     1
100
AcDbLine
 10
2454.800037
 20
682.60001
 30
0.0
 11
2454.800037
 21
659.80001
 31
0.0
  0
LINE
  5
235
100
AcDbEntity
  8
TEN
 62
     1
100
AcDbLine
 10
2454.800037
 20
826.500012
 30
0.0
 11
2454.800037
 21
682.60001
 31
0.0
  0
LINE
  5
236
100
AcDbEntity
  8
TEN
  6
DOT
 62
     1
100
AcDbLine
 10
2454.800037
 20
849.300013
 30
0.0
 11
2454.800037
 21
826.500012
 31
0.0
  0
LINE
  5
237
100
AcDbEntity
  8
TEN
 62
     1
100
AcDbLine
 10
2454.800037
 20
992.800015
 30
0.0
 11
2454.800037
 21
849.300013
 31
0.0
  0
LINE
  5
238
100
AcDbEntity
  8
TEN
  6
DOT
 62
     1
100
AcDbLine
 10
2454.800037
 20
1015.600015
 30
0.0
 11
2454.800037
 21
992.800015
 31
0.0
  0
LINE
  5
239
100
AcDbEntity
  8
1
 62
     7
100
AcDbLine
 10
2518.600038
 20
905.900013
 30
0.0
 11
2518.600038
 21
1915.300029
 31
0.0
  0
LINE
  5
23A
100
AcDbEntity
  8
1
 62
     7
100
AcDbLine
 10
2527.700038
 20
905.900013
 30
0.0
 11
2527.700038
 21
1915.300029
 31
0.0
  0
LINE
  5
23B
100
AcDbEntity
  8
1
 62
     7
100
AcDbLine
 10
2467.400037
 20
647.30001
 30
0.0
 11
2467.400037
 21
649.60001
 31
0.0
  0
LINE
  5
23C
100
AcDbEntity
  8
1
 62
     7
100
AcDbLine
 10
2467.400037
 20
905.900013
 30
0.0
 11
2467.400037
 21
1915.300029
 31
0.0
  0
LINE
  5
23D
100
AcDbEntity
  8
1
  6
DOT
 62
     7
100
AcDbLine
 10
2467.400037
 20
905.900013
 30
0.0
 11
2467.400037
 21
649.60001
 31
0.0
  0
LINE
  5
23E
100
AcDbEntity
  8
1
  6
DOT
 62
     7
100
AcDbLine
 10
2518.600038
 20
905.900013
 30
0.0
 11
2518.600038
 21
647.30001
 31
0.0
  0
LINE
  5
23F
100
AcDbEntity
  8
TEN
 62
     4
100
AcDbLine
 10
2456.000037
 20
647.30001
 30
0.0
 11
2480.000037
 21
647.30001
 31
0.0
  0
LINE
  5
240
100
AcDbEntity
  8
1
  6
DOT
 62
     7
100
AcDbLine
 10
2480.000037
 20
647.30001
 30
0.0
 11
2527.700038
 21
647.30001
 31
0.0
  0
LINE
  5
241
100
AcDbEntity
  8
1
 62
     7
100
AcDbLine
 10
2466.200037
 20
905.900013
 30
0.0
 11
2540.200038
 21
905.900013
 31
0.0
  0
LINE
  5
242
100
AcDbEntity
  8
1
 62
     7
100
AcDbLine
 10
2466.200037
 20
649.60001
 30
0.0
 11
2475.200037
 21
649.60001
 31
0.0
  0
LINE
  5
243
100
AcDbEntity
  8
1
  6
DOT
 62
     7
100
AcDbLine
 10
2540.200038
 20
609.800009
 30
0.0
 11
2519.800038
 21
609.800009
 31
0.0
  0
ARC
  5
244
100
AcDbEntity
  8
1
 62
     7
100
AcDbCircle
 10
2475.200037
 20
643.90001
 30
0.0
 40
5.6
100
AcDbArc
 50
45.0
 51
90.0
  0
ARC
  5
245
100
AcDbEntity
  8
1
  6
DOT
 62
     7
100
AcDbCircle
 10
2519.800038
 20
615.500009
 30
0.0
 40
5.6
100
AcDbArc
 50
225.0
 51
270.0
  0
LINE
  5
246
100
AcDbEntity
  8
1
 62
     7
100
AcDbLine
 10
2466.200037
 20
649.60001
 30
0.0
 11
2466.200037
 21
905.900013
 31
0.0
  0
LINE
  5
247
100
AcDbEntity
  8
1
 62
     7
100
AcDbLine
 10
2523.200038
 20
622.100009
 30
0.0
 11
2523.200038
 21
854.600013
 31
0.0
  0
LINE
  5
248
100
AcDbEntity
  8
1
 62
     7
100
AcDbLine
 10
2506.100037
 20
629.600009
 30
0.0
 11
2506.100037
 21
846.600013
 31
0.0
  0
LINE
  5
249
100
AcDbEntity
  8
1
 62
     7
100
AcDbLine
 10
2523.200038
 20
622.100009
 30
0.0
 11
2519.000038
 21
622.100009
 31
0.0
  0
LINE
  5
24A
100
AcDbEntity
  8
1
 62
     7
100
AcDbLine
 10
2512.200037
 20
629.600009
 30
0.0
 11
2506.100037
 21
629.600009
 31
0.0
  0
LINE
  5
24B
100
AcDbEntity
  8
1
 62
     7
100
AcDbLine
 10
2514.700037
 20
627.800009
 30
0.0
 11
2516.300037
 21
624.100009
 31
0.0
  0
ARC
  5
24C
100
AcDbEntity
  8
1
 62
     7
100
AcDbCircle
 10
2512.200037
 20
626.900009
 30
0.0
 40
2.9
100
AcDbArc
 50
21.0
 51
90.0
  0
ARC
  5
24D
100
AcDbEntity
  8
1
 62
     7
100
AcDbCircle
 10
2519.000038
 20
625.100009
 30
0.0
 40
2.9
100
AcDbArc
 50
201.0
 51
270.0
  0
LINE
  5
24E
100
AcDbEntity
  8
1
 62
     7
100
AcDbLine
 10
2523.200038
 20
854.000013
 30
0.0
 11
2523.200038
 21
622.100009
 31
0.0
  0
LINE
  5
24F
100
AcDbEntity
  8
1
 62
     7
100
AcDbLine
 10
2512.600037
 20
846.600013
 30
0.0
 11
2506.100037
 21
846.600013
 31
0.0
  0
LINE
  5
250
100
AcDbEntity
  8
1
  6
DASHED
 62
     7
100
AcDbLine
 10
2493.100037
 20
678.10001
 30
0.0
 11
2467.400037
 21
678.10001
 31
0.0
  0
LINE
  5
251
100
AcDbEntity
  8
1
  6
DASHED
 62
     7
100
AcDbLine
 10
2467.400037
 20
678.10001
 30
0.0
 11
2465.600037
 21
678.10001
 31
0.0
  0
LINE
  5
252
100
AcDbEntity
  8
1
  6
DASHED
 62
     7
100
AcDbLine
 10
2493.100037
 20
678.10001
 30
0.0
 11
2493.100037
 21
652.40001
 31
0.0
  0
LINE
  5
253
100
AcDbEntity
  8
1
  6
DASHED
 62
     7
100
AcDbLine
 10
2493.100037
 20
652.40001
 30
0.0
 11
2493.100037
 21
650.60001
 31
0.0
  0
LINE
  5
254
100
AcDbEntity
  8
1
  6
DASHED
 62
     7
100
AcDbLine
 10
2493.100037
 20
678.10001
 30
0.0
 11
2518.600038
 21
678.10001
 31
0.0
  0
LINE
  5
255
100
AcDbEntity
  8
1
  6
DASHED
 62
     7
100
AcDbLine
 10
2518.600038
 20
678.10001
 30
0.0
 11
2520.400038
 21
678.10001
 31
0.0
  0
LINE
  5
256
100
AcDbEntity
  8
1
  6
DASHED
 62
     7
100
AcDbLine
 10
2493.100037
 20
678.10001
 30
0.0
 11
2493.100037
 21
703.60001
 31
0.0
  0
LINE
  5
257
100
AcDbEntity
  8
1
  6
DASHED
 62
     7
100
AcDbLine
 10
2493.100037
 20
703.60001
 30
0.0
 11
2493.100037
 21
705.400011
 31
0.0
  0
CIRCLE
  5
258
100
AcDbEntity
  8
1
  6
DOT
 62
     7
100
AcDbCircle
 10
2493.100037
 20
678.10001
 30
0.0
 40
25.7
  0
LINE
  5
259
100
AcDbEntity
  8
1
  6
DASHED
 62
     7
100
AcDbLine
 10
2493.100037
 20
880.100013
 30
0.0
 11
2518.600038
 21
880.100013
 31
0.0
  0
LINE
  5
25A
100
AcDbEntity
  8
1
  6
DASHED
 62
     7
100
AcDbLine
 10
2518.600038
 20
880.100013
 30
0.0
 11
2520.400038
 21
880.100013
 31
0.0
  0
LINE
  5
25B
100
AcDbEntity
  8
1
  6
DASHED
 62
     7
100
AcDbLine
 10
2493.100037
 20
880.100013
 30
0.0
 11
2493.100037
 21
905.900013
 31
0.0
  0
LINE
  5
25C
100
AcDbEntity
  8
1
  6
DASHED
 62
     7
100
AcDbLine
 10
2493.100037
 20
905.900013
 30
0.0
 11
2493.100037
 21
907.400014
 31
0.0
  0
LINE
  5
25D
100
AcDbEntity
  8
1
  6
DASHED
 62
     7
100
AcDbLine
 10
2493.100037
 20
880.100013
 30
0.0
 11
2467.400037
 21
880.100013
 31
0.0
  0
LINE
  5
25E
100
AcDbEntity
  8
1
  6
DASHED
 62
     7
100
AcDbLine
 10
2467.400037
 20
880.100013
 30
0.0
 11
2465.600037
 21
880.100013
 31
0.0
  0
LINE
  5
25F
100
AcDbEntity
  8
1
  6
DASHED
 62
     7
100
AcDbLine
 10
2493.100037
 20
880.100013
 30
0.0
 11
2493.100037
 21
854.600013
 31
0.0
  0
LINE
  5
260
100
AcDbEntity
  8
1
  6
DASHED
 62
     7
100
AcDbLine
 10
2493.100037
 20
854.600013
 30
0.0
 11
2493.100037
 21
852.900013
 31
0.0
  0
CIRCLE
  5
261
100
AcDbEntity
  8
1
  6
DOT
 62
     7
100
AcDbCircle
 10
2493.100037
 20
880.100013
 30
0.0
 40
25.7
  0
LINE
  5
262
100
AcDbEntity
  8
1
  6
DOT
 62
     7
100
AcDbLine
 10
2527.700038
 20
905.900013
 30
0.0
 11
2527.700038
 21
647.30001
 31
0.0
  0
LINE
  5
263
100
AcDbEntity
  8
1
 62
     7
100
AcDbLine
 10
2540.200038
 20
899.600013
 30
0.0
 11
2540.200038
 21
905.900013
 31
0.0
  0
LINE
  5
264
100
AcDbEntity
  8
1
 62
     7
100
AcDbLine
 10
2506.700037
 20
620.600009
 30
0.0
 11
2479.400037
 21
647.90001
 31
0.0
  0
LINE
  5
265
100
AcDbEntity
  8
1
  6
DOT
 62
     7
100
AcDbLine
 10
2540.200038
 20
899.600013
 30
0.0
 11
2540.200038
 21
609.800009
 31
0.0
  0
LINE
  5
266
100
AcDbEntity
  8
1
  6
DOT
 62
     7
100
AcDbLine
 10
2506.700037
 20
620.600009
 30
0.0
 11
2515.900037
 21
611.300009
 31
0.0
  0
LINE
  5
267
100
AcDbEntity
  8
1
 62
     7
100
AcDbLine
 10
2513.500037
 20
847.400013
 30
0.0
 11
2515.700037
 21
852.700013
 31
0.0
  0
LINE
  5
268
100
AcDbEntity
  8
1
 62
     7
100
AcDbLine
 10
2523.200038
 20
854.600013
 30
0.0
 11
2518.200038
 21
854.600013
 31
0.0
  0
ARC
  5
269
100
AcDbEntity
  8
1
 62
     7
100
AcDbCircle
 10
2518.200038
 20
851.700013
 30
0.0
 40
2.9
100
AcDbArc
 50
90.0
 51
159.0
  0
ARC
  5
26A
100
AcDbEntity
  8
1
 62
     7
100
AcDbCircle
 10
2512.600037
 20
847.700013
 30
0.0
 40
1.1
100
AcDbArc
 50
270.0
 51
339.0
  0
LINE
  5
26B
100
AcDbEntity
  8
1
 62
     7
100
AcDbLine
 10
2523.200038
 20
553.200008
 30
0.0
 11
2523.200038
 21
619.400009
 31
0.0
  0
LINE
  5
26C
100
AcDbEntity
  8
1
 62
     7
100
AcDbLine
 10
2534.500038
 20
541.800008
 30
0.0
 11
2572.000038
 21
541.800008
 31
0.0
  0
LINE
  5
26D
100
AcDbEntity
  8
1
 62
     7
100
AcDbLine
 10
2523.200038
 20
900.200013
 30
0.0
 11
2545.900038
 21
900.200013
 31
0.0
  0
LINE
  5
26E
100
AcDbEntity
  8
1
 62
     7
100
AcDbLine
 10
2557.300038
 20
567.000008
 30
0.0
 11
3169.500047
 21
567.000008
 31
0.0
  0
LINE
  5
26F
100
AcDbEntity
  8
1
 62
     7
100
AcDbLine
 10
2597.200039
 20
544.200008
 30
0.0
 11
3001.400045
 21
544.200008
 31
0.0
  0
LINE
  5
270
100
AcDbEntity
  8
1
 62
     7
100
AcDbLine
 10
2545.900038
 20
900.200013
 30
0.0
 11
2545.900038
 21
578.400009
 31
0.0
  0
ARC
  5
271
100
AcDbEntity
  8
1
 62
     7
100
AcDbCircle
 10
2557.300038
 20
578.400009
 30
0.0
 40
11.3
100
AcDbArc
 50
180.0
 51
270.0
  0
ARC
  5
272
100
AcDbEntity
  8
1
 62
     7
100
AcDbCircle
 10
2534.500038
 20
553.200008
 30
0.0
 40
11.3
100
AcDbArc
 50
180.0
 51
270.0
  0
LINE
  5
273
100
AcDbEntity
  8
1
 62
     7
100
AcDbLine
 10
2572.000038
 20
541.800008
 30
0.0
 11
2597.200039
 21
544.200008
 31
0.0
  0
LINE
  5
274
100
AcDbEntity
  8
1
 62
     7
100
AcDbLine
 10
3001.400045
 20
544.200008
 30
0.0
 11
3169.500047
 21
558.100008
 31
0.0
  0
LINE
  5
275
100
AcDbEntity
  8
1
 62
     7
100
AcDbLine
 10
3169.500047
 20
567.000008
 30
0.0
 11
3169.500047
 21
558.100008
 31
0.0
  0
LINE
  5
276
100
AcDbEntity
  8
1
 62
     7
100
AcDbLine
 10
3115.300046
 20
567.000008
 30
0.0
 11
3115.300046
 21
553.600008
 31
0.0
  0
LINE
  5
277
100
AcDbEntity
  8
1
 62
     7
100
AcDbLine
 10
3169.500047
 20
558.100008
 30
0.0
 11
3172.300047
 21
561.100008
 31
0.0
  0
LINE
  5
278
100
AcDbEntity
  8
1
 62
     7
100
AcDbLine
 10
3172.300047
 20
564.200008
 30
0.0
 11
3169.500047
 21
567.000008
 31
0.0
  0
LINE
  5
279
100
AcDbEntity
  8
1
 62
     7
100
AcDbLine
 10
3172.300047
 20
564.200008
 30
0.0
 11
3172.300047
 21
561.100008
 31
0.0
  0
LINE
  5
27A
100
AcDbEntity
  8
1
 62
     7
100
AcDbLine
 10
2506.700037
 20
846.600013
 30
0.0
 11
2512.400037
 21
846.600013
 31
0.0
  0
LINE
  5
27B
100
AcDbEntity
  8
1
 62
     7
100
AcDbLine
 10
2506.700037
 20
615.100009
 30
0.0
 11
2506.700037
 21
628.400009
 31
0.0
  0
LINE
  5
27C
100
AcDbEntity
  8
1
 62
     7
100
AcDbLine
 10
2513.700037
 20
627.400009
 30
0.0
 11
2515.900037
 21
621.200009
 31
0.0
  0
LINE
  5
27D
100
AcDbEntity
  8
1
 62
     7
100
AcDbLine
 10
2516.900038
 20
620.600009
 30
0.0
 11
2522.000038
 21
620.600009
 31
0.0
  0
ARC
  5
27E
100
AcDbEntity
  8
1
 62
     7
100
AcDbCircle
 10
2522.000038
 20
619.400009
 30
0.0
 40
1.1
100
AcDbArc
 50
0.0
 51
90.0
  0
ARC
  5
27F
100
AcDbEntity
  8
1
 62
     7
100
AcDbCircle
 10
2516.900038
 20
621.600009
 30
0.0
 40
1.1
100
AcDbArc
 50
200.0
 51
270.0
  0
LINE
  5
280
100
AcDbEntity
  8
1
 62
     7
100
AcDbLine
 10
2523.200038
 20
619.400009
 30
0.0
 11
2523.200038
 21
854.600013
 31
0.0
  0
LINE
  5
281
100
AcDbEntity
  8
1
 62
     7
100
AcDbLine
 10
2518.000038
 20
603.700009
 30
0.0
 11
2523.200038
 21
603.700009
 31
0.0
  0
LINE
  5
282
100
AcDbEntity
  8
1
 62
     7
100
AcDbLine
 10
2506.700037
 20
615.100009
 30
0.0
 11
2518.000038
 21
603.700009
 31
0.0
  0
LINE
  5
283
100
AcDbEntity
  8
1
 62
     7
100
AcDbLine
 10
2506.700037
 20
846.600013
 30
0.0
 11
2512.400037
 21
846.600013
 31
0.0
  0
LINE
  5
284
100
AcDbEntity
  8
1
 62
     7
100
AcDbLine
 10
2506.700037
 20
871.300013
 30
0.0
 11
2506.700037
 21
846.600013
 31
0.0
  0
LINE
  5
285
100
AcDbEntity
  8
1
 62
     7
100
AcDbLine
 10
2513.500037
 20
847.400013
 30
0.0
 11
2515.900037
 21
853.800013
 31
0.0
  0
LINE
  5
286
100
AcDbEntity
  8
1
 62
     7
100
AcDbLine
 10
2516.900038
 20
854.600013
 30
0.0
 11
2522.000038
 21
854.600013
 31
0.0
  0
ARC
  5
287
100
AcDbEntity
  8
1
 62
     7
100
AcDbCircle
 10
2512.400037
 20
847.700013
 30
0.0
 40
1.1
100
AcDbArc
 50
270.0
 51
340.0
  0
ARC
  5
288
100
AcDbEntity
  8
1
 62
     7
100
AcDbCircle
 10
2522.000038
 20
855.600013
 30
0.0
 40
1.1
100
AcDbArc
 50
270.0
 51
0.0
  0
ARC
  5
289
100
AcDbEntity
  8
1
 62
     7
100
AcDbCircle
 10
2516.900038
 20
853.400013
 30
0.0
 40
1.1
100
AcDbArc
 50
90.0
 51
160.0
  0
LINE
  5
28A
100
AcDbEntity
  8
1
 62
     7
100
AcDbLine
 10
2506.700037
 20
871.300013
 30
0.0
 11
2523.200038
 21
871.300013
 31
0.0
  0
LINE
  5
28B
100
AcDbEntity
  8
1
 62
     7
100
AcDbLine
 10
2523.200038
 20
871.300013
 30
0.0
 11
2523.200038
 21
855.600013
 31
0.0
  0
LINE
  5
28C
100
AcDbEntity
  8
1
 62
     7
100
AcDbLine
 10
2506.700037
 20
628.400009
 30
0.0
 11
2512.000037
 21
628.400009
 31
0.0
  0
ARC
  5
28D
100
AcDbEntity
  8
1
 62
     7
100
AcDbCircle
 10
2512.000037
 20
626.900009
 30
0.0
 40
1.7
100
AcDbArc
 50
20.0
 51
90.0
  0
LINE
  5
28E
100
AcDbEntity
  8
1
 62
     7
100
AcDbLine
 10
2506.700037
 20
615.100009
 30
0.0
 11
2506.700037
 21
628.400009
 31
0.0
  0
LINE
  5
28F
100
AcDbEntity
  8
1
 62
     7
100
AcDbLine
 10
2523.200038
 20
854.600013
 30
0.0
 11
2523.200038
 21
900.200013
 31
0.0
  0
LINE
  5
290
100
AcDbEntity
  8
SEVEN
 62
     5
100
AcDbLine
 10
1956.100029
 20
736.600011
 30
0.0
 11
1591.300024
 21
736.600011
 31
0.0
  0
LINE
  5
291
100
AcDbEntity
  8
1
 62
     1
100
AcDbLine
 10
1956.100029
 20
624.500009
 30
0.0
 11
1947.300029
 21
624.500009
 31
0.0
  0
LINE
  5
292
100
AcDbEntity
  8
1
 62
     7
100
AcDbLine
 10
1772.300026
 20
624.500009
 30
0.0
 11
1759.200026
 21
624.500009
 31
0.0
  0
LINE
  5
293
100
AcDbEntity
  8
SEVEN
 62
     1
100
AcDbLine
 10
1951.800029
 20
738.400011
 30
0.0
 11
1951.800029
 21
754.700011
 31
0.0
  0
LINE
  5
294
100
AcDbEntity
  8
SEVEN
 62
     5
100
AcDbLine
 10
1951.800029
 20
738.400011
 30
0.0
 11
1940.400029
 21
738.400011
 31
0.0
  0
LINE
  5
295
100
AcDbEntity
  8
SEVEN
 62
     5
100
AcDbLine
 10
2079.400031
 20
1320.90002
 30
0.0
 11
2079.400031
 21
1175.600018
 31
0.0
  0
LINE
  5
296
100
AcDbEntity
  8
SEVEN
 62
     5
100
AcDbLine
 10
2033.90003
 20
1130.100017
 30
0.0
 11
1980.30003
 21
1130.100017
 31
0.0
  0
LINE
  5
297
100
AcDbEntity
  8
SEVEN
 62
     5
100
AcDbLine
 10
1951.800029
 20
1101.600016
 30
0.0
 11
1951.800029
 21
740.500011
 31
0.0
  0
LINE
  5
298
100
AcDbEntity
  8
SEVEN
 62
     5
100
AcDbLine
 10
2062.300031
 20
1320.90002
 30
0.0
 11
2062.300031
 21
1173.300017
 31
0.0
  0
LINE
  5
299
100
AcDbEntity
  8
SEVEN
 62
     5
100
AcDbLine
 10
1934.700029
 20
1101.600016
 30
0.0
 11
1934.700029
 21
818.100012
 31
0.0
  0
ARC
  5
29A
100
AcDbEntity
  8
SEVEN
 62
     5
100
AcDbCircle
 10
1980.30003
 20
1101.600016
 30
0.0
 40
28.4
100
AcDbArc
 50
90.0
 51
180.0
  0
LINE
  5
29B
100
AcDbEntity
  8
SEVEN
 62
     5
100
AcDbLine
 10
2062.300031
 20
1175.600018
 30
0.0
 11
2062.300031
 21
1169.200017
 31
0.0
  0
LINE
  5
29C
100
AcDbEntity
  8
SEVEN
 62
     5
100
AcDbLine
 10
2062.300031
 20
1175.600018
 30
0.0
 11
2062.300031
 21
1173.300017
 31
0.0
  0
LINE
  5
29D
100
AcDbEntity
  8
SEVEN
 62
     5
100
AcDbLine
 10
2039.60003
 20
1333.10002
 30
0.0
 11
2043.90003
 21
1328.80002
 31
0.0
  0
LINE
  5
29E
100
AcDbEntity
  8
SEVEN
  6
DOT
 62
     5
100
AcDbLine
 10
2017.20003
 20
1320.10002
 30
0.0
 11
2016.40003
 21
1319.80002
 31
0.0
  0
LINE
  5
29F
100
AcDbEntity
  8
SEVEN
  6
DOT
 62
     5
100
AcDbLine
 10
1984.80003
 20
1301.500019
 30
0.0
 11
1985.20003
 21
1301.100019
 31
0.0
  0
LINE
  5
2A0
100
AcDbEntity
  8
SEVEN
 62
     5
100
AcDbLine
 10
2008.70003
 20
1315.40002
 30
0.0
 11
2007.60003
 21
1314.60002
 31
0.0
  0
LINE
  5
2A1
100
AcDbEntity
  8
SEVEN
 62
     5
100
AcDbLine
 10
2052.700031
 20
1287.600019
 30
0.0
 11
2022.70003
 21
1270.300019
 31
0.0
  0
LINE
  5
2A2
100
AcDbEntity
  8
SEVEN
 62
     5
100
AcDbLine
 10
2031.90003
 20
1275.600019
 30
0.0
 11
2027.20003
 21
1272.800019
 31
0.0
  0
LINE
  5
2A3
100
AcDbEntity
  8
SEVEN
  6
DOT
 62
     5
100
AcDbLine
 10
2009.70003
 20
1313.90002
 30
0.0
 11
1985.20003
 21
1299.700019
 31
0.0
  0
LINE
  5
2A4
100
AcDbEntity
  8
SEVEN
  6
DOT
 62
     5
100
AcDbLine
 10
2008.70003
 20
1315.40002
 30
0.0
 11
1984.80003
 21
1301.500019
 31
0.0
  0
LINE
  5
2A5
100
AcDbEntity
  8
SEVEN
  6
DOT
 62
     5
100
AcDbLine
 10
2008.70003
 20
1315.40002
 30
0.0
 11
2016.40003
 21
1319.80002
 31
0.0
  0
LINE
  5
2A6
100
AcDbEntity
  8
SEVEN
  6
DOT
 62
     5
100
AcDbLine
 10
2009.70003
 20
1313.90002
 30
0.0
 11
2011.30003
 21
1314.80002
 31
0.0
  0
LINE
  5
2A7
100
AcDbEntity
  8
SEVEN
 62
     5
100
AcDbLine
 10
2031.90003
 20
1275.600019
 30
0.0
 11
2033.50003
 21
1276.400019
 31
0.0
  0
LINE
  5
2A8
100
AcDbEntity
  8
SEVEN
 62
     5
100
AcDbLine
 10
1999.70003
 20
1274.600019
 30
0.0
 11
1994.60003
 21
1283.600019
 31
0.0
  0
ARC
  5
2A9
100
AcDbEntity
  8
SEVEN
 62
     5
100
AcDbCircle
 10
1997.50003
 20
1285.200019
 30
0.0
 40
3.3
100
AcDbArc
 50
120.0
 51
210.0
  0
LINE
  5
2AA
100
AcDbEntity
  8
SEVEN
  6
DASHED
 62
     5
100
AcDbLine
 10
2001.10003
 20
1281.500019
 30
0.0
 11
2013.80003
 21
1288.700019
 31
0.0
  0
LINE
  5
2AB
100
AcDbEntity
  8
SEVEN
  6
DASHED
 62
     5
100
AcDbLine
 10
2013.80003
 20
1288.700019
 30
0.0
 11
2015.40003
 21
1289.700019
 31
0.0
  0
LINE
  5
2AC
100
AcDbEntity
  8
SEVEN
  6
DASHED
 62
     5
100
AcDbLine
 10
2001.10003
 20
1281.500019
 30
0.0
 11
1993.60003
 21
1294.200019
 31
0.0
  0
LINE
  5
2AD
100
AcDbEntity
  8
SEVEN
  6
DASHED
 62
     5
100
AcDbLine
 10
1993.60003
 20
1294.200019
 30
0.0
 11
1992.80003
 21
1295.600019
 31
0.0
  0
LINE
  5
2AE
100
AcDbEntity
  8
SEVEN
  6
DASHED
 62
     5
100
AcDbLine
 10
2001.10003
 20
1281.500019
 30
0.0
 11
1988.30003
 21
1274.000019
 31
0.0
  0
LINE
  5
2AF
100
AcDbEntity
  8
SEVEN
  6
DASHED
 62
     5
100
AcDbLine
 10
1988.30003
 20
1274.000019
 30
0.0
 11
1986.70003
 21
1273.200019
 31
0.0
  0
LINE
  5
2B0
100
AcDbEntity
  8
SEVEN
  6
DASHED
 62
     5
100
AcDbLine
 10
2001.10003
 20
1281.500019
 30
0.0
 11
2008.50003
 21
1268.500019
 31
0.0
  0
LINE
  5
2B1
100
AcDbEntity
  8
SEVEN
  6
DASHED
 62
     5
100
AcDbLine
 10
2008.50003
 20
1268.500019
 30
0.0
 11
2009.30003
 21
1267.100019
 31
0.0
  0
ARC
  5
2B2
100
AcDbEntity
  8
SEVEN
 62
     5
100
AcDbCircle
 10
2001.10003
 20
1281.500019
 30
0.0
 40
14.7
100
AcDbArc
 50
175.0
 51
245.0
  0
LINE
  5
2B3
100
AcDbEntity
  8
SEVEN
 62
     5
100
AcDbLine
 10
1999.70003
 20
1274.600019
 30
0.0
 11
1994.60003
 21
1283.600019
 31
0.0
  0
ARC
  5
2B4
100
AcDbEntity
  8
SEVEN
 62
     5
100
AcDbCircle
 10
1997.50003
 20
1285.200019
 30
0.0
 40
3.3
100
AcDbArc
 50
120.0
 51
210.0
  0
LINE
  5
2B5
100
AcDbEntity
  8
SEVEN
  6
DASHED
 62
     5
100
AcDbLine
 10
2001.10003
 20
1281.500019
 30
0.0
 11
2013.80003
 21
1288.700019
 31
0.0
  0
LINE
  5
2B6
100
AcDbEntity
  8
SEVEN
  6
DASHED
 62
     5
100
AcDbLine
 10
2013.80003
 20
1288.700019
 30
0.0
 11
2015.40003
 21
1289.700019
 31
0.0
  0
LINE
  5
2B7
100
AcDbEntity
  8
SEVEN
  6
DASHED
 62
     5
100
AcDbLine
 10
2001.10003
 20
1281.500019
 30
0.0
 11
1993.60003
 21
1294.200019
 31
0.0
  0
LINE
  5
2B8
100
AcDbEntity
  8
SEVEN
  6
DASHED
 62
     5
100
AcDbLine
 10
1993.60003
 20
1294.200019
 30
0.0
 11
1992.80003
 21
1295.600019
 31
0.0
  0
LINE
  5
2B9
100
AcDbEntity
  8
SEVEN
  6
DASHED
 62
     5
100
AcDbLine
 10
2001.10003
 20
1281.500019
 30
0.0
 11
1988.30003
 21
1274.000019
 31
0.0
  0
LINE
  5
2BA
100
AcDbEntity
  8
SEVEN
  6
DASHED
 62
     5
100
AcDbLine
 10
1988.30003
 20
1274.000019
 30
0.0
 11
1986.70003
 21
1273.200019
 31
0.0
  0
LINE
  5
2BB
100
AcDbEntity
  8
SEVEN
  6
DASHED
 62
     5
100
AcDbLine
 10
2001.10003
 20
1281.500019
 30
0.0
 11
2008.50003
 21
1268.500019
 31
0.0
  0
LINE
  5
2BC
100
AcDbEntity
  8
SEVEN
  6
DASHED
 62
     5
100
AcDbLine
 10
2008.50003
 20
1268.500019
 30
0.0
 11
2009.30003
 21
1267.100019
 31
0.0
  0
ARC
  5
2BD
100
AcDbEntity
  8
SEVEN
 62
     5
100
AcDbCircle
 10
2001.10003
 20
1281.500019
 30
0.0
 40
14.7
100
AcDbArc
 50
175.0
 51
245.0
  0
LINE
  5
2BE
100
AcDbEntity
  8
SEVEN
 62
     5
100
AcDbLine
 10
1994.60003
 20
1283.600019
 30
0.0
 11
1999.70003
 21
1274.600019
 31
0.0
  0
ARC
  5
2BF
100
AcDbEntity
  8
SEVEN
 62
     5
100
AcDbCircle
 10
2002.60003
 20
1276.400019
 30
0.0
 40
3.3
100
AcDbArc
 50
210.0
 51
300.0
  0
ARC
  5
2C0
100
AcDbEntity
  8
SEVEN
 62
     5
100
AcDbCircle
 10
1997.50003
 20
1285.200019
 30
0.0
 40
3.3
100
AcDbArc
 50
120.0
 51
210.0
  0
ARC
  5
2C1
100
AcDbEntity
  8
SEVEN
 62
     5
100
AcDbCircle
 10
2045.50003
 20
1307.000019
 30
0.0
 40
8.6
100
AcDbArc
 50
300.0
 51
30.0
  0
ARC
  5
2C2
100
AcDbEntity
  8
SEVEN
 62
     5
100
AcDbCircle
 10
2045.50003
 20
1307.000019
 30
0.0
 40
8.6
100
AcDbArc
 50
30.0
 51
120.0
  0
LINE
  5
2C3
100
AcDbEntity
  8
SEVEN
  6
DASHED
 62
     5
100
AcDbLine
 10
2001.10003
 20
1281.500019
 30
0.0
 11
2013.80003
 21
1288.700019
 31
0.0
  0
LINE
  5
2C4
100
AcDbEntity
  8
SEVEN
  6
DASHED
 62
     5
100
AcDbLine
 10
2013.80003
 20
1288.700019
 30
0.0
 11
2015.40003
 21
1289.700019
 31
0.0
  0
LINE
  5
2C5
100
AcDbEntity
  8
SEVEN
  6
DASHED
 62
     5
100
AcDbLine
 10
2001.10003
 20
1281.500019
 30
0.0
 11
2008.50003
 21
1268.500019
 31
0.0
  0
LINE
  5
2C6
100
AcDbEntity
  8
SEVEN
  6
DASHED
 62
     5
100
AcDbLine
 10
2008.50003
 20
1268.500019
 30
0.0
 11
2009.30003
 21
1267.100019
 31
0.0
  0
LINE
  5
2C7
100
AcDbEntity
  8
SEVEN
  6
DASHED
 62
     5
100
AcDbLine
 10
2001.10003
 20
1281.500019
 30
0.0
 11
1988.30003
 21
1274.000019
 31
0.0
  0
LINE
  5
2C8
100
AcDbEntity
  8
SEVEN
  6
DASHED
 62
     5
100
AcDbLine
 10
1988.30003
 20
1274.000019
 30
0.0
 11
1986.70003
 21
1273.200019
 31
0.0
  0
LINE
  5
2C9
100
AcDbEntity
  8
SEVEN
  6
DASHED
 62
     5
100
AcDbLine
 10
2001.10003
 20
1281.500019
 30
0.0
 11
1993.60003
 21
1294.200019
 31
0.0
  0
LINE
  5
2CA
100
AcDbEntity
  8
SEVEN
  6
DASHED
 62
     5
100
AcDbLine
 10
1993.60003
 20
1294.200019
 30
0.0
 11
1992.80003
 21
1295.600019
 31
0.0
  0
LINE
  5
2CB
100
AcDbEntity
  8
SEVEN
 62
     5
100
AcDbLine
 10
1994.60003
 20
1283.600019
 30
0.0
 11
1999.70003
 21
1274.600019
 31
0.0
  0
ARC
  5
2CC
100
AcDbEntity
  8
SEVEN
 62
     5
100
AcDbCircle
 10
2002.60003
 20
1276.400019
 30
0.0
 40
3.3
100
AcDbArc
 50
210.0
 51
300.0
  0
ARC
  5
2CD
100
AcDbEntity
  8
SEVEN
 62
     5
100
AcDbCircle
 10
1997.50003
 20
1285.200019
 30
0.0
 40
3.3
100
AcDbArc
 50
120.0
 51
210.0
  0
ARC
  5
2CE
100
AcDbEntity
  8
SEVEN
 62
     5
100
AcDbCircle
 10
2045.50003
 20
1307.000019
 30
0.0
 40
8.6
100
AcDbArc
 50
300.0
 51
30.0
  0
ARC
  5
2CF
100
AcDbEntity
  8
SEVEN
 62
     5
100
AcDbCircle
 10
2045.50003
 20
1307.000019
 30
0.0
 40
8.6
100
AcDbArc
 50
30.0
 51
120.0
  0
LINE
  5
2D0
100
AcDbEntity
  8
SEVEN
  6
DASHED
 62
     5
100
AcDbLine
 10
2001.10003
 20
1281.500019
 30
0.0
 11
2013.80003
 21
1288.700019
 31
0.0
  0
LINE
  5
2D1
100
AcDbEntity
  8
SEVEN
  6
DASHED
 62
     5
100
AcDbLine
 10
2013.80003
 20
1288.700019
 30
0.0
 11
2015.40003
 21
1289.700019
 31
0.0
  0
LINE
  5
2D2
100
AcDbEntity
  8
SEVEN
  6
DASHED
 62
     5
100
AcDbLine
 10
2001.10003
 20
1281.500019
 30
0.0
 11
2008.50003
 21
1268.500019
 31
0.0
  0
LINE
  5
2D3
100
AcDbEntity
  8
SEVEN
  6
DASHED
 62
     5
100
AcDbLine
 10
2008.50003
 20
1268.500019
 30
0.0
 11
2009.30003
 21
1267.100019
 31
0.0
  0
LINE
  5
2D4
100
AcDbEntity
  8
SEVEN
  6
DASHED
 62
     5
100
AcDbLine
 10
2001.10003
 20
1281.500019
 30
0.0
 11
1988.30003
 21
1274.000019
 31
0.0
  0
LINE
  5
2D5
100
AcDbEntity
  8
SEVEN
  6
DASHED
 62
     5
100
AcDbLine
 10
1988.30003
 20
1274.000019
 30
0.0
 11
1986.70003
 21
1273.200019
 31
0.0
  0
LINE
  5
2D6
100
AcDbEntity
  8
SEVEN
  6
DASHED
 62
     5
100
AcDbLine
 10
2001.10003
 20
1281.500019
 30
0.0
 11
1993.60003
 21
1294.200019
 31
0.0
  0
LINE
  5
2D7
100
AcDbEntity
  8
SEVEN
  6
DASHED
 62
     5
100
AcDbLine
 10
1993.60003
 20
1294.200019
 30
0.0
 11
1992.80003
 21
1295.600019
 31
0.0
  0
LINE
  5
2D8
100
AcDbEntity
  8
SEVEN
 62
     5
100
AcDbLine
 10
2061.200031
 20
1317.40002
 30
0.0
 11
2052.300031
 21
1312.30002
 31
0.0
  0
LINE
  5
2D9
100
AcDbEntity
  8
SEVEN
 62
     5
100
AcDbLine
 10
1987.70003
 20
1275.000019
 30
0.0
 11
1977.300029
 21
1268.900019
 31
0.0
  0
LINE
  5
2DA
100
AcDbEntity
  8
SEVEN
  6
DASHED
 62
     5
100
AcDbLine
 10
2014.40003
 20
1146.600017
 30
0.0
 11
2031.50003
 21
1146.600017
 31
0.0
  0
LINE
  5
2DB
100
AcDbEntity
  8
SEVEN
  6
DASHED
 62
     5
100
AcDbLine
 10
2031.50003
 20
1146.600017
 30
0.0
 11
2033.30003
 21
1146.600017
 31
0.0
  0
LINE
  5
2DC
100
AcDbEntity
  8
SEVEN
  6
DASHED
 62
     5
100
AcDbLine
 10
2014.40003
 20
1146.600017
 30
0.0
 11
2014.40003
 21
1163.700017
 31
0.0
  0
LINE
  5
2DD
100
AcDbEntity
  8
SEVEN
  6
DASHED
 62
     5
100
AcDbLine
 10
2014.40003
 20
1163.700017
 30
0.0
 11
2014.40003
 21
1165.400017
 31
0.0
  0
LINE
  5
2DE
100
AcDbEntity
  8
SEVEN
  6
DASHED
 62
     5
100
AcDbLine
 10
2014.40003
 20
1146.600017
 30
0.0
 11
1997.30003
 21
1146.600017
 31
0.0
  0
LINE
  5
2DF
100
AcDbEntity
  8
SEVEN
  6
DASHED
 62
     5
100
AcDbLine
 10
1997.30003
 20
1146.600017
 30
0.0
 11
1995.60003
 21
1146.600017
 31
0.0
  0
LINE
  5
2E0
100
AcDbEntity
  8
SEVEN
  6
DASHED
 62
     5
100
AcDbLine
 10
2014.40003
 20
1146.600017
 30
0.0
 11
2014.40003
 21
1129.500017
 31
0.0
  0
LINE
  5
2E1
100
AcDbEntity
  8
SEVEN
  6
DASHED
 62
     5
100
AcDbLine
 10
2014.40003
 20
1129.500017
 30
0.0
 11
2014.40003
 21
1127.700017
 31
0.0
  0
ARC
  5
2E2
100
AcDbEntity
  8
SEVEN
 62
     5
100
AcDbCircle
 10
2028.80003
 20
1171.700017
 30
0.0
 40
25.7
100
AcDbArc
 50
280.0
 51
0.0
  0
LINE
  5
2E3
100
AcDbEntity
  8
SEVEN
 62
     5
100
AcDbLine
 10
1997.30003
 20
1146.600017
 30
0.0
 11
1997.30003
 21
1241.400018
 31
0.0
  0
LINE
  5
2E4
100
AcDbEntity
  8
SEVEN
 62
     5
100
AcDbLine
 10
1997.00003
 20
1243.000019
 30
0.0
 11
1986.90003
 21
1260.500019
 31
0.0
  0
LINE
  5
2E5
100
AcDbEntity
  8
SEVEN
 62
     5
100
AcDbLine
 10
2054.300031
 20
1271.800019
 30
0.0
 11
2054.300031
 21
1275.400019
 31
0.0
  0
LINE
  5
2E6
100
AcDbEntity
  8
SEVEN
 62
     5
100
AcDbLine
 10
2031.50003
 20
1145.000017
 30
0.0
 11
2031.50003
 21
1249.700019
 31
0.0
  0
LINE
  5
2E7
100
AcDbEntity
  8
SEVEN
 62
     5
100
AcDbLine
 10
2030.50003
 20
1253.000019
 30
0.0
 11
2022.10003
 21
1267.900019
 31
0.0
  0
LINE
  5
2E8
100
AcDbEntity
  8
SEVEN
 62
     5
100
AcDbLine
 10
2007.40003
 20
1261.400019
 30
0.0
 11
2031.90003
 21
1275.600019
 31
0.0
  0
LINE
  5
2E9
100
AcDbEntity
  8
SEVEN
 62
     5
100
AcDbLine
 10
2054.300031
 20
1271.800019
 30
0.0
 11
2025.60003
 21
1271.800019
 31
0.0
  0
LINE
  5
2EA
100
AcDbEntity
  8
SEVEN
 62
     5
100
AcDbLine
 10
2054.300031
 20
1267.300019
 30
0.0
 11
2022.30003
 21
1267.300019
 31
0.0
  0
LINE
  5
2EB
100
AcDbEntity
  8
SEVEN
 62
     5
100
AcDbLine
 10
2054.300031
 20
1265.000019
 30
0.0
 11
2023.70003
 21
1265.000019
 31
0.0
  0
LINE
  5
2EC
100
AcDbEntity
  8
SEVEN
 62
     5
100
AcDbLine
 10
2054.300031
 20
1260.500019
 30
0.0
 11
2026.20003
 21
1260.500019
 31
0.0
  0
LINE
  5
2ED
100
AcDbEntity
  8
SEVEN
 62
     5
100
AcDbLine
 10
2054.300031
 20
1258.300019
 30
0.0
 11
2027.60003
 21
1258.300019
 31
0.0
  0
ARC
  5
2EE
100
AcDbEntity
  8
SEVEN
 62
     5
100
AcDbCircle
 10
2060.800031
 20
1269.700019
 30
0.0
 40
6.8
100
AcDbArc
 50
161.0
 51
199.0
  0
LINE
  5
2EF
100
AcDbEntity
  8
SEVEN
 62
     5
100
AcDbLine
 10
2054.300031
 20
1271.800019
 30
0.0
 11
2054.300031
 21
1288.500019
 31
0.0
  0
LINE
  5
2F0
100
AcDbEntity
  8
SEVEN
 62
     5
100
AcDbLine
 10
2054.300031
 20
1190.000018
 30
0.0
 11
2054.300031
 21
1191.200018
 31
0.0
  0
LINE
  5
2F1
100
AcDbEntity
  8
SEVEN
 62
     5
100
AcDbLine
 10
2054.300031
 20
1190.000018
 30
0.0
 11
2052.500031
 21
1190.000018
 31
0.0
  0
LINE
  5
2F2
100
AcDbEntity
  8
SEVEN
 62
     5
100
AcDbLine
 10
2054.300031
 20
1185.300018
 30
0.0
 11
2052.500031
 21
1185.300018
 31
0.0
  0
ARC
  5
2F3
100
AcDbEntity
  8
SEVEN
 62
     5
100
AcDbCircle
 10
2060.800031
 20
1187.600018
 30
0.0
 40
6.8
100
AcDbArc
 50
161.0
 51
199.0
  0
LINE
  5
2F4
100
AcDbEntity
  8
SEVEN
 62
     5
100
AcDbLine
 10
2054.300031
 20
1184.300018
 30
0.0
 11
2054.300031
 21
1185.300018
 31
0.0
  0
LINE
  5
2F5
100
AcDbEntity
  8
SEVEN
 62
     5
100
AcDbLine
 10
2054.300031
 20
1190.000018
 30
0.0
 11
2054.300031
 21
1191.200018
 31
0.0
  0
LINE
  5
2F6
100
AcDbEntity
  8
SEVEN
 62
     5
100
AcDbLine
 10
2054.300031
 20
1265.000019
 30
0.0
 11
2054.300031
 21
1266.300019
 31
0.0
  0
LINE
  5
2F7
100
AcDbEntity
  8
SEVEN
 62
     5
100
AcDbLine
 10
2054.300031
 20
1265.000019
 30
0.0
 11
2052.500031
 21
1265.000019
 31
0.0
  0
LINE
  5
2F8
100
AcDbEntity
  8
SEVEN
 62
     5
100
AcDbLine
 10
2054.300031
 20
1260.500019
 30
0.0
 11
2052.500031
 21
1260.500019
 31
0.0
  0
ARC
  5
2F9
100
AcDbEntity
  8
SEVEN
 62
     5
100
AcDbCircle
 10
2060.800031
 20
1262.800019
 30
0.0
 40
6.8
100
AcDbArc
 50
161.0
 51
199.0
  0
LINE
  5
2FA
100
AcDbEntity
  8
SEVEN
 62
     5
100
AcDbLine
 10
2054.300031
 20
1259.300019
 30
0.0
 11
2054.300031
 21
1260.500019
 31
0.0
  0
LINE
  5
2FB
100
AcDbEntity
  8
SEVEN
 62
     5
100
AcDbLine
 10
2054.300031
 20
1265.000019
 30
0.0
 11
2054.300031
 21
1266.300019
 31
0.0
  0
LINE
  5
2FC
100
AcDbEntity
  8
SEVEN
 62
     5
100
AcDbLine
 10
2054.300031
 20
1266.300019
 30
0.0
 11
2054.300031
 21
1267.300019
 31
0.0
  0
LINE
  5
2FD
100
AcDbEntity
  8
SEVEN
 62
     5
100
AcDbLine
 10
2054.300031
 20
1171.700017
 30
0.0
 11
2031.50003
 21
1171.700017
 31
0.0
  0
LINE
  5
2FE
100
AcDbEntity
  8
SEVEN
 62
     5
100
AcDbLine
 10
2054.300031
 20
1178.600018
 30
0.0
 11
2031.50003
 21
1178.600018
 31
0.0
  0
LINE
  5
2FF
100
AcDbEntity
  8
SEVEN
 62
     5
100
AcDbLine
 10
2054.300031
 20
1185.300018
 30
0.0
 11
2031.50003
 21
1185.300018
 31
0.0
  0
LINE
  5
300
100
AcDbEntity
  8
SEVEN
 62
     5
100
AcDbLine
 10
2054.300031
 20
1192.100018
 30
0.0
 11
2031.50003
 21
1192.100018
 31
0.0
  0
LINE
  5
301
100
AcDbEntity
  8
SEVEN
 62
     5
100
AcDbLine
 10
2054.300031
 20
1199.000018
 30
0.0
 11
2031.50003
 21
1199.000018
 31
0.0
  0
LINE
  5
302
100
AcDbEntity
  8
SEVEN
 62
     5
100
AcDbLine
 10
2054.300031
 20
1205.900018
 30
0.0
 11
2031.50003
 21
1205.900018
 31
0.0
  0
LINE
  5
303
100
AcDbEntity
  8
SEVEN
 62
     5
100
AcDbLine
 10
2054.300031
 20
1212.700018
 30
0.0
 11
2031.50003
 21
1212.700018
 31
0.0
  0
LINE
  5
304
100
AcDbEntity
  8
SEVEN
 62
     5
100
AcDbLine
 10
2054.300031
 20
1210.400018
 30
0.0
 11
2031.50003
 21
1210.400018
 31
0.0
  0
LINE
  5
305
100
AcDbEntity
  8
SEVEN
 62
     5
100
AcDbLine
 10
2054.300031
 20
1203.500018
 30
0.0
 11
2031.50003
 21
1203.500018
 31
0.0
  0
LINE
  5
306
100
AcDbEntity
  8
SEVEN
 62
     5
100
AcDbLine
 10
2054.300031
 20
1196.600018
 30
0.0
 11
2031.50003
 21
1196.600018
 31
0.0
  0
LINE
  5
307
100
AcDbEntity
  8
SEVEN
 62
     5
100
AcDbLine
 10
2054.300031
 20
1190.000018
 30
0.0
 11
2031.50003
 21
1190.000018
 31
0.0
  0
LINE
  5
308
100
AcDbEntity
  8
SEVEN
 62
     5
100
AcDbLine
 10
2054.300031
 20
1183.100018
 30
0.0
 11
2031.50003
 21
1183.100018
 31
0.0
  0
LINE
  5
309
100
AcDbEntity
  8
SEVEN
 62
     5
100
AcDbLine
 10
2054.300031
 20
1176.200018
 30
0.0
 11
2031.50003
 21
1176.200018
 31
0.0
  0
LINE
  5
30A
100
AcDbEntity
  8
SEVEN
 62
     5
100
AcDbLine
 10
2054.300031
 20
1210.400018
 30
0.0
 11
2054.300031
 21
1260.500019
 31
0.0
  0
LINE
  5
30B
100
AcDbEntity
  8
SEVEN
 62
     5
100
AcDbLine
 10
2054.300031
 20
1210.400018
 30
0.0
 11
2054.300031
 21
1211.600018
 31
0.0
  0
LINE
  5
30C
100
AcDbEntity
  8
SEVEN
 62
     5
100
AcDbLine
 10
2054.300031
 20
1210.400018
 30
0.0
 11
2052.500031
 21
1210.400018
 31
0.0
  0
LINE
  5
30D
100
AcDbEntity
  8
SEVEN
 62
     5
100
AcDbLine
 10
2054.300031
 20
1205.900018
 30
0.0
 11
2052.500031
 21
1205.900018
 31
0.0
  0
ARC
  5
30E
100
AcDbEntity
  8
SEVEN
 62
     5
100
AcDbCircle
 10
2060.800031
 20
1208.000018
 30
0.0
 40
6.8
100
AcDbArc
 50
161.0
 51
199.0
  0
LINE
  5
30F
100
AcDbEntity
  8
SEVEN
 62
     5
100
AcDbLine
 10
2054.300031
 20
1204.700018
 30
0.0
 11
2054.300031
 21
1205.900018
 31
0.0
  0
LINE
  5
310
100
AcDbEntity
  8
SEVEN
 62
     5
100
AcDbLine
 10
2054.300031
 20
1210.400018
 30
0.0
 11
2054.300031
 21
1211.600018
 31
0.0
  0
LINE
  5
311
100
AcDbEntity
  8
SEVEN
 62
     5
100
AcDbLine
 10
2054.300031
 20
1203.500018
 30
0.0
 11
2054.300031
 21
1204.700018
 31
0.0
  0
LINE
  5
312
100
AcDbEntity
  8
SEVEN
 62
     5
100
AcDbLine
 10
2054.300031
 20
1203.500018
 30
0.0
 11
2052.500031
 21
1203.500018
 31
0.0
  0
LINE
  5
313
100
AcDbEntity
  8
SEVEN
 62
     5
100
AcDbLine
 10
2054.300031
 20
1199.000018
 30
0.0
 11
2052.500031
 21
1199.000018
 31
0.0
  0
ARC
  5
314
100
AcDbEntity
  8
SEVEN
 62
     5
100
AcDbCircle
 10
2060.800031
 20
1201.400018
 30
0.0
 40
6.8
100
AcDbArc
 50
161.0
 51
199.0
  0
LINE
  5
315
100
AcDbEntity
  8
SEVEN
 62
     5
100
AcDbLine
 10
2054.300031
 20
1197.800018
 30
0.0
 11
2054.300031
 21
1199.000018
 31
0.0
  0
LINE
  5
316
100
AcDbEntity
  8
SEVEN
 62
     5
100
AcDbLine
 10
2054.300031
 20
1203.500018
 30
0.0
 11
2054.300031
 21
1204.700018
 31
0.0
  0
LINE
  5
317
100
AcDbEntity
  8
SEVEN
 62
     5
100
AcDbLine
 10
2054.300031
 20
1196.600018
 30
0.0
 11
2054.300031
 21
1198.000018
 31
0.0
  0
LINE
  5
318
100
AcDbEntity
  8
SEVEN
 62
     5
100
AcDbLine
 10
2054.300031
 20
1196.600018
 30
0.0
 11
2052.500031
 21
1196.600018
 31
0.0
  0
LINE
  5
319
100
AcDbEntity
  8
SEVEN
 62
     5
100
AcDbLine
 10
2054.300031
 20
1192.100018
 30
0.0
 11
2052.500031
 21
1192.100018
 31
0.0
  0
ARC
  5
31A
100
AcDbEntity
  8
SEVEN
 62
     5
100
AcDbCircle
 10
2060.800031
 20
1194.500018
 30
0.0
 40
6.8
100
AcDbArc
 50
161.0
 51
199.0
  0
LINE
  5
31B
100
AcDbEntity
  8
SEVEN
 62
     5
100
AcDbLine
 10
2054.300031
 20
1191.000018
 30
0.0
 11
2054.300031
 21
1192.100018
 31
0.0
  0
LINE
  5
31C
100
AcDbEntity
  8
SEVEN
 62
     5
100
AcDbLine
 10
2054.300031
 20
1196.600018
 30
0.0
 11
2054.300031
 21
1198.000018
 31
0.0
  0
LINE
  5
31D
100
AcDbEntity
  8
SEVEN
 62
     5
100
AcDbLine
 10
2054.300031
 20
1183.100018
 30
0.0
 11
2054.300031
 21
1184.300018
 31
0.0
  0
LINE
  5
31E
100
AcDbEntity
  8
SEVEN
 62
     5
100
AcDbLine
 10
2054.300031
 20
1183.100018
 30
0.0
 11
2052.500031
 21
1183.100018
 31
0.0
  0
LINE
  5
31F
100
AcDbEntity
  8
SEVEN
 62
     5
100
AcDbLine
 10
2054.300031
 20
1178.600018
 30
0.0
 11
2052.500031
 21
1178.600018
 31
0.0
  0
ARC
  5
320
100
AcDbEntity
  8
SEVEN
 62
     5
100
AcDbCircle
 10
2060.800031
 20
1180.700018
 30
0.0
 40
6.8
100
AcDbArc
 50
161.0
 51
199.0
  0
LINE
  5
321
100
AcDbEntity
  8
SEVEN
 62
     5
100
AcDbLine
 10
2054.300031
 20
1177.400018
 30
0.0
 11
2054.300031
 21
1178.600018
 31
0.0
  0
LINE
  5
322
100
AcDbEntity
  8
SEVEN
 62
     5
100
AcDbLine
 10
2054.300031
 20
1183.100018
 30
0.0
 11
2054.300031
 21
1184.300018
 31
0.0
  0
LINE
  5
323
100
AcDbEntity
  8
SEVEN
 62
     5
100
AcDbLine
 10
2054.300031
 20
1178.600018
 30
0.0
 11
2052.500031
 21
1178.600018
 31
0.0
  0
LINE
  5
324
100
AcDbEntity
  8
SEVEN
 62
     5
100
AcDbLine
 10
2054.300031
 20
1183.100018
 30
0.0
 11
2052.500031
 21
1183.100018
 31
0.0
  0
LINE
  5
325
100
AcDbEntity
  8
SEVEN
 62
     5
100
AcDbLine
 10
2054.300031
 20
1171.700017
 30
0.0
 11
2052.500031
 21
1171.700017
 31
0.0
  0
LINE
  5
326
100
AcDbEntity
  8
SEVEN
 62
     5
100
AcDbLine
 10
2054.300031
 20
1176.200018
 30
0.0
 11
2052.500031
 21
1176.200018
 31
0.0
  0
LINE
  5
327
100
AcDbEntity
  8
SEVEN
 62
     5
100
AcDbLine
 10
2054.300031
 20
1176.200018
 30
0.0
 11
2054.300031
 21
1177.400018
 31
0.0
  0
LINE
  5
328
100
AcDbEntity
  8
SEVEN
 62
     5
100
AcDbLine
 10
2054.300031
 20
1176.200018
 30
0.0
 11
2052.500031
 21
1176.200018
 31
0.0
  0
LINE
  5
329
100
AcDbEntity
  8
SEVEN
 62
     5
100
AcDbLine
 10
2054.300031
 20
1171.700017
 30
0.0
 11
2052.500031
 21
1171.700017
 31
0.0
  0
ARC
  5
32A
100
AcDbEntity
  8
SEVEN
 62
     5
100
AcDbCircle
 10
2060.800031
 20
1173.900017
 30
0.0
 40
6.8
100
AcDbArc
 50
161.0
 51
199.0
  0
LINE
  5
32B
100
AcDbEntity
  8
SEVEN
 62
     5
100
AcDbLine
 10
2054.300031
 20
1170.500017
 30
0.0
 11
2054.300031
 21
1171.700017
 31
0.0
  0
LINE
  5
32C
100
AcDbEntity
  8
SEVEN
 62
     5
100
AcDbLine
 10
2054.300031
 20
1176.200018
 30
0.0
 11
2054.300031
 21
1177.400018
 31
0.0
  0
LINE
  5
32D
100
AcDbEntity
  8
SEVEN
 62
     5
100
AcDbLine
 10
2054.300031
 20
1171.700017
 30
0.0
 11
2052.500031
 21
1171.700017
 31
0.0
  0
LINE
  5
32E
100
AcDbEntity
  8
SEVEN
 62
     5
100
AcDbLine
 10
2054.300031
 20
1176.200018
 30
0.0
 11
2052.500031
 21
1176.200018
 31
0.0
  0
ARC
  5
32F
100
AcDbEntity
  8
SEVEN
 62
     5
100
AcDbCircle
 10
1980.30003
 20
1099.300016
 30
0.0
 40
45.500001
100
AcDbArc
 50
90.0
 51
180.0
  0
LINE
  5
330
100
AcDbEntity
  8
SEVEN
  6
DASHED
 62
     5
100
AcDbLine
 10
2014.40003
 20
1148.300017
 30
0.0
 11
2014.40003
 21
1129.500017
 31
0.0
  0
LINE
  5
331
100
AcDbEntity
  8
SEVEN
  6
DASHED
 62
     5
100
AcDbLine
 10
2014.40003
 20
1129.500017
 30
0.0
 11
2014.40003
 21
1127.700017
 31
0.0
  0
LINE
  5
332
100
AcDbEntity
  8
SEVEN
 62
     5
100
AcDbLine
 10
1980.30003
 20
1144.800017
 30
0.0
 11
2033.90003
 21
1144.800017
 31
0.0
  0
ARC
  5
333
100
AcDbEntity
  8
SEVEN
 62
     5
100
AcDbCircle
 10
2033.90003
 20
1173.300017
 30
0.0
 40
28.4
100
AcDbArc
 50
268.0
 51
352.0
  0
ARC
  5
334
100
AcDbEntity
  8
SEVEN
 62
     5
100
AcDbCircle
 10
2050.600031
 20
1126.700017
 30
0.0
 40
1.1
100
AcDbArc
 50
270.0
 51
346.0
  0
ARC
  5
335
100
AcDbEntity
  8
SEVEN
 62
     5
100
AcDbCircle
 10
2033.90003
 20
1173.300017
 30
0.0
 40
28.4
100
AcDbArc
 50
270.0
 51
0.0
  0
LINE
  5
336
100
AcDbEntity
  8
SEVEN
 62
     5
100
AcDbLine
 10
1951.800029
 20
738.400011
 30
0.0
 11
1591.300024
 21
738.400011
 31
0.0
  0
LINE
  5
337
100
AcDbEntity
  8
SEVEN
 62
     5
100
AcDbLine
 10
1951.800029
 20
818.100012
 30
0.0
 11
1591.300024
 21
818.100012
 31
0.0
  0
LINE
  5
338
100
AcDbEntity
  8
SEVEN
 62
     5
100
AcDbLine
 10
1591.300024
 20
700.70001
 30
0.0
 11
1591.300024
 21
885.100013
 31
0.0
  0
ARC
  5
339
100
AcDbEntity
  8
SEVEN
 62
     5
100
AcDbCircle
 10
2014.40003
 20
1146.600017
 30
0.0
 40
17.0
100
AcDbArc
 50
180.0
 51
186.0
  0
LINE
  5
33A
100
AcDbEntity
  8
SEVEN
 62
     5
100
AcDbLine
 10
1719.500026
 20
746.800011
 30
0.0
 11
1719.500026
 21
1315.60002
 31
0.0
  0
LINE
  5
33B
100
AcDbEntity
  8
SEVEN
 62
     5
100
AcDbLine
 10
1656.900025
 20
746.800011
 30
0.0
 11
1719.500026
 21
746.800011
 31
0.0
  0
LINE
  5
33C
100
AcDbEntity
  8
SEVEN
 62
     5
100
AcDbLine
 10
1719.500026
 20
1315.60002
 30
0.0
 11
1708.100025
 21
1327.00002
 31
0.0
  0
LINE
  5
33D
100
AcDbEntity
  8
SEVEN
 62
     5
100
AcDbLine
 10
1708.100025
 20
1327.00002
 30
0.0
 11
1656.900025
 21
1327.00002
 31
0.0
  0
LINE
  5
33E
100
AcDbEntity
  8
SEVEN
 62
     5
100
AcDbLine
 10
1656.900025
 20
1327.00002
 30
0.0
 11
1656.900025
 21
746.800011
 31
0.0
  0
LINE
  5
33F
100
AcDbEntity
  8
SEVEN
  6
DOT
 62
     5
100
AcDbLine
 10
1659.200025
 20
1327.00002
 30
0.0
 11
1659.200025
 21
746.800011
 31
0.0
  0
LINE
  5
340
100
AcDbEntity
  8
SEVEN
 62
     5
100
AcDbLine
 10
1659.200025
 20
1327.00002
 30
0.0
 11
1659.200025
 21
1939.200029
 31
0.0
  0
LINE
  5
341
100
AcDbEntity
  8
SEVEN
 62
     5
100
AcDbLine
 10
1663.800025
 20
1939.200029
 30
0.0
 11
1663.800025
 21
1327.00002
 31
0.0
  0
LINE
  5
342
100
AcDbEntity
  8
SEVEN
 62
     5
100
AcDbLine
 10
1659.200025
 20
1939.200029
 30
0.0
 11
1663.800025
 21
1939.200029
 31
0.0
  0
LINE
  5
343
100
AcDbEntity
  8
SEVEN
  6
DOT
 62
     5
100
AcDbLine
 10
1663.800025
 20
1327.00002
 30
0.0
 11
1663.800025
 21
746.200011
 31
0.0
  0
LINE
  5
344
100
AcDbEntity
  8
SEVEN
  6
DOT
 62
     5
100
AcDbLine
 10
1663.800025
 20
746.200011
 30
0.0
 11
1591.300024
 21
746.200011
 31
0.0
  0
LINE
  5
345
100
AcDbEntity
  8
SEVEN
  6
DOT
 62
     5
100
AcDbLine
 10
1591.300024
 20
746.200011
 30
0.0
 11
1591.300024
 21
885.100013
 31
0.0
  0
LINE
  5
346
100
AcDbEntity
  8
SEVEN
 62
     5
100
AcDbLine
 10
1591.300024
 20
926.900014
 30
0.0
 11
1591.300024
 21
1939.200029
 31
0.0
  0
LINE
  5
347
100
AcDbEntity
  8
SEVEN
 62
     5
100
AcDbLine
 10
1591.300024
 20
1939.200029
 30
0.0
 11
1597.600024
 21
1939.200029
 31
0.0
  0
LINE
  5
348
100
AcDbEntity
  8
SEVEN
 62
     5
100
AcDbLine
 10
1634.700024
 20
1939.200029
 30
0.0
 11
1659.200025
 21
1939.200029
 31
0.0
  0
LINE
  5
349
100
AcDbEntity
  8
SEVEN
 62
     5
100
AcDbLine
 10
1719.300026
 20
1313.50002
 30
0.0
 11
2036.60003
 21
1313.50002
 31
0.0
  0
LINE
  5
34A
100
AcDbEntity
  8
SEVEN
 62
     5
100
AcDbLine
 10
2036.60003
 20
1313.50002
 30
0.0
 11
2036.60003
 21
1285.000019
 31
0.0
  0
LINE
  5
34B
100
AcDbEntity
  8
SEVEN
 62
     5
100
AcDbLine
 10
1719.500026
 20
1085.700016
 30
0.0
 11
1905.700028
 21
1085.700016
 31
0.0
  0
LINE
  5
34C
100
AcDbEntity
  8
SEVEN
 62
     5
100
AcDbLine
 10
1905.700028
 20
1085.700016
 30
0.0
 11
1905.700028
 21
1057.200016
 31
0.0
  0
LINE
  5
34D
100
AcDbEntity
  8
SEVEN
 62
     5
100
AcDbLine
 10
1905.700028
 20
1057.200016
 30
0.0
 11
1719.500026
 21
1057.200016
 31
0.0
  0
LINE
  5
34E
100
AcDbEntity
  8
SEVEN
 62
     5
100
AcDbLine
 10
1740.500026
 20
1324.90002
 30
0.0
 11
2036.60003
 21
1324.90002
 31
0.0
  0
LINE
  5
34F
100
AcDbEntity
  8
SEVEN
 62
     5
100
AcDbLine
 10
2036.60003
 20
1324.90002
 30
0.0
 11
2036.60003
 21
1286.200019
 31
0.0
  0
LINE
  5
350
100
AcDbEntity
  8
SEVEN
 62
     5
100
AcDbLine
 10
1740.500026
 20
1313.50002
 30
0.0
 11
1740.500026
 21
1324.90002
 31
0.0
  0
LINE
  5
351
100
AcDbEntity
  8
SEVEN
 62
     5
100
AcDbLine
 10
2036.60003
 20
1285.000019
 30
0.0
 11
1974.600029
 21
1285.000019
 31
0.0
  0
LINE
  5
352
100
AcDbEntity
  8
SEVEN
 62
     5
100
AcDbLine
 10
1974.600029
 20
1285.000019
 30
0.0
 11
1719.500026
 21
1285.000019
 31
0.0
  0
LINE
  5
353
100
AcDbEntity
  8
SEVEN
 62
     5
100
AcDbLine
 10
2030.50003
 20
1326.00002
 30
0.0
 11
2027.80003
 21
1324.50002
 31
0.0
  0
LINE
  5
354
100
AcDbEntity
  8
SEVEN
  6
DOT
 62
     5
100
AcDbLine
 10
2027.80003
 20
1324.50002
 30
0.0
 11
2011.30003
 21
1314.80002
 31
0.0
  0
LINE
  5
355
100
AcDbEntity
  8
SEVEN
 62
     5
100
AcDbLine
 10
2039.60003
 20
1333.10002
 30
0.0
 11
2024.60003
 21
1324.50002
 31
0.0
  0
LINE
  5
356
100
AcDbEntity
  8
SEVEN
  6
DOT
 62
     5
100
AcDbLine
 10
2024.60003
 20
1324.50002
 30
0.0
 11
2010.30003
 21
1316.40002
 31
0.0
  0
LINE
  5
357
100
AcDbEntity
  8
SEVEN
 62
     5
100
AcDbLine
 10
2039.60003
 20
1333.10002
 30
0.0
 11
2024.80003
 21
1324.70002
 31
0.0
  0
LINE
  5
358
100
AcDbEntity
  8
SEVEN
  6
DOT
 62
     5
100
AcDbLine
 10
1995.80003
 20
1288.100019
 30
0.0
 11
2036.60003
 21
1311.70002
 31
0.0
  0
LINE
  5
359
100
AcDbEntity
  8
SEVEN
 62
     5
100
AcDbLine
 10
2036.60003
 20
1311.70002
 30
0.0
 11
2041.10003
 21
1314.50002
 31
0.0
  0
LINE
  5
35A
100
AcDbEntity
  8
SEVEN
 62
     5
100
AcDbLine
 10
2049.800031
 20
1299.500019
 30
0.0
 11
2036.60003
 21
1292.100019
 31
0.0
  0
LINE
  5
35B
100
AcDbEntity
  8
SEVEN
 62
     5
100
AcDbLine
 10
2036.60003
 20
1311.70002
 30
0.0
 11
2041.10003
 21
1314.50002
 31
0.0
  0
LINE
  5
35C
100
AcDbEntity
  8
SEVEN
 62
     5
100
AcDbLine
 10
2049.800031
 20
1299.500019
 30
0.0
 11
2036.60003
 21
1292.100019
 31
0.0
  0
LINE
  5
35D
100
AcDbEntity
  8
SEVEN
  6
DOT
 62
     5
100
AcDbLine
 10
2031.90003
 20
1289.300019
 30
0.0
 11
2004.40003
 21
1273.400019
 31
0.0
  0
LINE
  5
35E
100
AcDbEntity
  8
SEVEN
 62
     5
100
AcDbLine
 10
2004.40003
 20
1273.400019
 30
0.0
 11
2024.40003
 21
1285.000019
 31
0.0
  0
LINE
  5
35F
100
AcDbEntity
  8
SEVEN
 62
     5
100
AcDbLine
 10
2036.60003
 20
1292.100019
 30
0.0
 11
2049.800031
 21
1299.500019
 31
0.0
  0
LINE
  5
360
100
AcDbEntity
  8
SEVEN
 62
     5
100
AcDbLine
 10
2041.10003
 20
1314.50002
 30
0.0
 11
2036.60003
 21
1311.70002
 31
0.0
  0
LINE
  5
361
100
AcDbEntity
  8
SEVEN
 62
     5
100
AcDbLine
 10
2004.40003
 20
1273.400019
 30
0.0
 11
2024.40003
 21
1285.000019
 31
0.0
  0
LINE
  5
362
100
AcDbEntity
  8
SEVEN
 62
     5
100
AcDbLine
 10
2036.60003
 20
1292.100019
 30
0.0
 11
2049.800031
 21
1299.500019
 31
0.0
  0
LINE
  5
363
100
AcDbEntity
  8
SEVEN
 62
     5
100
AcDbLine
 10
2041.10003
 20
1314.50002
 30
0.0
 11
2036.60003
 21
1311.70002
 31
0.0
  0
LINE
  5
364
100
AcDbEntity
  8
SEVEN
 62
     5
100
AcDbLine
 10
2024.80003
 20
1285.200019
 30
0.0
 11
2004.40003
 21
1273.400019
 31
0.0
  0
LINE
  5
365
100
AcDbEntity
  8
SEVEN
  6
DOT
 62
     5
100
AcDbLine
 10
2036.60003
 20
1292.100019
 30
0.0
 11
2031.90003
 21
1289.300019
 31
0.0
  0
ARC
  5
366
100
AcDbEntity
  8
SEVEN
  6
DOT
 62
     5
100
AcDbCircle
 10
2001.10003
 20
1281.500019
 30
0.0
 40
14.7
100
AcDbArc
 50
65.0
 51
161.0
  0
ARC
  5
367
100
AcDbEntity
  8
SEVEN
 62
     5
100
AcDbCircle
 10
2001.10003
 20
1281.500019
 30
0.0
 40
14.7
100
AcDbArc
 50
163.0
 51
164.0
  0
ARC
  5
368
100
AcDbEntity
  8
SEVEN
 62
     5
100
AcDbCircle
 10
2001.10003
 20
1281.500019
 30
0.0
 40
14.7
100
AcDbArc
 50
164.0
 51
165.0
  0
ARC
  5
369
100
AcDbEntity
  8
SEVEN
 62
     5
100
AcDbCircle
 10
2001.10003
 20
1281.500019
 30
0.0
 40
14.7
100
AcDbArc
 50
163.0
 51
165.0
  0
ARC
  5
36A
100
AcDbEntity
  8
SEVEN
 62
     5
100
AcDbCircle
 10
2001.10003
 20
1281.500019
 30
0.0
 40
14.7
100
AcDbArc
 50
166.0
 51
245.0
  0
ARC
  5
36B
100
AcDbEntity
  8
SEVEN
 62
     5
100
AcDbCircle
 10
2001.10003
 20
1281.500019
 30
0.0
 40
14.7
100
AcDbArc
 50
166.0
 51
245.0
  0
LINE
  5
36C
100
AcDbEntity
  8
SEVEN
 62
     5
100
AcDbLine
 10
1669.500025
 20
1890.700028
 30
0.0
 11
1669.500025
 21
1953.400029
 31
0.0
  0
LINE
  5
36D
100
AcDbEntity
  8
SEVEN
 62
     5
100
AcDbLine
 10
1669.500025
 20
1953.400029
 30
0.0
 11
1669.500025
 21
1947.700029
 31
0.0
  0
LINE
  5
36E
100
AcDbEntity
  8
SEVEN
 62
     5
100
AcDbLine
 10
1669.500025
 20
1947.700029
 30
0.0
 11
1669.500025
 21
1953.400029
 31
0.0
  0
LINE
  5
36F
100
AcDbEntity
  8
SEVEN
 62
     5
100
AcDbLine
 10
1669.500025
 20
1953.400029
 30
0.0
 11
1663.800025
 21
1953.400029
 31
0.0
  0
LINE
  5
370
100
AcDbEntity
  8
SEVEN
 62
     5
100
AcDbLine
 10
1663.800025
 20
1953.400029
 30
0.0
 11
1663.800025
 21
1890.700028
 31
0.0
  0
LINE
  5
371
100
AcDbEntity
  8
SEVEN
 62
     5
100
AcDbLine
 10
1663.800025
 20
1890.700028
 30
0.0
 11
1669.500025
 21
1890.700028
 31
0.0
  0
LINE
  5
372
100
AcDbEntity
  8
SEVEN
 62
     5
100
AcDbLine
 10
1663.800025
 20
1933.500029
 30
0.0
 11
1669.500025
 21
1933.500029
 31
0.0
  0
LINE
  5
373
100
AcDbEntity
  8
SEVEN
 62
     5
100
AcDbLine
 10
1669.500025
 20
1938.400029
 30
0.0
 11
1669.500025
 21
1958.300029
 31
0.0
  0
LINE
  5
374
100
AcDbEntity
  8
SEVEN
 62
     5
100
AcDbLine
 10
1669.500025
 20
1958.300029
 30
0.0
 11
2034.50003
 21
1958.300029
 31
0.0
  0
LINE
  5
375
100
AcDbEntity
  8
SEVEN
 62
     5
100
AcDbLine
 10
1669.500025
 20
1896.400028
 30
0.0
 11
2039.00003
 21
1896.400028
 31
0.0
  0
LINE
  5
376
100
AcDbEntity
  8
SEVEN
 62
     5
100
AcDbLine
 10
1669.500025
 20
1938.400029
 30
0.0
 11
2034.50003
 21
1938.400029
 31
0.0
  0
LINE
  5
377
100
AcDbEntity
  8
SEVEN
 62
     5
100
AcDbLine
 10
2034.50003
 20
1932.300029
 30
0.0
 11
2034.50003
 21
1896.400028
 31
0.0
  0
LINE
  5
378
100
AcDbEntity
  8
SEVEN
 62
     5
100
AcDbLine
 10
1669.500025
 20
1935.900029
 30
0.0
 11
2030.90003
 21
1935.900029
 31
0.0
  0
LINE
  5
379
100
AcDbEntity
  8
SEVEN
 62
     5
100
AcDbLine
 10
2039.00003
 20
1953.700029
 30
0.0
 11
2039.00003
 21
1933.900029
 31
0.0
  0
LINE
  5
37A
100
AcDbEntity
  8
SEVEN
 62
     5
100
AcDbLine
 10
2039.00003
 20
1933.900029
 30
0.0
 11
2039.00003
 21
1896.400028
 31
0.0
  0
LINE
  5
37B
100
AcDbEntity
  8
SEVEN
 62
     5
100
AcDbLine
 10
1669.500025
 20
1930.600029
 30
0.0
 11
1970.600029
 21
1930.600029
 31
0.0
  0
LINE
  5
37C
100
AcDbEntity
  8
SEVEN
 62
     5
100
AcDbLine
 10
2034.50003
 20
1896.400028
 30
0.0
 11
2034.50003
 21
1913.500029
 31
0.0
  0
LINE
  5
37D
100
AcDbEntity
  8
SEVEN
 62
     5
100
AcDbLine
 10
2034.50003
 20
1913.500029
 30
0.0
 11
1970.600029
 21
1930.600029
 31
0.0
  0
LINE
  5
37E
100
AcDbEntity
  8
SEVEN
 62
     1
100
AcDbLine
 10
1951.800029
 20
738.400011
 30
0.0
 11
1951.800029
 21
755.500011
 31
0.0
  0
LINE
  5
37F
100
AcDbEntity
  8
SEVEN
  6
DOT
 62
     5
100
AcDbLine
 10
1951.800029
 20
755.500011
 30
0.0
 11
1894.900028
 21
755.500011
 31
0.0
  0
LINE
  5
380
100
AcDbEntity
  8
SEVEN
  6
DOT
 62
     5
100
AcDbLine
 10
1951.800029
 20
757.200011
 30
0.0
 11
1894.900028
 21
757.200011
 31
0.0
  0
LINE
  5
381
100
AcDbEntity
  8
1
 62
     7
100
AcDbLine
 10
430.100006
 20
700.70001
 30
0.0
 11
785.500012
 21
700.70001
 31
0.0
  0
LINE
  5
382
100
AcDbEntity
  8
1
 62
     7
100
AcDbLine
 10
785.500012
 20
700.70001
 30
0.0
 11
1779.600027
 21
700.70001
 31
0.0
  0
LINE
  5
383
100
AcDbEntity
  8
1
 62
     7
100
AcDbLine
 10
430.100006
 20
575.400009
 30
0.0
 11
785.500012
 21
575.400009
 31
0.0
  0
LINE
  5
384
100
AcDbEntity
  8
1
 62
     7
100
AcDbLine
 10
785.500012
 20
575.400009
 30
0.0
 11
1746.000026
 21
575.400009
 31
0.0
  0
LINE
  5
385
100
AcDbEntity
  8
1
 62
     7
100
AcDbLine
 10
7.6
 20
524.200008
 30
0.0
 11
916.500014
 21
524.200008
 31
0.0
  0
LINE
  5
386
100
AcDbEntity
  8
1
 62
     7
100
AcDbLine
 10
916.500014
 20
524.200008
 30
0.0
 11
3274.600049
 21
524.200008
 31
0.0
  0
LINE
  5
387
100
AcDbEntity
  8
1
 62
     7
100
AcDbLine
 10
765.700011
 20
1281.300019
 30
0.0
 11
785.500012
 21
1281.300019
 31
0.0
  0
LINE
  5
388
100
AcDbEntity
  8
1
 62
     7
100
AcDbLine
 10
785.500012
 20
1215.900018
 30
0.0
 11
765.700011
 21
1215.900018
 31
0.0
  0
LINE
  5
389
100
AcDbEntity
  8
1
 62
     7
100
AcDbLine
 10
785.500012
 20
1221.600018
 30
0.0
 11
765.700011
 21
1221.600018
 31
0.0
  0
LINE
  5
38A
100
AcDbEntity
  8
1
 62
     7
100
AcDbLine
 10
770.000011
 20
703.60001
 30
0.0
 11
785.500012
 21
703.60001
 31
0.0
  0
LINE
  5
38B
100
AcDbEntity
  8
1
 62
     7
100
AcDbLine
 10
785.500012
 20
703.60001
 30
0.0
 11
1254.000019
 21
703.60001
 31
0.0
  0
LINE
  5
38C
100
AcDbEntity
  8
1
 62
     7
100
AcDbLine
 10
785.500012
 20
1130.700017
 30
0.0
 11
770.000011
 21
1130.700017
 31
0.0
  0
LINE
  5
38D
100
AcDbEntity
  8
1
 62
     7
100
AcDbLine
 10
777.700012
 20
1150.100017
 30
0.0
 11
785.500012
 21
1150.100017
 31
0.0
  0
LINE
  5
38E
100
AcDbEntity
  8
1
 62
     7
100
AcDbLine
 10
785.500012
 20
1281.300019
 30
0.0
 11
1233.200018
 21
1281.300019
 31
0.0
  0
LINE
  5
38F
100
AcDbEntity
  8
1
 62
     7
100
AcDbLine
 10
1233.200018
 20
1281.300019
 30
0.0
 11
1258.300019
 21
1281.300019
 31
0.0
  0
LINE
  5
390
100
AcDbEntity
  8
1
 62
     7
100
AcDbLine
 10
1258.300019
 20
1215.900018
 30
0.0
 11
1233.200018
 21
1215.900018
 31
0.0
  0
LINE
  5
391
100
AcDbEntity
  8
1
 62
     7
100
AcDbLine
 10
1233.200018
 20
1215.900018
 30
0.0
 11
785.500012
 21
1215.900018
 31
0.0
  0
LINE
  5
392
100
AcDbEntity
  8
1
 62
     7
100
AcDbLine
 10
1258.300019
 20
1221.600018
 30
0.0
 11
1233.200018
 21
1221.600018
 31
0.0
  0
LINE
  5
393
100
AcDbEntity
  8
1
 62
     7
100
AcDbLine
 10
1233.200018
 20
1221.600018
 30
0.0
 11
785.500012
 21
1221.600018
 31
0.0
  0
LINE
  5
394
100
AcDbEntity
  8
1
 62
     7
100
AcDbLine
 10
1254.000019
 20
1130.700017
 30
0.0
 11
1233.200018
 21
1130.700017
 31
0.0
  0
LINE
  5
395
100
AcDbEntity
  8
1
 62
     7
100
AcDbLine
 10
1254.000019
 20
1130.700017
 30
0.0
 11
785.500012
 21
1130.700017
 31
0.0
  0
LINE
  5
396
100
AcDbEntity
  8
1
 62
     7
100
AcDbLine
 10
785.500012
 20
1150.100017
 30
0.0
 11
1233.200018
 21
1150.100017
 31
0.0
  0
LINE
  5
397
100
AcDbEntity
  8
1
 62
     7
100
AcDbLine
 10
1233.200018
 20
1150.100017
 30
0.0
 11
1246.300019
 21
1150.100017
 31
0.0
  0
LINE
  5
398
100
AcDbEntity
  8
ONE
 62
     7
100
AcDbLine
 10
290.500004
 20
700.70001
 30
0.0
 11
290.500004
 21
575.400009
 31
0.0
  0
LINE
  5
399
100
AcDbEntity
  8
ONE
 62
     7
100
AcDbLine
 10
404.400006
 20
700.70001
 30
0.0
 11
290.500004
 21
700.70001
 31
0.0
  0
LINE
  5
39A
100
AcDbEntity
  8
ONE
 62
     7
100
AcDbLine
 10
290.500004
 20
575.400009
 30
0.0
 11
404.400006
 21
575.400009
 31
0.0
  0
LINE
  5
39B
100
AcDbEntity
  8
ONE
 62
     7
100
AcDbLine
 10
365.900005
 20
575.400009
 30
0.0
 11
365.900005
 21
700.70001
 31
0.0
  0
LINE
  5
39C
100
AcDbEntity
  8
ONE
 62
     7
100
AcDbLine
 10
14.9
 20
519.500008
 30
0.0
 11
117.400002
 21
519.500008
 31
0.0
  0
LINE
  5
39D
100
AcDbEntity
  8
ONE
 62
     7
100
AcDbLine
 10
32.0
 20
513.800008
 30
0.0
 11
106.000002
 21
513.800008
 31
0.0
  0
LINE
  5
39E
100
AcDbEntity
  8
ONE
 62
     7
100
AcDbLine
 10
54.700001
 20
508.100008
 30
0.0
 11
94.600001
 21
508.100008
 31
0.0
  0
TEXT
  5
3A4
100
AcDbEntity
  8
1
 62
     1
100
AcDbText
 10
1964.000029
 20
842.600013
 30
0.0
 40
1.3
  1
= 559
  7
DDSC_1
100
AcDbText
  0
TEXT
  5
3A5
100
AcDbEntity
  8
TEN
 62
     1
100
AcDbText
 10
1992.00003
 20
607.600009
 30
0.0
 40
1.3
  1
+155
  7
DDSC_1
100
AcDbText
  0
ENDSEC
  0
SECTION
  2
OBJECTS
  0
DICTIONARY
  5
C
100
AcDbDictionary
  3
ACAD_GROUP
350
D
  3
ACAD_MLINESTYLE
350
E
  0
DICTIONARY
  5
D
102
{ACAD_REACTORS
330
C
102
}
100
AcDbDictionary
  0
DICTIONARY
  5
E
102
{ACAD_REACTORS
330
C
102
}
100
AcDbDictionary
  3
STANDARD
350
1C
  0
MLINESTYLE
  5
1C
102
{ACAD_REACTORS
330
E
102
}
100
AcDbMlineStyle
  2
STANDARD
 70
     0
  3

 62
     0
 51
90.0
 52
90.0
 71
     2
 49
0.5
 62
   256
  6
BYLAYER
 49
-0.5
 62
   256
  6
BYLAYER
  0
ENDSEC
  0
EOF
